<svg width="448" height="590" viewBox="0 0 448 590" fill="none" xmlns="http://www.w3.org/2000/svg">
<path d="M398.402 436.83C394.711 443.549 402.269 451.358 401.654 459.037C401.039 466.891 392.207 471.777 390.361 479.456C389.614 482.597 390.142 485.913 390.889 489.055C392.295 495.076 394.404 500.966 397.172 506.55C398.051 508.339 399.062 510.128 400.512 511.481C405.037 515.669 412.859 514.273 417.253 509.954C421.647 505.634 423.361 499.264 424.283 493.2C425.206 487.091 425.557 480.809 428.018 475.18C431.577 466.934 439.442 459.997 439.003 451.053C438.783 446.603 436.411 442.502 435.4 438.182C434.346 433.819 435.224 428.278 439.355 426.446L440.673 434.997C452.361 431.376 438.036 393.069 425.338 412.44C420.197 420.338 425.294 425.66 415.056 429.718C409.519 431.899 401.698 430.809 398.358 436.873L398.402 436.83Z" fill="#808285" fill-opacity="0.09"/>
<path d="M446.849 213.653C429.666 225.336 407.206 228.793 387.275 222.886C385.051 222.229 382.609 221.266 381.606 219.166C380.079 216.016 382.522 212.427 382.958 208.971C384.222 198.95 370.005 194.618 365.513 185.648C363.725 182.103 363.594 177.946 363.289 174.008C360.541 138.783 342.224 107.058 326.829 75.2901C325.739 72.971 324.605 70.4767 325.041 67.9388C325.521 65.4008 328.399 63.213 330.623 64.4819C328.966 70.4768 332.629 77.4343 338.473 79.4471C341.134 69.2078 342.616 55.7303 333.458 50.4794C330.361 48.6853 326.611 48.379 323.035 48.204C308.904 47.5039 294.687 48.2915 280.731 50.5669C278.376 50.9607 275.846 51.3108 273.797 50.1293C272.009 49.0792 271.049 47.0225 269.828 45.316C266.383 40.7214 257.268 38.2272 252.427 42.2091C247.062 46.6725 251.162 56.3867 240.826 57.6994C234.982 58.4433 229.356 55.424 224.253 52.536C218.758 49.4292 213.176 46.1911 209.163 41.2902C207.768 39.5399 206.503 37.5708 204.584 36.3894C200.921 34.0702 196.254 35.3392 191.937 35.2954C187.619 35.2954 182.386 32.1011 183.52 27.9441C183.869 26.6313 184.828 25.6249 185.569 24.4872C190.977 16.1732 183.825 4.27103 174.361 1.25173C164.897 -1.76756 154.692 1.25174 145.228 4.22727C131.054 8.73434 116.88 13.1977 102.663 17.7047C97.2986 19.4113 91.6726 21.1178 86.1774 20.1114C81.4237 19.2363 76.452 16.4357 72.1344 18.5361C66.2468 21.3804 67.2062 30.1757 63.6737 35.6892C60.2719 40.9402 53.0323 42.6467 49.5433 47.8539C45.4874 53.8925 47.8861 61.9002 47.4936 69.164C46.6649 83.1228 35.1949 93.756 25.1205 103.47C15.0461 113.185 4.84093 125.787 7.41404 139.571C8.19906 143.815 10.2052 147.797 10.5105 152.085C10.7286 155.63 9.81271 159.13 8.85325 162.587C5.88763 173.439 2.96562 184.247 0 195.099C9.89994 212.69 20.8902 229.668 32.7963 245.902C38.6839 253.91 44.9204 261.874 53.0759 267.562C61.2313 273.251 71.611 276.401 81.2057 273.863C85.4797 272.726 89.492 270.45 93.9405 270.013C100.09 269.356 106.152 272.288 112.345 272.026C119.541 271.719 125.821 267.212 131.621 262.88C137.422 258.548 143.745 254.085 150.941 253.866C158.181 253.647 165.944 259.948 164.418 267.037C164.069 268.569 163.327 270.144 163.545 271.676C164.025 275.045 168.386 276.226 171.701 275.745C175.059 275.308 178.635 274.039 181.688 275.526C185.831 277.583 186.311 283.447 184.915 287.866C183.04 293.861 179.071 298.937 176.411 304.625C173.751 310.314 172.66 317.534 176.411 322.522C178.373 325.104 181.339 326.723 183.738 328.867C187.794 332.455 190.192 337.487 192.155 342.52C200.572 364.049 202.404 388.115 197.737 410.738C195.687 420.759 189.32 428.898 187.314 438.131C185.09 448.545 193.332 460.185 198.217 468.674C205.631 481.582 209.992 496.241 210.952 511.119C211.301 517.026 211.213 523.24 213.917 528.535C215.967 532.473 219.369 535.536 222.204 538.949C232.976 552.164 234.328 570.455 235.244 587.52C237.511 590.54 242.222 590.54 245.623 588.92C249.069 587.301 251.816 584.501 255.131 582.707C263.504 578.2 273.709 580.563 283.13 579.469C299.353 577.631 313.614 564.154 316.406 548.007C317.191 543.544 317.191 538.818 319.11 534.704C321.988 528.491 328.966 524.29 329.882 517.508C330.231 514.838 329.577 512.038 330.143 509.369C331.975 501.011 344.753 498.385 345.844 489.853C346.367 485.783 343.881 482.02 342.311 478.213C337.601 466.923 341.57 452.658 351.383 445.438C355.046 442.725 359.364 440.975 363.114 438.35C381.17 425.791 380.777 398.53 373.145 377.876C370.179 369.825 366.341 361.686 366.908 353.065C367.257 347.421 369.525 342.038 372.142 337.05C378.771 324.448 387.929 313.202 398.876 304.188C406.028 298.324 414.271 293.03 418.327 284.715C420.813 279.64 421.511 273.864 423.473 268.525C427.049 258.811 434.464 251.197 440.264 242.664C446.064 234.131 450.338 223.236 446.588 213.609L446.849 213.653ZM341.657 423.516C341.177 427.06 337.209 430.386 334.156 428.548C334.025 419.096 332.019 409.732 330.013 400.499C329.053 396.079 328.05 391.616 327.091 387.197C326.654 385.14 326 382.821 324.169 381.814C322.86 381.114 321.159 381.202 319.938 380.326C318.107 379.014 318.237 376.169 316.755 374.463C314.792 372.275 311.085 373.063 308.599 371.487C306.113 369.956 305.546 366.63 305.197 363.742L301.447 331.668C301.316 330.443 301.185 329.086 301.839 328.036C302.581 326.854 304.02 326.373 305.328 325.892C310.911 323.748 315.621 319.415 318.237 314.033C319.328 311.714 320.069 309.264 321.595 307.207C327.047 299.812 334.33 302 334.941 309.264C335.813 319.328 331.801 318.059 326.175 321.603C321.857 324.316 314.443 328.867 311.478 333.418C306.985 340.244 310.954 342.17 314.051 348.777C316.885 354.947 314.181 363.217 318.673 368.293C321.596 371.575 326.436 372.188 330.143 374.55C335.944 378.226 338.081 385.709 338.473 392.535C338.866 399.405 337.95 406.406 339.695 413.057C340.567 416.514 342.18 419.971 341.701 423.516H341.657Z" fill="#808285" fill-opacity="0.09"/>
<path d="M378.512 81.3121C378.607 80.2671 377.561 79.1588 376.485 79.9505C375.661 80.5521 374.838 81.1538 373.983 81.7871C373.317 82.2621 372.272 82.8004 371.956 83.592C371.639 84.352 371.956 84.9853 372.367 85.587C372.937 86.4419 373.317 87.1703 373.381 88.2152C373.413 89.1019 374.236 89.8301 375.154 89.5768C376.548 89.1652 377.498 88.1835 378.005 86.8536C378.607 85.2386 378.227 83.5287 378.512 81.8504C378.512 81.6604 378.512 81.4704 378.512 81.3121Z" fill="#808285" fill-opacity="0.09"/>
<path d="M379.558 98.6331C379.4 97.1765 378.956 95.5932 377.436 94.9916C376.612 94.6749 374.142 94.9599 374.142 96.0682C374.11 96.0682 374.015 95.2766 374.015 96.0999C373.635 95.6565 373.033 95.6249 372.558 95.8782C371.957 95.9099 371.418 96.3215 371.26 96.8915C370.817 98.5381 371.197 99.9631 371.925 101.451C372.558 102.75 373.192 103.89 372.78 105.378C372.495 106.36 371.767 107.151 371.703 108.196C371.482 111.394 375.599 111.806 377.531 110.064C380.381 107.468 379.938 102.053 379.59 98.6331H379.558Z" fill="#808285" fill-opacity="0.09"/>
<path d="M407.333 119.279C405.876 118.329 405.274 116.746 405.654 115.068C405.812 114.339 405.401 113.548 404.672 113.358C404.451 113.009 404.102 112.756 403.627 112.693C399.541 112.154 395.487 112.439 391.528 113.548C390.737 113.769 390.452 114.466 390.547 115.099C390.483 115.194 390.452 115.289 390.388 115.416C389.818 116.873 390.99 117.791 392.32 118.107C393.524 118.392 394.791 118.297 395.994 118.709C397.134 119.089 398.179 119.754 399.32 120.197C401.663 121.147 404.102 121.654 406.636 121.876C408.125 122.002 408.41 119.976 407.333 119.279Z" fill="#808285" fill-opacity="0.09"/>
</svg>
