<svg width="13" height="14" viewBox="0 0 13 14" fill="none" xmlns="http://www.w3.org/2000/svg">
<path d="M11.6485 5.55025C11.7875 5.41126 11.8633 5.23435 11.8633 5.02586C11.8633 4.60888 11.5348 4.27403 11.1178 4.27403C10.9093 4.27403 10.7197 4.36248 10.5744 4.50779L6.25296 8.93035L1.94413 4.50779C1.79882 4.36248 1.60296 4.27403 1.40079 4.27403C0.983806 4.27403 0.655273 4.60888 0.655273 5.02586C0.655273 5.23435 0.731088 5.41126 0.870083 5.55025L5.67171 10.4656C5.83598 10.6425 6.03815 10.7246 6.25928 10.731C6.48041 10.731 6.66995 10.6425 6.84053 10.4656L11.6485 5.55025Z" fill="white"/>
</svg>
