<svg width="752" height="856" viewBox="0 0 752 856" fill="none" xmlns="http://www.w3.org/2000/svg">
<path d="M562.63 792.698C559.23 793.047 554.726 793.352 553.401 790.212C552.606 788.38 553.489 786.287 553.533 784.281C553.622 781.01 551.502 778.131 549.957 775.253C547.263 770.15 546.336 764.218 547.263 758.549C547.484 757.109 547.881 755.626 548.897 754.58C549.559 753.926 550.398 753.489 551.193 753.053C554.372 751.396 557.552 749.739 560.731 748.125C564.882 745.988 569.077 743.807 572.963 741.234C582.721 734.779 590.714 725.751 595.836 715.327C597.602 713.452 600.914 715.196 602.106 717.508C603.298 719.776 603.608 722.567 605.418 724.399C608.244 727.19 614.382 727.801 613.896 731.726C613.72 733.253 612.395 734.386 611.291 735.52C607.493 739.489 605.904 745.421 607.273 750.698C608.642 755.975 612.836 760.468 618.091 762.169C613.278 762.605 607.096 764.48 607.096 769.234C607.096 772.243 609.79 775.384 608.112 777.913C606.39 780.53 601.753 779.309 599.678 781.664C598.044 783.583 599.059 786.461 599.413 788.947C600.296 795.184 595.394 801.596 589.124 802.555C586.475 802.948 583.384 802.25 582.059 799.938C581.353 798.717 581.264 797.278 580.69 796.013C578.394 790.91 574.906 793.963 571.505 793.919C569.121 793.919 565.809 792.349 562.63 792.698Z" fill="#808285" fill-opacity="0.09"/>
<path d="M688.004 95.5701C685.245 94.4238 682.305 93.6332 679.32 93.1984C677.737 92.9612 675.385 93.5541 675.747 94.9376C675.928 95.5305 676.561 95.8863 677.194 96.163C681.31 98.1393 685.697 99.6414 690.22 100.748C692.3 101.262 695.195 101.302 695.919 99.5228C696.416 98.2579 695.376 96.9535 694.2 96.1234C691.351 94.068 687.28 93.3565 683.752 94.2656" fill="#808285" fill-opacity="0.09"/>
<path d="M1009 217.059C1008.69 215.745 1007.64 214.737 1006.64 213.816C999.635 207.374 991.846 201.809 983.444 197.383C988.739 196.945 994.209 196.419 998.891 193.877C1003.62 191.379 1007.38 186.339 1006.68 181.037C1005.5 172.009 992.721 166.751 993.99 157.723C994.603 153.648 998.103 149.572 996.222 145.935C994.865 143.437 991.671 142.78 988.826 142.429C974.035 140.457 959.288 138.441 944.453 136.469C945.109 142.122 943.534 148.389 938.983 151.807C934.388 155.182 926.642 154.086 924.498 148.827C923.754 146.987 923.71 144.839 922.441 143.262C919.816 139.887 914.477 141.859 910.407 143.437C901.699 146.811 891.765 146.811 883.101 143.437C881.438 142.736 879.6 141.816 878.9 140.15C877.849 137.652 879.6 134.935 879.731 132.262C879.95 127.661 875.224 124.111 870.629 123.673C866.078 123.279 861.614 125.119 857.238 126.565C844.504 130.685 829.363 131.254 818.904 122.884C815.797 120.43 813.259 117.275 809.889 115.171C805.163 112.191 799.387 111.578 793.873 111.008C779.607 109.562 765.341 108.116 751.075 106.626C749.718 106.451 748.143 106.407 746.961 107.196C745.123 108.554 745.43 111.315 744.817 113.506C743.679 117.757 738.866 119.992 734.49 120.299C730.07 120.605 725.65 119.554 721.274 120.08C718.036 120.43 714.841 121.657 711.603 121.438C708.321 121.263 704.732 118.94 704.82 115.697C700.706 118.283 697.993 122.928 697.862 127.792C689.547 128.713 679.089 122.753 680.927 114.558C681.408 112.454 682.633 110.57 682.852 108.423C683.946 95.1006 651.038 92.1206 643.599 97.8614C641.586 99.439 640.01 101.543 638.085 103.208C629.989 110.263 615.548 107.459 610.647 97.8614C599.007 96.4152 587.192 96.5029 575.507 97.9929C570.781 89.9295 558.441 93.7421 550.564 98.7378C542.687 103.777 531.178 108.686 525.183 101.543C545.094 97.0288 563.955 87.9575 579.971 75.3365C581.59 74.0657 583.341 72.3566 582.947 70.2969C582.728 68.8946 581.503 67.8867 580.321 67.054C572.925 61.9268 563.867 59.2098 554.852 59.4289C548.288 59.5603 540.455 60.7874 536.298 55.7039C533.716 52.5925 533.41 47.8159 530.259 45.2303C527.24 42.7762 522.907 43.3459 519.1 44.0033C510.654 45.5371 502.165 47.0709 493.675 48.6047C492.362 48.8238 490.918 49.1305 489.999 50.0946C488.818 51.4093 488.905 53.3813 488.774 55.1781C488.03 66.3529 473.983 74.2848 464.049 69.0699C460.942 67.4046 458.317 64.8191 454.947 63.7673C450.702 62.4965 446.151 63.9426 441.994 65.4326C424.446 71.5239 406.898 77.6153 389.35 83.7067C394.076 86.9057 400.202 87.9575 405.716 86.5113C407.379 89.4474 403.091 92.0768 399.765 92.778C386.374 95.5826 373.027 98.3873 359.593 101.148C367.251 106.977 374.69 113.156 381.779 119.641C385.236 117.231 388.475 123.498 387.162 127.529C385.893 131.561 383.486 136.557 386.549 139.405C382.436 138.047 378.935 134.979 376.922 131.079C379.066 129.501 381.123 127.88 383.267 126.302C378.585 127.266 373.465 124.199 372.064 119.641C363.531 117.976 355.392 114.295 348.521 108.949C347.165 112.148 349.003 116.398 352.328 117.582C349.178 118.02 346.027 118.37 342.876 118.765C343.926 123.673 348.302 127.661 353.291 128.231C347.033 129.852 340.032 128.362 334.868 124.374C339.55 117.319 332.68 106.144 324.278 107.108C329.092 107.765 329.923 114.689 327.779 119.072C325.634 123.498 321.871 127.442 321.959 132.306C322.046 138.266 327.604 145.453 322.965 149.265C328.61 153.998 339.069 145.409 343.795 150.975C345.239 152.727 345.414 155.138 346.027 157.329C347.865 163.902 355.042 168.46 361.737 167.277C357.886 173.412 348.696 167.364 344.495 161.448C340.338 155.532 330.929 149.66 327.254 155.926C326.072 157.986 326.291 160.484 326.291 162.807C326.072 179.854 306.073 193.395 290.188 187.216C296.227 179.722 310.45 182.702 315.088 174.288C316.97 170.826 316.445 166.619 315.876 162.763C313.994 150.098 312.156 137.477 310.274 124.812C311.368 118.984 311.806 113.024 311.544 107.108C304.892 109.431 294.171 109.124 294.389 102.068C288.744 111.446 283.055 120.824 277.41 130.203C273.953 135.856 271.371 144.708 277.279 147.688C281.217 146.066 285.812 149.397 286.906 153.56C288.044 157.679 286.6 162.018 284.718 165.874C276.229 142.341 233.256 153.166 222.053 130.816C216.933 132.788 221.616 140.72 226.779 142.604C231.987 144.489 239.12 147.819 237.194 152.99C235.75 157.066 230.149 157.066 225.86 156.759C213.476 155.883 200.785 158.731 189.933 164.866C188.97 160.484 187.964 156.146 187.045 151.851C178.03 158.249 168.928 164.647 159.913 171.089C155.493 174.201 150.855 177.4 145.472 177.969C140.133 178.495 133.963 175.296 133.263 169.95C132.563 164.603 140.352 159.914 143.809 164.034C145.297 154.217 131.906 146.023 123.854 151.851C129.193 160.878 129.324 172.798 124.161 181.957C122.235 185.375 119.303 188.574 115.452 189.188C111.601 189.758 107.138 186.427 107.969 182.615C103.068 186.953 100.311 193.57 100.661 200.1C92.6968 202.685 83.2008 199.618 78.2558 192.781C78.8685 196.594 79.4811 200.319 80.0937 204.131C74.3611 210.31 61.8018 205.841 61.2329 197.427C61.1016 194.929 61.7143 192.475 61.7143 189.977C61.7143 181.475 54.2312 175.165 47.4045 170.037C57.6008 173.894 67.8407 177.794 78.0369 181.65C83.7696 183.842 89.8961 186.077 95.8913 184.893C104.687 183.228 110.376 171.352 102.543 165.217C88.4958 154.217 72.3044 145.935 55.1502 140.983C50.2053 139.581 44.9102 138.397 40.0528 139.975C36.0706 141.246 30.7318 143.788 28.5875 140.194C32.5698 140.764 36.8583 139.23 39.5715 136.206C31.257 134.366 22.8549 133.183 14.3653 132.744C4.56298 141.465 -2.08857 153.779 0.755868 166.225C5.13193 185.332 29.9004 201.371 20.842 218.724C29.3753 216.796 38.3024 214.912 46.7482 217.059C51.2993 218.155 55.7191 220.872 58.6948 224.465C58.6948 224.29 58.6948 224.071 58.6948 223.896C61.233 223.063 63.9462 222.186 66.528 222.888C69.1099 223.589 71.2104 226.613 69.8975 228.979C69.0223 230.644 66.703 232.003 67.5344 233.712C68.0596 234.764 69.5037 234.939 70.5977 235.289C73.7485 236.254 75.499 240.329 74.0549 243.265C69.5475 243.002 65.0401 242.783 60.489 242.564C58.9574 245.851 56.9007 249.006 55.4566 252.293C49.3739 266.053 53.7937 281.829 54.3188 296.86C54.5376 304.573 52.7872 313.162 48.98 319.823C49.899 319.648 50.818 319.429 51.7369 319.298C68.7598 316.405 88.2333 320.7 98.6483 334.504C109.063 348.308 105.562 372.016 89.5898 378.502C83.5071 380.956 76.4179 380.869 70.8603 384.374C68.5847 385.733 66.9218 388.187 66.1341 390.772C76.4616 384.9 87.0955 379.291 98.7796 377.1C96.1977 382.621 91.1215 386.828 85.2576 388.275C87.2268 389.545 86.5703 392.832 84.601 394.103C82.6318 395.374 80.0937 395.155 77.8182 394.673C75.5426 394.234 73.1359 393.621 70.9041 394.191C68.9349 394.673 67.3594 396.206 66.5717 398.091C66.1779 398.923 66.0028 399.844 66.0028 400.764C66.0028 401.421 66.1341 401.991 66.3091 402.605C72.2606 397.609 81.7129 397.477 87.7956 402.342C90.1149 404.226 91.9528 406.68 94.4472 408.345C97.2041 410.186 100.793 411.019 102.893 413.648C104.95 416.277 103.506 421.58 100.267 420.879C100.136 422.544 101.887 423.727 103.462 424.034C105.037 424.341 106.831 424.209 108.276 424.954C111.645 426.707 111.033 432.141 108.101 434.551C105.169 436.918 101.055 437.137 97.2479 437.137C87.3143 437.268 76.9868 437.356 67.8846 433.324C63.5961 431.44 59.7451 428.635 55.2815 427.058C50.8617 425.48 45.5228 425.349 41.9345 428.372C40.2716 429.775 39.1339 431.791 37.5147 433.324C33.6638 437.049 27.0997 437.531 22.7236 434.42C19.1353 431.834 17.3848 426.97 18.2163 422.632C14.1028 426.795 10.5581 431.659 8.02001 436.874C10.208 443.097 12.3961 449.363 14.5841 455.586C15.328 457.602 15.9845 459.618 16.7285 461.59C18.829 467.681 22.286 474.824 28.675 475.219C36.7707 475.745 44.9103 464.701 51.3431 474.693C52.5684 476.621 52.9622 478.9 52.9622 481.223C52.9622 485.736 59.1324 491.433 62.4582 487.884C62.0643 484.641 61.7143 481.135 63.2022 478.199C64.69 475.306 68.8035 473.466 71.3854 475.526C73.1358 476.884 73.4859 479.382 73.6172 481.573C73.7485 484.816 73.6172 488.147 73.1796 491.346C72.1731 499.058 69.1098 507.078 62.6333 511.197C57.557 514.396 50.249 516.719 54.4063 523.555C55.369 525.045 59.22 523.336 60.314 524.782C62.7208 528.157 61.0579 531.706 61.3642 535.694C62.0206 544.152 71.6042 548.403 76.8555 555.108C84.1197 564.31 82.5881 577.501 86.1765 588.676C93.4845 611.551 122.279 626.232 120.66 650.203C120.003 659.537 115.452 671.194 123.11 676.584C128.23 680.134 135.232 677.636 140.921 674.963C151.511 670.055 162.145 665.103 172.822 660.151C177.155 658.179 181.75 655.9 183.981 651.649C185.119 649.414 185.513 646.829 187.132 644.9C189.495 642.096 193.609 641.701 197.066 640.562C204.899 637.933 210.15 630.527 214.089 623.208C218.334 615.276 221.659 606.862 224.022 598.142C224.635 595.863 225.204 593.409 224.635 591.086C222.578 582.628 207.743 581.796 206.999 573.119C206.693 569.481 209.231 566.239 210.413 562.82C211.594 559.358 210.282 554.275 206.649 554.319C204.461 560.761 202.098 567.466 197.241 572.198C192.34 576.931 184.069 578.947 178.73 574.784C174.748 571.716 173.435 566.37 170.722 562.163C166.608 555.634 159.082 551.689 155.493 544.897C151.905 538.061 157.156 526.579 164.289 529.515C167.79 542.443 176.63 553.793 188.314 560.279C195.534 557.825 202.492 554.538 209.013 550.462C212.251 547.877 216.539 552.741 216.889 556.861C217.239 561.024 216.583 566.107 219.953 568.517C221.659 569.788 223.979 569.876 226.123 569.876C243.671 569.876 261.131 567.86 278.198 563.828C274.697 574.039 284.106 586.309 294.827 585.521C293.514 589.684 289.357 592.795 284.981 592.839C287.081 596.958 289.313 601.253 293.077 604.014C296.84 606.731 302.529 607.344 305.811 604.101C308.918 601.078 309.312 595.425 313.338 593.759C318.02 591.787 322.659 597.659 322.265 602.743C321.871 607.783 318.72 612.121 317.014 616.941C313.6 626.714 316.795 637.451 319.902 647.311C325.985 666.33 332.286 685.831 344.758 701.476C349.221 697.269 353.729 693.062 358.192 688.855C364.231 689.906 364.45 698.583 362.525 704.368C360.555 710.24 358.761 718.084 364.012 721.283C368.739 724.132 375.04 719.574 376.09 714.184C377.141 708.794 374.69 703.448 372.283 698.496C369.176 692.185 366.113 685.787 363.05 679.433C361.999 677.242 360.862 674.919 361.081 672.465C361.212 670.361 362.262 668.477 363.137 666.549C365.894 660.37 366.769 653.314 365.544 646.653C381.954 638.283 395.695 624.742 404.185 608.308C405.497 605.854 406.723 603.269 408.955 601.604C415.694 596.695 427.028 603.576 432.979 597.747C441.294 600.859 448.295 607.213 452.234 615.189C455.122 621.017 457.791 628.774 464.268 629.256C454.334 633.331 447.639 644.112 448.383 654.804C458.36 657.346 469.388 647.88 468.381 637.626C472.276 635.391 477.44 638.108 479.54 642.096C481.597 646.084 481.378 650.816 481.116 655.286C480.372 668.828 479.54 682.325 478.797 695.779C478.578 699.81 478.403 704.149 480.634 707.479C482.735 710.634 486.717 712.387 488.161 715.893C490.349 721.064 485.973 727.594 488.818 732.458C490.349 735.044 493.369 736.183 495.688 737.98C500.677 741.792 502.34 748.541 505.928 753.712C509.516 758.883 517.831 762.258 521.726 757.306C513.411 750.776 508.116 740.609 507.547 730.004C507.416 727.594 507.547 725.052 506.497 722.861C505.272 720.1 502.646 718.303 500.414 716.288C487.417 704.368 488.993 683.771 491.662 666.286C497.701 675.138 507.372 681.405 517.962 683.245C514.549 690.257 517.525 699.635 524.264 703.491C524.701 696.611 529.865 690.345 536.473 688.548C539.361 687.759 542.424 687.715 545.138 686.532C553.277 683.026 554.152 671.983 553.758 663.131C553.627 659.625 553.408 655.988 551.527 653.095C548.376 648.319 542.031 647.179 537.042 644.375C528.115 639.335 523.782 627.415 527.371 617.73C530.915 608.089 541.987 601.91 552.052 603.926C555.378 605.372 553.89 610.675 551.002 612.866C548.113 615.057 544.131 616.372 542.774 619.746C540.849 624.435 546.538 629.65 551.483 628.555C556.428 627.503 559.579 622.288 559.929 617.204C560.235 612.165 558.397 607.257 556.559 602.48C567.193 604.803 578.921 601.078 586.229 593.014C588.285 590.736 590.123 588.106 592.793 586.572C597.957 583.549 605.352 585.214 609.597 580.919C612.835 577.676 612.616 572.461 613.623 567.948C615.505 559.578 621.937 553.179 625.745 545.554C629.508 537.929 633.228 526.185 631.215 517.771C629.771 511.635 626.576 506.07 624.388 500.198C622.813 496.035 621.762 491.696 621.194 487.226C620.975 485.429 620.8 483.414 621.631 481.836C623.119 478.944 626.795 478.286 629.552 476.577C633.665 474.036 635.81 468.733 634.584 464.088C623.206 467.9 609.903 465.008 601.151 456.813C603.689 451.905 609.291 449.626 614.148 446.997C619.049 444.411 624.125 440.204 623.907 434.639C627.014 434.639 630.077 434.639 633.14 434.639C633.359 439.679 630.996 444.806 627.014 447.917C631.215 451.555 637.56 448.093 642.505 445.507C647.45 442.921 655.721 442.921 656.333 448.443C656.902 453.789 648.85 457.383 649.944 462.642C655.589 460.713 661.672 468.295 658.609 473.422C657.777 474.781 656.421 476.139 656.639 477.761C656.902 479.733 659.221 480.478 660.928 481.442C665.698 483.983 667.799 490.557 665.348 495.377C668.674 492.792 672 490.206 675.325 487.577C676.069 490.644 679.526 492.704 682.633 492.003C685.697 491.258 687.841 487.84 687.141 484.772C686.484 481.748 683.684 479.645 682.765 476.709C681.408 472.283 684.515 467.375 682.983 463.036C681.802 459.618 678.17 457.821 675.194 455.674C672.218 453.527 669.593 449.67 671.387 446.471C672.437 444.499 674.756 443.71 676.638 442.571C686.003 436.742 688.016 420.134 699.044 419.783C701.275 419.695 703.463 420.397 705.608 420.09C711.865 419.213 714.053 411.588 717.029 405.935C723.55 393.402 738.691 387.31 745.561 374.909C750.812 365.399 750.2 353.786 753.307 343.312C755.582 335.731 759.871 327.843 757.201 320.349C753.919 311.015 738.866 309.175 733.439 317.457C734.315 312.768 735.19 308.123 736.109 303.39C732.827 313.995 710.946 304.442 729.982 294.056C742.673 287.176 754.051 277.71 763.197 266.491C766.304 262.679 769.236 258.603 773.305 255.842C788.271 245.719 808.883 258.253 826.387 253.87C826.999 255.579 827.568 257.332 828.181 259.041C823.455 261.013 818.816 262.985 814.134 264.957C824.024 269.603 834.658 258.603 845.554 259.041C848.749 259.173 853.343 259.173 853.518 256.061C850.587 255.623 846.779 254.002 847.304 251.066C847.479 250.014 848.267 249.137 849.011 248.392C851.856 245.369 854.7 242.389 857.588 239.365C862.358 234.325 870.104 228.935 875.574 233.317C879.687 236.648 877.806 244.667 872.598 245.763C876.011 249.181 881.788 246.07 885.201 242.608C888.614 239.19 892.991 235.07 897.542 236.823C898.811 234.282 898.811 231.17 897.629 228.672C901.261 226.656 905.725 226.174 909.707 227.401C907.3 229.417 905.637 232.397 905.156 235.509C904.806 237.524 904.981 239.628 904.368 241.556C902.18 248.831 892.465 249.663 885.595 253.038C873.517 258.91 869.272 274.423 858.42 282.267C855.75 284.239 852.731 285.686 850.499 288.14C845.729 293.442 846.342 301.681 848.53 308.473C850.805 315.266 854.481 321.752 854.875 328.895C854.963 330.253 854.875 331.568 854.787 332.883C854.306 337.616 860.126 340.289 863.452 336.914C864.24 336.082 865.071 335.249 865.859 334.46C869.71 330.472 873.736 326.353 875.705 321.182C877.062 317.501 877.674 313.031 881.044 311.103C883.538 309.7 886.645 310.314 889.446 309.788C892.29 309.306 895.31 306.458 893.866 303.916C889.227 300.629 890.059 292.303 895.179 289.893C897.323 290.9 899.467 291.908 901.611 292.96C906.688 290.638 899.029 282.267 901.786 277.403C902.837 275.519 905.419 274.379 905.331 272.232C905.243 269.559 901.48 269.077 898.811 269.515C897.06 260.794 903.055 251.285 911.633 249.137C911.501 250.934 911.326 252.775 911.195 254.571C915.44 251.898 919.684 249.225 923.929 246.464C924.673 248.524 925.417 250.584 926.161 252.731C931.237 255.36 935.219 243.747 940.515 245.895C941.652 246.377 942.44 247.428 943.403 248.173C947.21 251.285 953.993 248.918 955.043 244.098C958.981 225.911 981.037 225.079 999.504 223.545C1003.79 223.194 1009.74 221.31 1008.74 217.103L1009 217.059ZM192.821 438.846C189.714 441.651 185.25 442.396 181.093 441.738C180.087 442.571 180.831 444.324 181.925 444.981C183.019 445.682 184.419 445.858 185.382 446.778C187.088 448.443 186.432 451.248 186.695 453.614C187.176 457.427 190.458 460.363 191.333 464.088C192.909 470.793 185.688 476.972 178.774 477.016C164.377 477.147 154.268 465.446 150.548 452.869C148.404 445.682 144.291 426.181 155.318 425.086C151.992 420.703 155.449 415.883 153.393 411.194C152.255 408.652 149.411 407.425 147.485 405.409C143.678 401.334 144.247 394.497 147.485 389.94C150.723 385.382 155.931 382.709 161.138 380.649C166.215 378.677 171.991 377.144 176.98 379.203C182.012 381.263 185.075 388.45 181.312 392.394C177.242 396.645 168.928 394.191 165.252 398.792C162.933 401.64 163.72 406.11 166.04 408.959C168.403 411.807 171.947 413.385 175.361 414.7C177.286 415.445 179.343 416.365 180.087 418.205C181.268 421.01 178.861 423.859 177.33 426.444C175.842 429.074 176.148 433.675 179.168 433.675C182.1 433.675 182.581 429.468 184.2 427.014C186.476 423.552 192.427 424.122 194.747 427.583C197.022 431.045 195.797 436.041 192.777 438.802L192.821 438.846ZM552.139 304.836C551.483 306.107 550.695 307.378 550.258 308.736C549.82 310.27 549.82 311.935 549.426 313.469C548.288 318.071 544.044 321.05 540.193 323.855C537.523 325.783 534.854 327.931 533.278 330.779C532.622 331.962 532.184 333.277 531.44 334.46C527.633 340.858 516.299 342.173 523.432 333.233C527.852 327.668 534.416 319.517 539.886 314.696C541.768 313.031 544.044 311.672 545.313 309.525C547.369 306.019 546.232 301.593 546.363 297.518C546.494 293.442 549.557 288.578 553.496 289.717C554.94 294.669 554.459 300.191 552.139 304.836ZM62.7207 234.062C62.7207 234.501 62.7207 234.895 62.7207 235.377C62.5895 236.955 62.2831 238.445 61.758 239.891C62.3707 239.891 62.9396 239.891 63.4209 239.891C64.3399 237.919 63.771 236.034 62.7207 234.062ZM32.8323 331.305C40.0966 330.779 45.5229 326.178 49.1551 319.823C42.2847 321.489 35.5017 324.863 32.8323 331.305Z" fill="#808285" fill-opacity="0.09"/>
<path d="M1009 217.059C1008.69 215.745 1007.64 214.737 1006.64 213.816C999.635 207.374 991.846 201.809 983.444 197.383C988.739 196.945 994.209 196.419 998.891 193.877C1003.62 191.379 1007.38 186.339 1006.68 181.037C1005.5 172.009 992.721 166.751 993.99 157.723C994.603 153.648 998.103 149.572 996.222 145.935C994.865 143.437 991.671 142.78 988.826 142.429C974.035 140.457 959.288 138.441 944.453 136.469C945.109 142.122 943.534 148.389 938.983 151.807C934.388 155.182 926.642 154.086 924.498 148.827C923.754 146.987 923.71 144.839 922.441 143.262C919.816 139.887 914.477 141.859 910.407 143.437C901.699 146.811 891.765 146.811 883.101 143.437C881.438 142.736 879.6 141.816 878.9 140.15C877.849 137.652 879.6 134.935 879.731 132.262C879.95 127.661 875.224 124.111 870.629 123.673C866.078 123.279 861.614 125.119 857.238 126.565C844.504 130.685 829.363 131.254 818.904 122.884C815.797 120.43 813.259 117.275 809.889 115.171C805.163 112.191 799.387 111.578 793.873 111.008C779.607 109.562 765.341 108.116 751.075 106.626C749.718 106.451 748.143 106.407 746.961 107.196C745.123 108.554 745.43 111.315 744.817 113.506C743.679 117.757 738.866 119.992 734.49 120.299C730.07 120.605 725.65 119.554 721.274 120.08C718.036 120.43 714.841 121.657 711.603 121.438C708.321 121.263 704.732 118.94 704.82 115.697C700.706 118.283 697.993 122.928 697.862 127.792C689.547 128.713 679.089 122.753 680.927 114.558C681.408 112.454 682.633 110.57 682.852 108.423C683.946 95.1006 651.038 92.1206 643.599 97.8614C641.586 99.439 640.01 101.543 638.085 103.208C629.989 110.263 615.548 107.459 610.647 97.8614C599.007 96.4152 587.192 96.5029 575.507 97.9929C570.781 89.9295 558.441 93.7421 550.564 98.7378C542.687 103.777 531.178 108.686 525.183 101.543C545.094 97.0288 563.955 87.9575 579.971 75.3365C581.59 74.0657 583.341 72.3566 582.947 70.2969C582.728 68.8946 581.503 67.8867 580.321 67.054C572.925 61.9268 563.867 59.2098 554.852 59.4289C548.288 59.5603 540.455 60.7874 536.298 55.7039C533.716 52.5925 533.41 47.8159 530.259 45.2303C527.24 42.7762 522.907 43.3459 519.1 44.0033C510.654 45.5371 502.165 47.0709 493.675 48.6047C492.362 48.8238 490.918 49.1305 489.999 50.0946C488.818 51.4093 488.905 53.3813 488.774 55.1781C488.03 66.3529 473.983 74.2848 464.049 69.0699C460.942 67.4046 458.317 64.8191 454.947 63.7673C450.702 62.4965 446.151 63.9426 441.994 65.4326C424.446 71.5239 406.898 77.6153 389.35 83.7067C394.076 86.9057 400.202 87.9575 405.716 86.5113C407.379 89.4474 403.091 92.0768 399.765 92.778C386.374 95.5826 373.027 98.3873 359.593 101.148C367.251 106.977 374.69 113.156 381.779 119.641C385.236 117.231 388.475 123.498 387.162 127.529C385.893 131.561 383.486 136.557 386.549 139.405C382.436 138.047 378.935 134.979 376.922 131.079C379.066 129.501 381.123 127.88 383.267 126.302C378.585 127.266 373.465 124.199 372.064 119.641C363.531 117.976 355.392 114.295 348.521 108.949C347.165 112.148 349.003 116.398 352.328 117.582C349.178 118.02 346.027 118.37 342.876 118.765C343.926 123.673 348.302 127.661 353.291 128.231C347.033 129.852 340.032 128.362 334.868 124.374C339.55 117.319 332.68 106.144 324.278 107.108C329.092 107.765 329.923 114.689 327.779 119.072C325.634 123.498 321.871 127.442 321.959 132.306C322.046 138.266 327.604 145.453 322.965 149.265C328.61 153.998 339.069 145.409 343.795 150.975C345.239 152.727 345.414 155.138 346.027 157.329C347.865 163.902 355.042 168.46 361.737 167.277C357.886 173.412 348.696 167.364 344.495 161.448C340.338 155.532 330.929 149.66 327.254 155.926C326.072 157.986 326.291 160.484 326.291 162.807C326.072 179.854 306.073 193.395 290.188 187.216C296.227 179.722 310.45 182.702 315.088 174.288C316.97 170.826 316.445 166.619 315.876 162.763C313.994 150.098 312.156 137.477 310.274 124.812C311.368 118.984 311.806 113.024 311.544 107.108C304.892 109.431 294.171 109.124 294.389 102.068C288.744 111.446 283.055 120.824 277.41 130.203C273.953 135.856 271.371 144.708 277.279 147.688C281.217 146.066 285.812 149.397 286.906 153.56C288.044 157.679 286.6 162.018 284.718 165.874C276.229 142.341 233.256 153.166 222.053 130.816C216.933 132.788 221.616 140.72 226.779 142.604C231.987 144.489 239.12 147.819 237.194 152.99C235.75 157.066 230.149 157.066 225.86 156.759C213.476 155.883 200.785 158.731 189.933 164.866C188.97 160.484 187.964 156.146 187.045 151.851C178.03 158.249 168.928 164.647 159.913 171.089C155.493 174.201 150.855 177.4 145.472 177.969C140.133 178.495 133.963 175.296 133.263 169.95C132.563 164.603 140.352 159.914 143.809 164.034C145.297 154.217 131.906 146.023 123.854 151.851C129.193 160.878 129.324 172.798 124.161 181.957C122.235 185.375 119.303 188.574 115.452 189.188C111.601 189.758 107.138 186.427 107.969 182.615C103.068 186.953 100.311 193.57 100.661 200.1C92.6968 202.685 83.2008 199.618 78.2558 192.781C78.8685 196.594 79.4811 200.319 80.0937 204.131C74.3611 210.31 61.8018 205.841 61.2329 197.427C61.1016 194.929 61.7143 192.475 61.7143 189.977C61.7143 181.475 54.2312 175.165 47.4045 170.037C57.6008 173.894 67.8407 177.794 78.0369 181.65C83.7696 183.842 89.8961 186.077 95.8913 184.893C104.687 183.228 110.376 171.352 102.543 165.217C88.4958 154.217 72.3044 145.935 55.1502 140.983C50.2053 139.581 44.9102 138.397 40.0528 139.975C36.0706 141.246 30.7318 143.788 28.5875 140.194C32.5698 140.764 36.8583 139.23 39.5715 136.206C31.257 134.366 22.8549 133.183 14.3653 132.744C4.56298 141.465 -2.08857 153.779 0.755868 166.225C5.13193 185.332 29.9004 201.371 20.842 218.724C29.3753 216.796 38.3024 214.912 46.7482 217.059C51.2993 218.155 55.7191 220.872 58.6948 224.465C58.6948 224.29 58.6948 224.071 58.6948 223.896C61.233 223.063 63.9462 222.186 66.528 222.888C69.1099 223.589 71.2104 226.613 69.8975 228.979C69.0223 230.644 66.703 232.003 67.5344 233.712C68.0596 234.764 69.5037 234.939 70.5977 235.289C73.7485 236.254 75.499 240.329 74.0549 243.265C69.5475 243.002 65.0401 242.783 60.489 242.564C58.9574 245.851 56.9007 249.006 55.4566 252.293C49.3739 266.053 53.7937 281.829 54.3188 296.86C54.5376 304.573 52.7872 313.162 48.98 319.823C49.899 319.648 50.818 319.429 51.7369 319.298C68.7598 316.405 88.2333 320.7 98.6483 334.504C109.063 348.308 105.562 372.016 89.5898 378.502C83.5071 380.956 76.4179 380.869 70.8603 384.374C68.5847 385.733 66.9218 388.187 66.1341 390.772C76.4616 384.9 87.0955 379.291 98.7796 377.1C96.1977 382.621 91.1215 386.828 85.2576 388.275C87.2268 389.545 86.5703 392.832 84.601 394.103C82.6318 395.374 80.0937 395.155 77.8182 394.673C75.5426 394.234 73.1359 393.621 70.9041 394.191C68.9349 394.673 67.3594 396.206 66.5717 398.091C66.1779 398.923 66.0028 399.844 66.0028 400.764C66.0028 401.421 66.1341 401.991 66.3091 402.605C72.2606 397.609 81.7129 397.477 87.7956 402.342C90.1149 404.226 91.9528 406.68 94.4472 408.345C97.2041 410.186 100.793 411.019 102.893 413.648C104.95 416.277 103.506 421.58 100.267 420.879C100.136 422.544 101.887 423.727 103.462 424.034C105.037 424.341 106.831 424.209 108.276 424.954C111.645 426.707 111.033 432.141 108.101 434.551C105.169 436.918 101.055 437.137 97.2479 437.137C87.3143 437.268 76.9868 437.356 67.8846 433.324C63.5961 431.44 59.7451 428.635 55.2815 427.058C50.8617 425.48 45.5228 425.349 41.9345 428.372C40.2716 429.775 39.1339 431.791 37.5147 433.324C33.6638 437.049 27.0997 437.531 22.7236 434.42C19.1353 431.834 17.3848 426.97 18.2163 422.632C14.1028 426.795 10.5581 431.659 8.02001 436.874C10.208 443.097 12.3961 449.363 14.5841 455.586C15.328 457.602 15.9845 459.618 16.7285 461.59C18.829 467.681 22.286 474.824 28.675 475.219C36.7707 475.745 44.9103 464.701 51.3431 474.693C52.5684 476.621 52.9622 478.9 52.9622 481.223C52.9622 485.736 59.1324 491.433 62.4582 487.884C62.0643 484.641 61.7143 481.135 63.2022 478.199C64.69 475.306 68.8035 473.466 71.3854 475.526C73.1358 476.884 73.4859 479.382 73.6172 481.573C73.7485 484.816 73.6172 488.147 73.1796 491.346C72.1731 499.058 69.1098 507.078 62.6333 511.197C57.557 514.396 50.249 516.719 54.4063 523.555C55.369 525.045 59.22 523.336 60.314 524.782C62.7208 528.157 61.0579 531.706 61.3642 535.694C62.0206 544.152 71.6042 548.403 76.8555 555.108C84.1197 564.31 82.5881 577.501 86.1765 588.676C93.4845 611.551 122.279 626.232 120.66 650.203C120.003 659.537 115.452 671.194 123.11 676.584C128.23 680.134 135.232 677.636 140.921 674.963C151.511 670.055 162.145 665.103 172.822 660.151C177.155 658.179 181.75 655.9 183.981 651.649C185.119 649.414 185.513 646.829 187.132 644.9C189.495 642.096 193.609 641.701 197.066 640.562C204.899 637.933 210.15 630.527 214.089 623.208C218.334 615.276 221.659 606.862 224.022 598.142C224.635 595.863 225.204 593.409 224.635 591.086C222.578 582.628 207.743 581.796 206.999 573.119C206.693 569.481 209.231 566.239 210.413 562.82C211.594 559.358 210.282 554.275 206.649 554.319C204.461 560.761 202.098 567.466 197.241 572.198C192.34 576.931 184.069 578.947 178.73 574.784C174.748 571.716 173.435 566.37 170.722 562.163C166.608 555.634 159.082 551.689 155.493 544.897C151.905 538.061 157.156 526.579 164.289 529.515C167.79 542.443 176.63 553.793 188.314 560.279C195.534 557.825 202.492 554.538 209.013 550.462C212.251 547.877 216.539 552.741 216.889 556.861C217.239 561.024 216.583 566.107 219.953 568.517C221.659 569.788 223.979 569.876 226.123 569.876C243.671 569.876 261.131 567.86 278.198 563.828C274.697 574.039 284.106 586.309 294.827 585.521C293.514 589.684 289.357 592.795 284.981 592.839C287.081 596.958 289.313 601.253 293.077 604.014C296.84 606.731 302.529 607.344 305.811 604.101C308.918 601.078 309.312 595.425 313.338 593.759C318.02 591.787 322.659 597.659 322.265 602.743C321.871 607.783 318.72 612.121 317.014 616.941C313.6 626.714 316.795 637.451 319.902 647.311C325.985 666.33 332.286 685.831 344.758 701.476C349.221 697.269 353.729 693.062 358.192 688.855C364.231 689.906 364.45 698.583 362.525 704.368C360.555 710.24 358.761 718.084 364.012 721.283C368.739 724.132 375.04 719.574 376.09 714.184C377.141 708.794 374.69 703.448 372.283 698.496C369.176 692.185 366.113 685.787 363.05 679.433C361.999 677.242 360.862 674.919 361.081 672.465C361.212 670.361 362.262 668.477 363.137 666.549C365.894 660.37 366.769 653.314 365.544 646.653C381.954 638.283 395.695 624.742 404.185 608.308C405.497 605.854 406.723 603.269 408.955 601.604C415.694 596.695 427.028 603.576 432.979 597.747C441.294 600.859 448.295 607.213 452.234 615.189C455.122 621.017 457.791 628.774 464.268 629.256C454.334 633.331 447.639 644.112 448.383 654.804C458.36 657.346 469.388 647.88 468.381 637.626C472.276 635.391 477.44 638.108 479.54 642.096C481.597 646.084 481.378 650.816 481.116 655.286C480.372 668.828 479.54 682.325 478.797 695.779C478.578 699.81 478.403 704.149 480.634 707.479C482.735 710.634 486.717 712.387 488.161 715.893C490.349 721.064 485.973 727.594 488.818 732.458C490.349 735.044 493.369 736.183 495.688 737.98C500.677 741.792 502.34 748.541 505.928 753.712C509.516 758.883 517.831 762.258 521.726 757.306C513.411 750.776 508.116 740.609 507.547 730.004C507.416 727.594 507.547 725.052 506.497 722.861C505.272 720.1 502.646 718.303 500.414 716.288C487.417 704.368 488.993 683.771 491.662 666.286C497.701 675.138 507.372 681.405 517.962 683.245C514.549 690.257 517.525 699.635 524.264 703.491C524.701 696.611 529.865 690.345 536.473 688.548C539.361 687.759 542.424 687.715 545.138 686.532C553.277 683.026 554.152 671.983 553.758 663.131C553.627 659.625 553.408 655.988 551.527 653.095C548.376 648.319 542.031 647.179 537.042 644.375C528.115 639.335 523.782 627.415 527.371 617.73C530.915 608.089 541.987 601.91 552.052 603.926C555.378 605.372 553.89 610.675 551.002 612.866C548.113 615.057 544.131 616.372 542.774 619.746C540.849 624.435 546.538 629.65 551.483 628.555C556.428 627.503 559.579 622.288 559.929 617.204C560.235 612.165 558.397 607.257 556.559 602.48C567.193 604.803 578.921 601.078 586.229 593.014C588.285 590.736 590.123 588.106 592.793 586.572C597.957 583.549 605.352 585.214 609.597 580.919C612.835 577.676 612.616 572.461 613.623 567.948C615.505 559.578 621.937 553.179 625.745 545.554C629.508 537.929 633.228 526.185 631.215 517.771C629.771 511.635 626.576 506.07 624.388 500.198C622.813 496.035 621.762 491.696 621.194 487.226C620.975 485.429 620.8 483.414 621.631 481.836C623.119 478.944 626.795 478.286 629.552 476.577C633.665 474.036 635.81 468.733 634.584 464.088C623.206 467.9 609.903 465.008 601.151 456.813C603.689 451.905 609.291 449.626 614.148 446.997C619.049 444.411 624.125 440.204 623.907 434.639C627.014 434.639 630.077 434.639 633.14 434.639C633.359 439.679 630.996 444.806 627.014 447.917C631.215 451.555 637.56 448.093 642.505 445.507C647.45 442.921 655.721 442.921 656.333 448.443C656.902 453.789 648.85 457.383 649.944 462.642C655.589 460.713 661.672 468.295 658.609 473.422C657.777 474.781 656.421 476.139 656.639 477.761C656.902 479.733 659.221 480.478 660.928 481.442C665.698 483.983 667.799 490.557 665.348 495.377C668.674 492.792 672 490.206 675.325 487.577C676.069 490.644 679.526 492.704 682.633 492.003C685.697 491.258 687.841 487.84 687.141 484.772C686.484 481.748 683.684 479.645 682.765 476.709C681.408 472.283 684.515 467.375 682.983 463.036C681.802 459.618 678.17 457.821 675.194 455.674C672.218 453.527 669.593 449.67 671.387 446.471C672.437 444.499 674.756 443.71 676.638 442.571C686.003 436.742 688.016 420.134 699.044 419.783C701.275 419.695 703.463 420.397 705.608 420.09C711.865 419.213 714.053 411.588 717.029 405.935C723.55 393.402 738.691 387.31 745.561 374.909C750.812 365.399 750.2 353.786 753.307 343.312C755.582 335.731 759.871 327.843 757.201 320.349C753.919 311.015 738.866 309.175 733.439 317.457C734.315 312.768 735.19 308.123 736.109 303.39C732.827 313.995 710.946 304.442 729.982 294.056C742.673 287.176 754.051 277.71 763.197 266.491C766.304 262.679 769.236 258.603 773.305 255.842C788.271 245.719 808.883 258.253 826.387 253.87C826.999 255.579 827.568 257.332 828.181 259.041C823.455 261.013 818.816 262.985 814.134 264.957C824.024 269.603 834.658 258.603 845.554 259.041C848.749 259.173 853.343 259.173 853.518 256.061C850.587 255.623 846.779 254.002 847.304 251.066C847.479 250.014 848.267 249.137 849.011 248.392C851.856 245.369 854.7 242.389 857.588 239.365C862.358 234.325 870.104 228.935 875.574 233.317C879.687 236.648 877.806 244.667 872.598 245.763C876.011 249.181 881.788 246.07 885.201 242.608C888.614 239.19 892.991 235.07 897.542 236.823C898.811 234.282 898.811 231.17 897.629 228.672C901.261 226.656 905.725 226.174 909.707 227.401C907.3 229.417 905.637 232.397 905.156 235.509C904.806 237.524 904.981 239.628 904.368 241.556C902.18 248.831 892.465 249.663 885.595 253.038C873.517 258.91 869.272 274.423 858.42 282.267C855.75 284.239 852.731 285.686 850.499 288.14C845.729 293.442 846.342 301.681 848.53 308.473C850.805 315.266 854.481 321.752 854.875 328.895C854.963 330.253 854.875 331.568 854.787 332.883C854.306 337.616 860.126 340.289 863.452 336.914C864.24 336.082 865.071 335.249 865.859 334.46C869.71 330.472 873.736 326.353 875.705 321.182C877.062 317.501 877.674 313.031 881.044 311.103C883.538 309.7 886.645 310.314 889.446 309.788C892.29 309.306 895.31 306.458 893.866 303.916C889.227 300.629 890.059 292.303 895.179 289.893C897.323 290.9 899.467 291.908 901.611 292.96C906.688 290.638 899.029 282.267 901.786 277.403C902.837 275.519 905.419 274.379 905.331 272.232C905.243 269.559 901.48 269.077 898.811 269.515C897.06 260.794 903.055 251.285 911.633 249.137C911.501 250.934 911.326 252.775 911.195 254.571C915.44 251.898 919.684 249.225 923.929 246.464C924.673 248.524 925.417 250.584 926.161 252.731C931.237 255.36 935.219 243.747 940.515 245.895C941.652 246.377 942.44 247.428 943.403 248.173C947.21 251.285 953.993 248.918 955.043 244.098C958.981 225.911 981.037 225.079 999.504 223.545C1003.79 223.194 1009.74 221.31 1008.74 217.103L1009 217.059ZM192.821 438.846C189.714 441.651 185.25 442.396 181.093 441.738C180.087 442.571 180.831 444.324 181.925 444.981C183.019 445.682 184.419 445.858 185.382 446.778C187.088 448.443 186.432 451.248 186.695 453.614C187.176 457.427 190.458 460.363 191.333 464.088C192.909 470.793 185.688 476.972 178.774 477.016C164.377 477.147 154.268 465.446 150.548 452.869C148.404 445.682 144.291 426.181 155.318 425.086C151.992 420.703 155.449 415.883 153.393 411.194C152.255 408.652 149.411 407.425 147.485 405.409C143.678 401.334 144.247 394.497 147.485 389.94C150.723 385.382 155.931 382.709 161.138 380.649C166.215 378.677 171.991 377.144 176.98 379.203C182.012 381.263 185.075 388.45 181.312 392.394C177.242 396.645 168.928 394.191 165.252 398.792C162.933 401.64 163.72 406.11 166.04 408.959C168.403 411.807 171.947 413.385 175.361 414.7C177.286 415.445 179.343 416.365 180.087 418.205C181.268 421.01 178.861 423.859 177.33 426.444C175.842 429.074 176.148 433.675 179.168 433.675C182.1 433.675 182.581 429.468 184.2 427.014C186.476 423.552 192.427 424.122 194.747 427.583C197.022 431.045 195.797 436.041 192.777 438.802L192.821 438.846ZM552.139 304.836C551.483 306.107 550.695 307.378 550.258 308.736C549.82 310.27 549.82 311.935 549.426 313.469C548.288 318.071 544.044 321.05 540.193 323.855C537.523 325.783 534.854 327.931 533.278 330.779C532.622 331.962 532.184 333.277 531.44 334.46C527.633 340.858 516.299 342.173 523.432 333.233C527.852 327.668 534.416 319.517 539.886 314.696C541.768 313.031 544.044 311.672 545.313 309.525C547.369 306.019 546.232 301.593 546.363 297.518C546.494 293.442 549.557 288.578 553.496 289.717C554.94 294.669 554.459 300.191 552.139 304.836ZM62.7207 234.062C62.7207 234.501 62.7207 234.895 62.7207 235.377C62.5895 236.955 62.2831 238.445 61.758 239.891C62.3707 239.891 62.9396 239.891 63.4209 239.891C64.3399 237.919 63.771 236.034 62.7207 234.062ZM32.8323 331.305C40.0966 330.779 45.5229 326.178 49.1551 319.823C42.2847 321.489 35.5017 324.863 32.8323 331.305Z" fill="url(#paint0_radial_255_1352)" fill-opacity="0.09"/>
<path d="M657.26 755.991C657.855 755.801 658.405 755.564 659 755.375C657.764 754.521 656.07 754.806 654.834 755.707C653.597 756.607 652.773 757.887 651.766 759.072C648.332 763.054 643.021 765.235 637.893 764.761C634.643 764.477 631.438 763.197 628.233 763.813C624.341 764.571 621.365 768.222 620.22 772.156C619.625 774.147 620.22 777.181 622.189 776.992C623.288 773.436 626.401 770.829 629.835 769.691C633.269 768.553 636.978 768.743 640.549 769.407C643.342 769.928 646.135 770.734 648.927 770.355C651.72 769.976 654.605 767.985 654.925 765.093C655.154 763.007 654.101 760.732 654.925 758.788C655.658 757.129 657.81 755.659 656.985 754C656.07 754.19 658.13 755.801 657.214 755.991H657.26Z" fill="#808285" fill-opacity="0.09"/>
<path d="M612.245 800.244C613.57 805.844 616.362 811.664 614.185 816.999C616.599 818.013 619.486 816.117 620.291 813.781C621.095 811.444 620.48 808.886 619.865 806.505C619.249 804.124 618.634 801.567 619.533 799.23C619.723 798.701 620.101 798.127 620.669 797.995C620.953 797.951 621.284 797.995 621.568 798.083C624.834 798.965 627.058 801.831 628.1 804.874C629.141 807.872 629.188 811.091 629.661 814.221C629.945 816.162 630.513 818.322 632.265 819.38C635.152 821.188 639.269 818.763 640.358 815.677C641.446 812.59 640.547 809.239 640.121 806.02C639.458 801.567 639.127 796.187 634.867 793.983C633.116 793.101 630.703 792.704 630.135 790.896C629.472 788.78 632.17 787.104 634.442 786.487C636.524 785.914 638.654 785.517 640.831 785.252C643.387 784.944 646.747 784.282 646.983 781.901C647.267 779.388 643.86 778.153 641.209 777.757C638.038 777.271 634.773 776.742 631.555 777.139C628.336 777.536 625.118 778.947 623.414 781.504C623.036 782.033 622.704 782.695 622.089 782.915C621.19 783.268 620.196 782.651 619.675 781.901C619.155 781.152 618.871 780.27 618.303 779.564C611.393 771.583 611.724 798.039 612.245 800.244Z" fill="#808285" fill-opacity="0.09"/>
<path d="M695.544 510.918C695.938 507.137 696.333 502.695 699.531 500.628C700.538 503.267 702.466 505.509 704.875 506.961C707.066 505.685 708.248 503.267 709.519 501.112C710.789 498.913 712.542 496.67 714.995 496.275C717.448 495.879 720.295 498.649 718.981 500.804C725.465 503.355 729.758 493.9 735.803 490.338C738.957 488.491 742.813 488.315 746.405 487.436C749.953 486.512 753.721 484.225 754.246 480.575C754.553 478.421 753.633 476.31 753.545 474.155C753.414 469.537 756.919 465.8 759.153 461.754C763.095 454.762 763.271 445.747 759.635 438.623C757.663 434.753 754.597 431.323 753.633 427.101C752.669 422.879 755.122 417.295 759.459 417.383C760.642 421.076 762.263 425.254 765.899 426.617C769.535 428.025 774.398 423.363 771.769 420.505C775.843 419.361 780.137 419.01 784.342 419.405C786.138 416.767 785.7 412.897 783.378 410.698C796.696 406.037 808.13 396.846 816.935 385.764C804.8 393.328 792.666 400.892 780.531 408.456C779.085 409.335 777.377 410.258 775.8 409.687C774.354 409.115 773.653 407.532 772.952 406.169C769.667 400.012 762.833 395.966 755.867 396.098C756.437 401.903 757.006 407.752 757.576 413.557C753.458 412.809 749.69 416.723 748.727 420.813C747.763 424.902 748.726 429.212 749.077 433.39C750.304 448.165 743.338 463.337 731.379 472.044C731.335 469.669 731.291 467.251 731.247 464.876C724.939 465.8 727.83 477.629 722.135 480.575C720.514 481.411 718.631 481.235 716.835 481.411C707.898 482.334 708.073 491.569 698.436 487.875C697.472 499.617 682.621 497.55 683.672 509.379C684.592 519.362 693.967 527.013 695.588 510.874L695.544 510.918Z" fill="#808285" fill-opacity="0.09"/>
<path d="M463.767 739.921C467.698 742.864 472.623 745.015 474.956 749.407C476.727 752.788 476.727 757.224 479.492 759.903C480.961 761.308 483.034 762.011 484.503 763.372C488.003 766.666 487.225 772.375 488.91 776.898C491.286 783.31 498.63 787.086 500.012 793.806C500.487 796.089 500.228 798.548 501.179 800.7C503.036 804.74 508.393 805.575 511.374 808.869C512.843 810.493 513.664 812.601 514.917 814.358C518.502 819.408 525.933 821.121 531.289 818.135C529.389 815.148 528.309 811.635 528.222 808.122C528.179 806.014 528.481 803.906 528.049 801.842C527.099 796.88 522.433 793.41 521.137 788.492C523.341 786.867 526.192 789.238 527.833 791.434C529.475 793.63 532.197 796.133 534.486 794.64C530.339 789.107 525.587 784.056 520.36 779.577C520.792 781.597 518.113 783.046 516.213 782.344C514.312 781.641 513.189 779.709 512.195 777.952C511.46 776.591 510.683 775.141 510.812 773.604C510.942 772.331 511.676 771.189 511.892 769.915C512.368 767.237 510.467 764.733 508.35 763.152C506.19 761.572 503.684 760.474 501.827 758.541C498.111 754.721 497.463 748.046 492.798 745.498C490.551 744.269 487.873 744.269 485.583 743.127C478.585 739.482 477.202 728.942 469.21 725.693C457.848 721.081 455.429 733.729 463.681 739.921H463.767Z" fill="#808285" fill-opacity="0.09"/>
<path d="M535.686 820.054C534.009 822.424 532.375 824.793 530.698 827.163C530.354 827.69 529.967 828.216 529.967 828.875C529.967 830.63 532.461 830.893 534.138 830.674C539.555 829.928 545.059 830.191 550.391 831.508C559.334 833.702 567.848 838.792 577.006 838.178C578.382 838.09 579.801 837.871 581.177 838.09C582.682 838.309 584.015 839.055 585.477 839.45C588.831 840.46 592.571 839.889 595.495 837.958C593.044 835.545 589.175 835.72 585.735 835.457C582.295 835.194 578.253 833.614 577.823 830.103C577.694 829.182 577.909 828.172 577.651 827.251C577.135 825.276 574.942 824.311 572.964 824.179C570.987 824.047 568.966 824.53 567.031 824.135C563.763 823.477 561.226 820.405 558.001 819.922C554.691 819.44 553.272 822.029 550.606 822.16C545.102 822.424 540.802 812.77 535.643 820.098L535.686 820.054Z" fill="#808285" fill-opacity="0.09"/>
<path d="M534.017 840.503C536.964 840.548 539.868 842.905 542.595 841.882C543.299 841.615 543.915 841.171 544.663 841.082C545.587 840.993 546.423 841.571 547.259 841.927C555.353 845.707 564.635 834.944 572.95 838.191C571.014 846.152 560.588 848.687 556.497 855.758C563.536 854.736 570.222 851.089 574.929 845.663C576.205 844.195 577.393 842.594 579.021 841.526C579.945 840.904 581 840.548 581.968 839.925C584.168 838.502 585.487 835.789 585.311 833.165C582.892 833.121 580.472 833.699 578.361 834.9C576.777 835.789 575.369 836.99 573.61 837.39C570.706 838.057 567.847 836.367 564.899 835.967C558.696 835.077 552.67 841.615 547.039 840.548C544.795 840.103 543.651 837.568 540.836 836.856C538.548 836.278 534.897 837.257 532.301 836.856C529.398 836.456 523.415 833.476 521.215 836.59C514.749 845.796 532.433 840.459 534.017 840.503Z" fill="#808285" fill-opacity="0.09"/>
<path d="M532.651 847.578C533.839 846.408 536.172 847.139 537.36 848.309C538.548 849.479 539.312 851.015 540.839 851.856C542.366 852.66 544.53 852.514 545.888 851.454C546.694 850.832 547.161 849.808 546.779 848.967C546.354 848.09 545.251 847.688 544.233 847.395C543.257 847.103 542.239 846.81 541.263 846.481C539.524 845.969 537.7 845.421 535.875 845.64C534.051 845.859 532.227 847.066 532.227 848.675" fill="#808285" fill-opacity="0.09"/>
<path d="M668.932 795.098C664.976 794.586 660.808 794.643 656.957 795.24C656.272 795.354 655.428 795.554 655.375 795.952C655.375 796.379 656.219 796.636 656.957 796.721C660.703 797.262 664.818 797.034 668.247 796.095C667.719 795.269 665.714 794.842 664.29 795.24" fill="#808285" fill-opacity="0.09"/>
<path d="M682.698 793.146C681.038 792.349 678.841 792.559 677.406 793.691C675.971 794.822 675.343 796.792 675.926 798.469C679.29 799.265 682.653 795.577 685.837 796.792C687.944 797.588 688.976 800.271 691.263 800.397C693.191 800.48 694.536 797.966 693.326 796.583C692.294 795.409 690.321 795.409 689.066 794.445C686.779 792.685 688.214 789.248 689.738 786.901C687.182 786.398 685.299 789.164 684.94 791.595C684.805 792.643 684.761 793.774 684.267 794.738C683.729 795.702 682.473 796.415 681.442 795.954" fill="#808285" fill-opacity="0.09"/>
<path d="M669.156 778.321C669.156 779.289 669.118 780.257 669.461 781.133C669.804 781.962 670.68 782.607 671.404 782.193C671.938 781.916 672.205 781.179 672.433 780.533C673.157 778.413 673.919 775.924 673.081 773.85C672.7 772.929 672.052 772.145 671.747 771.177C670.909 768.228 673.843 766.661 675.711 766.891C675.253 763.158 672.662 765.785 672.662 761.775C672.662 761.176 678.416 758.503 673.615 757.535C667.365 756.245 669.232 773.482 669.08 778.367L669.156 778.321Z" fill="#808285" fill-opacity="0.09"/>
<path d="M612.442 825.254C609.931 828.137 607.636 831.356 605.663 834.911C607.17 835.92 609.142 835.391 610.29 833.71C611.402 832.028 611.545 829.338 610.649 827.416" fill="#808285" fill-opacity="0.09"/>
<path d="M714.99 813.142C716.862 814.542 718.596 816.528 718.642 818.875C718.687 821.223 716.36 823.616 714.123 822.848C714.579 819.508 714.99 816.167 715.447 812.826" fill="#808285" fill-opacity="0.09"/>
<path d="M618.888 643.512C618.466 644.567 618.091 645.665 618.091 646.763C618.185 650.605 623.107 653.223 623.435 657.023C623.576 658.543 622.967 660.063 622.967 661.583C622.967 663.103 623.998 664.876 625.686 664.876C627.139 664.876 628.17 663.652 629.202 662.723C630.233 661.794 632.202 661.203 632.999 662.301C633.374 662.765 633.327 663.441 633.28 663.989C632.812 668.085 631.593 672.096 629.624 675.854C632.061 676.741 634.921 675.305 636.281 673.278C637.64 671.252 637.875 668.761 638.062 666.396C638.156 665.214 638.25 663.99 637.734 662.892C636.937 661.245 634.968 660.401 633.702 659.05C631.311 656.516 631.546 652.716 632.905 649.634C634.265 646.552 636.515 643.85 637.875 640.767C638.25 639.965 638.531 639.121 638.39 638.234C638.25 637.347 637.64 636.587 637.218 635.785C636.14 633.801 636.046 631.521 635.577 629.325C631.452 610.283 620.154 640.134 618.888 643.47V643.512Z" fill="#808285" fill-opacity="0.09"/>
<path d="M656.698 673.417C657.14 677.128 655.595 680.97 652.725 683.355C652.062 683.885 651.356 684.371 650.958 685.122C649.59 687.639 652.769 690.024 655.065 691.747C662.218 697.18 663.101 709.105 656.787 715.509C656.213 716.128 655.55 716.702 655.153 717.453C654.8 718.203 654.756 719.043 654.712 719.882C654.667 723.636 655.33 727.435 656.698 730.924C652.989 732.779 648.309 729.731 646.896 725.8C645.483 721.869 646.278 717.541 646.984 713.433C647.249 711.887 647.426 710.209 646.587 708.928C645.174 706.852 641.774 707.294 640.008 709.061C638.242 710.827 637.668 713.433 636.961 715.863C636.255 718.292 635.239 720.809 633.032 722.046C631.354 713.654 638.242 704.644 646.72 703.981C648.574 703.849 650.561 704.026 652.239 703.186C653.917 702.347 654.888 699.874 653.519 698.593C651.886 698.637 651.267 696.473 651.4 694.883C651.532 693.249 651.797 691.305 650.517 690.334C649.192 689.362 647.205 690.334 646.322 691.791C645.439 693.205 645.174 694.927 644.291 696.34C642.966 698.461 640.317 699.653 637.844 699.211C637.712 695.501 639.92 691.791 643.231 690.157C640.273 689.097 637.226 687.419 636.078 684.504C634.93 681.588 636.961 677.481 640.052 677.746C641.156 680.617 642.26 683.488 643.408 686.359C645.836 687.86 649.236 686.359 650.649 683.885C652.062 681.412 651.93 678.364 651.532 675.537C654.712 677.172 658.288 672.711 657.008 669.398C656.257 667.499 654.535 666.174 652.769 665.953C654.756 667.985 656.389 670.723 656.743 673.55L656.698 673.417Z" fill="#808285" fill-opacity="0.09"/>
<path d="M187.671 129.661C189.819 128.133 188.197 124.467 185.698 123.638C183.199 122.809 180.525 123.638 177.895 123.681C175.264 123.769 172.108 122.503 171.845 119.928C171.757 119.142 171.932 118.4 172.239 117.658C174.081 113.337 179.21 111.591 182.585 108.318C187.846 103.211 188.285 94.7873 192.888 89.1132C199.245 81.2568 211.301 80.9076 219.455 74.8844C221.998 73.0076 224.146 70.5634 226.821 68.8175C233.704 64.2782 242.647 65.0202 250.933 64.802C261.761 64.4965 272.546 62.2268 282.542 58.124C280.438 68.1191 268.425 71.8728 258.473 74.3606C251.766 76.0628 245.146 77.9833 238.614 80.1656C230.284 82.959 221.954 86.2762 215.159 91.7757C208.364 97.2752 203.191 105.393 203.059 114.123C203.015 118.706 208.495 128.614 205.426 132.193C201.831 136.383 191.573 131.363 187.671 129.617V129.661Z" fill="#808285" fill-opacity="0.09"/>
<path d="M439.312 13.8886C436.782 14.7153 434.251 15.5879 431.675 16.4146C434.029 20.1349 438.868 21.972 442.953 20.6401C447.26 19.2622 451.434 14.899 455.475 16.9658C456.541 18.9866 454.143 20.9616 452.189 22.0639C450.235 23.1662 448.193 25.7382 449.791 27.3457C450.191 27.7131 450.679 27.9428 451.212 28.0805C460.093 31.02 470.172 28.5398 478.653 32.4897C481.317 33.7298 483.893 35.6588 486.823 35.521C489.754 35.3832 492.507 31.5711 490.464 29.3666C489.132 27.9428 486.468 27.8968 485.935 26.0137C484.958 22.5232 492.906 21.0994 491.352 17.8844C485.624 18.0681 479.852 18.2518 474.124 18.4355C472.17 18.4814 469.773 18.2977 468.929 16.4606C468.44 15.4501 468.618 14.1182 467.952 13.1996C467.153 12.0973 465.554 12.0973 464.178 12.2351C461.158 12.5566 458.095 12.8781 455.075 13.1996C461.736 12.5107 470.439 8.83638 477.099 7.18295C468.263 -3.15103 442.687 -1.91095 439.224 13.8426L439.312 13.8886Z" fill="#808285" fill-opacity="0.09"/>
<path d="M744.392 80.0949C745.461 79.4374 746.446 78.5608 747.644 78.2102C752.437 76.8077 756.502 83.9957 761.338 82.8562C763.392 82.374 764.847 80.4455 766.773 79.7004C771.352 77.9034 776.487 82.8123 780.852 79.7881C786.544 75.8434 784.104 72.4247 779.611 70.6277C775.503 69.006 769.127 70.7154 764.505 69.3566C761.081 68.3486 758.128 66.4201 754.876 64.9737C747.259 61.6427 735.148 56.0325 729.97 66.1133C725.306 75.186 735.662 85.3983 744.349 80.0511L744.392 80.0949Z" fill="#808285" fill-opacity="0.09"/>
<path d="M732.048 77.1851C728.829 74.3485 725.081 72.2101 721.088 70.9009C720.518 70.7263 719.948 70.5518 719.336 70.5518C717.218 70.639 715.873 73.4756 716.566 75.6577C717.259 77.796 719.336 79.1925 721.414 79.5853C723.492 80.0217 725.651 79.7162 727.77 79.5853C732.251 79.2798 736.733 79.6289 741.092 80.7199C741.907 77.7087 739.177 74.7412 736.285 74.3048C733.392 73.8684 730.581 75.2649 727.933 76.5741" fill="#808285" fill-opacity="0.09"/>
<defs>
<radialGradient id="paint0_radial_255_1352" cx="0" cy="0" r="1" gradientUnits="userSpaceOnUse" gradientTransform="translate(504.547 401.581) rotate(90) scale(358.145 504.453)">
<stop stop-color="#808285"/>
<stop offset="1" stop-color="#808285" stop-opacity="0"/>
</radialGradient>
</defs>
</svg>
