<svg width="37" height="37" viewBox="0 0 37 37" fill="none" xmlns="http://www.w3.org/2000/svg">
<path d="M18.6899 0.463136C18.9854 0.462873 19.2781 0.520891 19.5512 0.633871C19.8243 0.746851 20.0725 0.912575 20.2815 1.12156C20.4904 1.33054 20.6562 1.57869 20.7691 1.85179C20.8821 2.12489 20.9401 2.41759 20.9399 2.71314V5.15314C23.704 5.61907 26.2543 6.9345 28.2364 8.9166C30.2185 10.8987 31.5339 13.449 31.9999 16.2131H34.4399C35.0366 16.2131 35.6089 16.4502 36.0309 16.8721C36.4528 17.2941 36.6899 17.8664 36.6899 18.4631C36.6899 19.0599 36.4528 19.6322 36.0309 20.0541C35.6089 20.4761 35.0366 20.7131 34.4399 20.7131H31.9999C31.5339 23.4773 30.2185 26.0276 28.2364 28.0097C26.2543 29.9918 23.704 31.3072 20.9399 31.7731V34.2131C20.9399 34.8099 20.7028 35.3822 20.2809 35.8041C19.8589 36.2261 19.2866 36.4631 18.6899 36.4631C18.0931 36.4631 17.5208 36.2261 17.0989 35.8041C16.6769 35.3822 16.4399 34.8099 16.4399 34.2131V31.7731C13.6758 31.3072 11.1254 29.9918 9.14334 28.0097C7.16124 26.0276 5.84582 23.4773 5.37988 20.7131H2.93988C2.34314 20.7131 1.77085 20.4761 1.34889 20.0541C0.926933 19.6322 0.68988 19.0599 0.68988 18.4631C0.68988 17.8664 0.926933 17.2941 1.34889 16.8721C1.77085 16.4502 2.34314 16.2131 2.93988 16.2131H5.37988C5.84582 13.449 7.16124 10.8987 9.14334 8.9166C11.1254 6.9345 13.6758 5.61907 16.4399 5.15314V2.71314C16.4396 2.41759 16.4976 2.12489 16.6106 1.85179C16.7236 1.57869 16.8893 1.33054 17.0983 1.12156C17.3073 0.912575 17.5554 0.746851 17.8285 0.633871C18.1016 0.520891 18.3943 0.462873 18.6899 0.463136ZM9.68988 18.4631C9.68988 20.2432 10.2177 21.9832 11.2067 23.4633C12.1956 24.9433 13.6012 26.0969 15.2457 26.7781C16.8903 27.4592 18.6999 27.6375 20.4457 27.2902C22.1915 26.9429 23.7952 26.0858 25.0538 24.8271C26.3125 23.5684 27.1697 21.9648 27.5169 20.2189C27.8642 18.4731 27.686 16.6635 27.0048 15.019C26.3236 13.3744 25.1701 11.9688 23.69 10.9799C22.21 9.99098 20.4699 9.46314 18.6899 9.46314C16.3029 9.46314 14.0137 10.4113 12.3259 12.0992C10.6381 13.787 9.68988 16.0762 9.68988 18.4631ZM18.6899 12.8381C19.8024 12.8381 20.8899 13.168 21.815 13.7861C22.74 14.4042 23.461 15.2827 23.8867 16.3105C24.3124 17.3384 24.4238 18.4694 24.2068 19.5605C23.9898 20.6517 23.454 21.6539 22.6674 22.4406C21.8807 23.2273 20.8784 23.763 19.7873 23.9801C18.6961 24.1971 17.5651 24.0857 16.5373 23.66C15.5095 23.2342 14.6309 22.5132 14.0129 21.5882C13.3948 20.6632 13.0649 19.5757 13.0649 18.4631C13.0649 16.9713 13.6575 15.5406 14.7124 14.4857C15.7673 13.4308 17.198 12.8381 18.6899 12.8381Z" fill="#96FFFD"/>
</svg>
