<svg width="41" height="41" viewBox="0 0 41 41" fill="none" xmlns="http://www.w3.org/2000/svg">
<path d="M9.90396 30.4103C10.4025 30.9088 11.2353 30.9225 11.7305 30.4272L20.1406 22.0172L28.2013 30.0778C28.6904 30.5669 29.5422 30.5616 30.047 30.0568C30.5614 29.5425 30.5572 28.7001 30.0681 28.2111L22.0074 20.1504L30.427 11.7308C30.9223 11.2355 30.9086 10.4027 30.4101 9.9042C29.9021 9.39629 29.0787 9.39199 28.5835 9.88726L20.1639 18.3069L12.1032 10.2462C11.6141 9.75708 10.7624 9.74349 10.248 10.2578C9.74325 10.7626 9.74732 11.6239 10.2364 12.113L18.2971 20.1736L9.88702 28.5837C9.39175 29.079 9.39605 29.9024 9.90396 30.4103Z" fill="url(#paint0_linear_1_2484)"/>
<defs>
<linearGradient id="paint0_linear_1_2484" x1="30.4054" y1="9.89949" x2="9.89926" y2="30.4056" gradientUnits="userSpaceOnUse">
<stop stop-color="#E7F3F8"/>
<stop offset="1" stop-color="#9AA7AB"/>
</linearGradient>
</defs>
</svg>
