<svg width="97" height="78" viewBox="0 0 97 78" fill="none" xmlns="http://www.w3.org/2000/svg">
<g filter="url(#filter0_b_1_807)">
<rect width="97" height="78" rx="14" fill="#D9D9D9" fill-opacity="0.1"/>
</g>
<path d="M47 21C47.2955 20.9997 47.5882 21.0578 47.8613 21.1707C48.1345 21.2837 48.3826 21.4494 48.5916 21.6584C48.8006 21.8674 48.9663 22.1156 49.0793 22.3887C49.1922 22.6618 49.2503 22.9545 49.25 23.25V25.69C52.0141 26.1559 54.5644 27.4714 56.5465 29.4535C58.5286 31.4356 59.8441 33.9859 60.31 36.75H62.75C63.3467 36.75 63.919 36.9871 64.341 37.409C64.7629 37.831 65 38.4033 65 39C65 39.5967 64.7629 40.169 64.341 40.591C63.919 41.0129 63.3467 41.25 62.75 41.25H60.31C59.8441 44.0141 58.5286 46.5644 56.5465 48.5465C54.5644 50.5286 52.0141 51.8441 49.25 52.31V54.75C49.25 55.3467 49.0129 55.919 48.591 56.341C48.169 56.7629 47.5967 57 47 57C46.4033 57 45.831 56.7629 45.409 56.341C44.9871 55.919 44.75 55.3467 44.75 54.75V52.31C41.9859 51.8441 39.4356 50.5286 37.4535 48.5465C35.4714 46.5644 34.1559 44.0141 33.69 41.25H31.25C30.6533 41.25 30.081 41.0129 29.659 40.591C29.2371 40.169 29 39.5967 29 39C29 38.4033 29.2371 37.831 29.659 37.409C30.081 36.9871 30.6533 36.75 31.25 36.75H33.69C34.1559 33.9859 35.4714 31.4356 37.4535 29.4535C39.4356 27.4714 41.9859 26.1559 44.75 25.69V23.25C44.7497 22.9545 44.8078 22.6618 44.9207 22.3887C45.0337 22.1156 45.1994 21.8674 45.4084 21.6584C45.6174 21.4494 45.8655 21.2837 46.1387 21.1707C46.4118 21.0578 46.7045 20.9997 47 21ZM38 39C38 40.78 38.5278 42.5201 39.5168 44.0001C40.5057 45.4802 41.9113 46.6337 43.5558 47.3149C45.2004 47.9961 47.01 48.1743 48.7558 47.8271C50.5016 47.4798 52.1053 46.6226 53.364 45.364C54.6226 44.1053 55.4798 42.5016 55.8271 40.7558C56.1743 39.01 55.9961 37.2004 55.3149 35.5559C54.6337 33.9113 53.4802 32.5057 52.0001 31.5168C50.5201 30.5278 48.78 30 47 30C44.6131 30 42.3239 30.9482 40.636 32.636C38.9482 34.3239 38 36.6131 38 39ZM47 33.375C48.1125 33.375 49.2001 33.7049 50.1251 34.323C51.0501 34.9411 51.7711 35.8196 52.1968 36.8474C52.6226 37.8752 52.734 39.0062 52.5169 40.0974C52.2999 41.1885 51.7641 42.1908 50.9775 42.9775C50.1908 43.7641 49.1885 44.2999 48.0974 44.5169C47.0062 44.734 45.8752 44.6226 44.8474 44.1968C43.8196 43.7711 42.9411 43.0501 42.323 42.1251C41.7049 41.2001 41.375 40.1125 41.375 39C41.375 37.5082 41.9676 36.0774 43.0225 35.0225C44.0774 33.9676 45.5082 33.375 47 33.375Z" fill="#96FFFD"/>
<defs>
<filter id="filter0_b_1_807" x="-14" y="-14" width="125" height="106" filterUnits="userSpaceOnUse" color-interpolation-filters="sRGB">
<feFlood flood-opacity="0" result="BackgroundImageFix"/>
<feGaussianBlur in="BackgroundImageFix" stdDeviation="7"/>
<feComposite in2="SourceAlpha" operator="in" result="effect1_backgroundBlur_1_807"/>
<feBlend mode="normal" in="SourceGraphic" in2="effect1_backgroundBlur_1_807" result="shape"/>
</filter>
</defs>
</svg>
