<svg width="379" height="478" viewBox="0 0 379 478" fill="none" xmlns="http://www.w3.org/2000/svg">
<path d="M363.799 370.655C357.701 373.09 350.594 373.003 345.022 376.48C342.741 377.828 341.074 380.263 340.284 382.828C339.363 383.306 338.442 383.871 337.52 384.349C321.332 393.479 327.386 373.394 312.251 373.524C297.467 373.655 301.722 398.174 295.141 396C293.474 399.739 296.194 404.173 295.01 408.086C294.571 409.434 293.738 410.651 293.123 411.912C292.729 412.694 292.465 413.564 292.334 414.433C288.21 418.563 284.656 423.389 282.112 428.562C281.937 427.997 281.717 427.475 281.542 426.91C277.944 423.389 271.32 427.128 270.179 431.997C269.039 436.866 271.188 441.865 272.636 446.648C274.084 451.43 274.61 457.299 270.969 460.82C269.082 462.689 266.012 463.994 268.731 468.254C269.697 469.819 271.627 470.428 273.47 470.167C277.374 469.602 280.708 476.775 276.891 476.992C269.828 477.818 264.652 470.471 262.414 463.776C260.221 457.081 258.685 449.299 252.763 445.43C249.867 443.517 245.875 442.604 244.471 439.474C242.102 434.171 248.99 427.997 246.445 422.78C243.945 417.694 235.566 419.563 231.266 415.781C227.625 412.564 228.108 406.347 224.598 403.043C222.799 401.348 220.299 400.696 218.017 399.826C210.735 397.044 204.725 391.262 201.654 384.175C197.486 384.914 198.1 391.088 200.074 394.827C207.752 409.043 219.948 420.824 234.513 428.084C229.775 430.432 227.45 435.779 225.519 440.692C222.58 447.995 219.641 455.342 216.745 462.689C212.314 462.168 207.664 461.516 204.067 458.864C200.513 456.212 198.583 450.778 201.215 447.213C206.085 451.908 215.517 450.212 218.456 444.17C221.352 438.04 216.789 429.78 210.033 428.997C212.885 420.998 203.803 413.999 195.819 410.999C187.835 407.999 178.052 404.173 177.086 395.783C173.445 392.566 167.566 394.174 163.618 397C159.67 399.87 156.38 403.782 151.729 405.347C147.123 406.912 140.542 404.304 140.849 399.435C138.48 401.478 136.111 403.521 133.699 405.565C139.095 407.086 136.024 415.694 131.066 418.216C126.065 420.737 119.265 422.302 118.081 427.78C117.598 429.954 118.212 432.214 118.212 434.518C118.212 437.953 116.545 441.17 115.01 444.257C111.105 451.821 106.06 460.255 97.6371 461.82C92.6798 462.733 85.1341 463.255 85.836 468.167C78.6851 461.994 68.7266 459.168 59.3383 460.646C59.9087 456.299 60.4789 451.995 61.0054 447.691C57.8028 447.213 54.5126 446.735 51.3101 446.3C56.3113 439.474 58.1099 430.388 56.0919 422.172C54.9952 417.563 53.6352 411.086 58.11 409.477C55.6971 407.347 53.9423 404.478 53.0648 401.391C59.777 398.478 67.5859 398.174 74.6052 400.478C77.6323 401.478 80.5277 402.956 83.5986 403.869C92.285 406.434 102.726 403.565 107.683 396.131C112.685 388.653 110.579 377.002 102.638 372.698C98.4707 370.438 93.3817 370.264 89.3017 367.829C85.2657 365.395 83.1599 358.7 87.2399 356.309C90.574 361.352 98.2513 362.917 103.296 359.613C100.927 355.569 99.8745 350.831 100.357 346.179C104.086 344.658 108.868 348.135 108.429 352.135C115.01 352.265 121.459 347.788 123.565 341.614C124.31 339.484 124.617 337.137 126.153 335.398C128.127 333.093 131.593 332.746 134.488 331.659C141.639 329.007 145.851 320.356 143.525 313.226C152.738 309.009 163.004 307.096 173.094 307.661C169.541 301.14 165.856 294.184 166.207 286.707C166.557 279.273 172.655 271.621 180.113 272.317C181.254 276.664 181.166 281.272 179.982 285.62C182.175 286.098 184.325 286.576 186.518 287.054C181.78 290.924 176.999 298.445 181.912 302.053C185.817 304.922 191.432 301.227 196.214 302.183C198.407 302.618 200.294 304.096 202.443 304.574C212.139 306.966 221.571 291.141 229.775 296.836C232.539 298.749 233.635 302.618 238.373 302.053C240.962 301.705 243.243 300.097 244.515 297.793C247.235 293.097 246.358 287.707 246.884 282.533C247.323 278.055 249.516 273.056 253.947 271.882C258.773 270.578 263.423 274.534 268.424 275.056C276.848 276.012 283.428 264.578 278.339 257.883C271.978 262.709 263.818 265.1 255.79 264.448C253.421 260.361 258.378 255.884 262.677 253.971C277.593 247.406 294.527 245.363 310.584 248.276C313.479 245.624 309.312 241.45 305.802 239.755C302.292 238.103 298.344 233.625 301.371 231.19C290.798 226.973 281.498 241.668 270.048 242.233C258.334 242.798 251.534 227.278 255.877 216.496C260.265 205.715 271.101 199.15 281.278 193.368C274.566 182.891 256.974 182.065 249.297 191.846C250.262 199.846 247.016 208.193 240.874 213.453C234.557 218.844 224.203 223.8 226.353 231.799C228.239 238.842 239.558 242.233 238.022 249.362C236.662 255.927 225.782 256.014 223.194 262.231C221.352 266.752 224.905 272.317 222.755 276.664C220.518 281.055 214.201 281.229 210.208 284.185C207.488 286.185 205.953 289.402 203.452 291.663C200.908 293.923 196.345 294.793 194.503 291.924C192.704 289.098 195.073 285.663 196.389 282.577C200.381 273.491 194.635 263.361 189.063 255.145C177.788 254.232 171.954 275.36 161.469 271.056C158.529 269.839 156.774 266.882 155.283 264.057C151.159 256.449 146.947 248.71 145.368 240.189C143.833 231.669 145.368 222.148 151.334 215.931C159.363 207.627 172.831 207.149 181.737 199.846C191.695 191.672 194.152 176.5 204.856 169.327C211.261 165.023 221.088 162.719 221.834 155.067C214.771 155.632 207.708 156.198 200.645 156.763C203.847 150.894 211.525 147.851 217.886 149.894C215.254 144.286 221.79 138.199 228.064 137.33C234.337 136.504 240.874 138.286 246.884 136.504C251.798 135.026 255.702 131.417 260.44 129.374C264.52 127.635 269.039 127.2 273.47 126.983C278.471 126.766 283.472 126.766 288.473 126.983C278.646 135.634 271.978 147.851 274.829 160.197C279.217 179.152 304.047 195.063 294.966 212.279C303.521 210.366 312.47 208.497 320.937 210.627C325.5 211.714 329.931 214.409 332.914 217.974C332.475 221.278 335.195 224.408 336.774 227.495C336.774 227.93 336.774 228.321 336.774 228.799C336.643 230.364 336.336 231.842 335.809 233.277C328.439 233.016 311.154 229.495 319.446 241.45C323.131 237.103 324.842 239.885 329.097 239.45C330.852 239.277 332.519 237.451 331.861 235.799C332.826 235.799 333.791 235.886 334.756 235.972C333.221 239.233 331.159 242.363 329.711 245.624C323.613 259.275 328.044 274.925 328.571 289.837C328.79 297.488 327.035 306.009 323.219 312.617C324.14 312.443 325.061 312.226 325.982 312.095C343.048 309.226 362.57 313.487 373.011 327.181C383.453 340.875 379.943 364.395 363.93 370.829L363.799 370.655Z" fill="url(#paint0_linear_1_1369)" fill-opacity="0.23"/>
<path d="M47.2465 305.028C47.2465 309.275 51.2579 313.085 50.1364 317.202C49.0149 321.231 43.4075 323.07 43.1487 327.274C42.8899 331.96 49.2738 333.624 53.8028 332.705C62.1708 330.997 69.7624 325.829 74.5503 318.647C76.8795 315.144 77.7853 309.1 73.8601 307.699C79.2519 305.772 84.6436 303.845 90.0354 301.918C94.2625 305.597 98.8348 311.772 95.3409 316.151C93.098 318.997 87.7925 320.968 89.3884 324.209C90.0354 325.523 91.7608 326.223 92.0627 327.668C92.3646 329.201 90.9412 330.471 89.7766 331.478C84.6868 335.814 81.6674 342.602 81.84 349.39C89.5178 342.208 100.043 338.266 110.481 338.748C112.94 338.836 115.657 339.098 117.512 337.522C119.367 335.901 118.547 331.785 116.132 332.179L124.888 325.785C125.535 325.304 126.225 324.778 126.57 324.034C127.303 322.282 125.621 320.311 123.809 319.698C121.998 319.085 120.014 319.173 118.288 318.341C114.492 316.545 113.845 311.465 112.508 307.436C111.214 303.363 106.513 299.291 103.278 302.006C104.097 298.108 104.874 293.904 103.364 290.269C101.854 286.591 97.0231 284.095 93.8743 286.459C92.0627 283.7 96.2899 281.16 98.4897 278.752C100.905 276.124 100.862 271.526 98.3603 268.942C95.8585 266.402 91.2432 266.402 88.7845 268.986C89.1296 261.497 90.6824 252.257 97.7564 249.936C99.6975 249.323 101.811 249.367 103.709 248.666C105.65 248.009 107.462 246.214 107.16 244.156C107.505 246.564 111.301 246.652 112.724 244.725C114.147 242.798 113.845 240.127 113.457 237.718C107.979 236.141 105.607 245.513 100.172 247.265C97.6701 248.097 94.8233 247.133 92.4078 248.141C86.671 250.593 88.2238 261.41 82.2282 263.118C80.8047 263.512 79.2519 263.249 77.8716 263.818C75.1542 265.001 74.8522 268.855 75.4993 271.789C76.1463 274.723 77.354 277.92 76.06 280.635C75.3699 282.124 73.9464 283.613 74.5072 285.189C75.2405 287.248 78.2167 286.678 80.244 287.423C85.377 289.262 82.5733 295.393 79.8989 297.802C76.5776 300.823 70.9702 300.035 67.045 299.466C61.1787 298.634 47.2033 293.422 47.1602 304.984L47.2465 305.028Z" fill="url(#paint1_linear_1_1369)" fill-opacity="0.19"/>
<path d="M177.674 427.983C176.873 427.426 176.073 426.826 175.273 426.269C177.774 425.755 179.474 423.526 179.624 421.298C179.774 419.07 178.674 416.927 177.223 415.127C175.473 412.942 172.473 410.842 169.572 411.742C165.822 412.856 165.772 417.356 167.022 420.57C168.272 423.783 170.022 427.512 167.772 430.254C169.172 429.954 170.722 430.34 171.723 431.24C166.322 434.239 165.021 443.71 173.023 444.267C181.024 444.824 182.574 436.039 174.523 434.411C174.673 433.982 177.824 428.069 177.723 427.983H177.674Z" fill="url(#paint2_linear_1_1369)" fill-opacity="0.19"/>
<path d="M192.015 24.7929C195.738 26.9877 200.294 27.4266 204.149 29.402C208.662 31.7285 211.991 36.2059 212.867 41.2101C213.393 44.2828 213.13 47.6628 214.839 50.2527C217.292 54.0278 223.206 54.2911 226.798 51.5696C230.39 48.848 231.88 44.0633 231.88 39.542C231.88 35.9864 231.267 31.8602 233.764 29.402C234.859 28.3484 236.348 27.8217 237.794 27.3388C240.598 26.3731 243.577 25.4952 246.512 25.978C249.447 26.4609 252.251 28.8752 252.207 31.8601C252.119 35.4596 248.133 38.7958 249.71 42.0002C255.361 41.9124 261.056 41.8246 266.707 41.7807C268.678 39.8054 267.277 36.2059 264.955 34.6695C262.633 33.0892 259.742 32.782 257.201 31.6407C254.66 30.4994 252.25 27.9095 252.951 25.2318C254.003 21.1495 259.785 21.6762 263.991 21.8079C275.206 22.203 285.544 11.624 284.887 0.430424C274.943 -1.10595 270.036 9.82422 261.757 12.6775C254.923 15.0479 251.199 11.0533 244.935 11.624C238.276 12.2385 236.699 16.4965 231.573 17.7255C223.6 19.657 217.818 15.6624 209.538 14.565C203.098 13.6871 175.061 14.8723 191.971 24.8368L192.015 24.7929Z" fill="url(#paint3_linear_1_1369)" fill-opacity="0.19"/>
<path d="M60.1501 200.82C55.4315 202.778 51.0215 205.448 47.1408 208.785C43.5246 211.855 39.5116 215.77 34.8811 214.791C30.1625 213.857 27.9574 208.562 25.8848 204.202C23.8121 199.842 19.6226 195.125 15.0804 196.683C17.5499 193.702 20.0196 190.676 22.4891 187.695L4.8493 185.115C3.39401 184.892 1.85053 184.625 0.924439 183.513C-1.28054 180.932 2.02691 177.062 5.24618 176.083C12.5667 173.903 20.6369 177.195 26.1053 182.534C28.3984 184.759 31.309 187.606 34.2637 186.36C36.2041 185.515 37.042 183.246 38.3209 181.6C41.4519 177.595 47.2731 177.062 52.3004 177.64C60.8116 178.619 77.7459 172.345 81.0534 182.623C84.7577 194.102 66.9415 198.017 60.1061 200.82H60.1501Z" fill="url(#paint4_linear_1_1369)" fill-opacity="0.19"/>
<defs>
<linearGradient id="paint0_linear_1_1369" x1="324" y1="313" x2="126" y2="433" gradientUnits="userSpaceOnUse">
<stop stop-color="#CD6200"/>
<stop offset="1" stop-color="#CD6200" stop-opacity="0"/>
</linearGradient>
<linearGradient id="paint1_linear_1_1369" x1="84.9435" y1="237.54" x2="84.9435" y2="349.39" gradientUnits="userSpaceOnUse">
<stop stop-color="#CD6200"/>
<stop offset="1" stop-color="#CD6200" stop-opacity="0"/>
</linearGradient>
<linearGradient id="paint2_linear_1_1369" x1="173.068" y1="411.528" x2="173.068" y2="444.292" gradientUnits="userSpaceOnUse">
<stop stop-color="#CD6200"/>
<stop offset="1" stop-color="#CD6200" stop-opacity="0"/>
</linearGradient>
<linearGradient id="paint3_linear_1_1369" x1="235.771" y1="0.283203" x2="235.771" y2="53.3835" gradientUnits="userSpaceOnUse">
<stop stop-color="#CD6200"/>
<stop offset="1" stop-color="#CD6200" stop-opacity="0"/>
</linearGradient>
<linearGradient id="paint4_linear_1_1369" x1="40.8821" y1="175.401" x2="40.8821" y2="214.944" gradientUnits="userSpaceOnUse">
<stop stop-color="#CD6200"/>
<stop offset="1" stop-color="#CD6200" stop-opacity="0"/>
</linearGradient>
</defs>
</svg>
