<svg width="379" height="477" viewBox="0 0 379 477" fill="none" xmlns="http://www.w3.org/2000/svg">
<path d="M47.2465 304.744C47.2465 308.992 51.2579 312.802 50.1364 316.919C49.0149 320.948 43.4075 322.787 43.1487 326.991C42.8899 331.677 49.2738 333.341 53.8028 332.421C62.1708 330.713 69.7624 325.546 74.5503 318.364C76.8795 314.86 77.7853 308.817 73.8601 307.416C79.2519 305.489 84.6436 303.562 90.0354 301.635C94.2625 305.314 98.8348 311.488 95.3409 315.868C93.098 318.714 87.7925 320.685 89.3884 323.926C90.0354 325.239 91.7608 325.94 92.0627 327.385C92.3646 328.918 90.9412 330.188 89.7766 331.195C84.6868 335.531 81.6674 342.319 81.84 349.106C89.5178 341.924 100.043 337.983 110.481 338.465C112.94 338.552 115.657 338.815 117.512 337.239C119.367 335.618 118.547 331.502 116.131 331.896L124.888 325.502C125.535 325.02 126.225 324.495 126.57 323.75C127.303 321.999 125.621 320.028 123.809 319.415C121.998 318.802 120.014 318.889 118.288 318.057C114.492 316.262 113.845 311.182 112.508 307.153C111.214 303.08 106.513 299.007 103.278 301.723C104.097 297.825 104.874 293.621 103.364 289.986C101.854 286.308 97.0231 283.811 93.8743 286.176C92.0627 283.417 96.2899 280.877 98.4897 278.469C100.905 275.841 100.862 271.243 98.3603 268.659C95.8585 266.119 91.2432 266.119 88.7845 268.703C89.1296 261.214 90.6824 251.974 97.7564 249.653C99.6975 249.04 101.811 249.084 103.709 248.383C105.65 247.726 107.462 245.931 107.16 243.872C107.505 246.281 111.301 246.368 112.724 244.442C114.147 242.515 113.845 239.843 113.457 237.435C107.979 235.858 105.607 245.23 100.172 246.982C97.6701 247.814 94.8233 246.85 92.4078 247.857C86.671 250.31 88.2238 261.127 82.2282 262.835C80.8047 263.229 79.2519 262.966 77.8716 263.535C75.1542 264.718 74.8522 268.571 75.4993 271.506C76.1463 274.44 77.354 277.637 76.06 280.352C75.3699 281.841 73.9464 283.33 74.5072 284.906C75.2405 286.964 78.2167 286.395 80.244 287.14C85.377 288.979 82.5733 295.11 79.8989 297.519C76.5776 300.54 70.9702 299.752 67.045 299.183C61.1787 298.351 47.2033 293.139 47.1602 304.701L47.2465 304.744Z" fill="#808285" fill-opacity="0.09"/>
<path d="M177.674 427.7C176.874 427.143 176.073 426.543 175.273 425.986C177.774 425.471 179.474 423.243 179.624 421.015C179.774 418.786 178.674 416.644 177.224 414.844C175.473 412.659 172.473 410.559 169.572 411.459C165.822 412.573 165.772 417.072 167.022 420.286C168.272 423.5 170.022 427.228 167.772 429.971C169.172 429.671 170.723 430.057 171.723 430.957C166.322 433.956 165.022 443.427 173.023 443.984C181.024 444.541 182.574 435.756 174.523 434.128C174.673 433.699 177.824 427.786 177.724 427.7H177.674Z" fill="#808285" fill-opacity="0.09"/>
<path d="M192.015 24.5096C195.739 26.7045 200.295 27.1434 204.15 29.1188C208.662 31.4453 211.991 35.9227 212.867 40.9269C213.393 43.9996 213.13 47.3796 214.839 49.9695C217.292 53.7446 223.206 54.0079 226.798 51.2864C230.391 48.5648 231.88 43.7801 231.88 39.2588C231.88 35.7032 231.267 31.5769 233.764 29.1188C234.859 28.0652 236.348 27.5385 237.794 27.0556C240.598 26.0899 243.577 25.212 246.512 25.6948C249.447 26.1777 252.251 28.592 252.207 31.5769C252.119 35.1764 248.133 38.5126 249.71 41.717C255.361 41.6292 261.056 41.5414 266.707 41.4975C268.679 39.5222 267.277 35.9227 264.955 34.3863C262.633 32.806 259.742 32.4988 257.201 31.3575C254.66 30.2162 252.251 27.6263 252.952 24.9486C254.003 20.8663 259.786 21.393 263.991 21.5247C275.206 21.9198 285.545 11.3408 284.888 0.147221C274.943 -1.38915 270.037 9.54102 261.757 12.3943C254.923 14.7647 251.199 10.7701 244.935 11.3408C238.276 11.9553 236.699 16.2133 231.573 17.4423C223.6 19.3738 217.818 15.3792 209.538 14.2818C203.098 13.4039 175.061 14.5891 191.971 24.5535L192.015 24.5096Z" fill="#4EAEBC" fill-opacity="0.09"/>
<path d="M60.1502 200.537C55.4316 202.495 51.0216 205.164 47.1408 208.501C43.5247 211.571 39.5116 215.487 34.8812 214.508C30.1625 213.573 27.9575 208.279 25.8848 203.919C23.8121 199.558 19.6227 194.842 15.0804 196.399C17.55 193.418 20.0196 190.393 22.4892 187.412L4.84936 184.831C3.39407 184.609 1.85059 184.342 0.9245 183.23C-1.28048 180.649 2.02697 176.778 5.24624 175.8C12.5668 173.619 20.637 176.912 26.1053 182.251C28.3985 184.476 31.3091 187.323 34.2638 186.077C36.2042 185.232 37.042 182.963 38.3209 181.317C41.452 177.312 47.2731 176.778 52.3005 177.357C60.8117 178.336 77.746 172.062 81.0534 182.34C84.7578 193.819 66.9416 197.734 60.1061 200.537H60.1502Z" fill="#4EAEBC" fill-opacity="0.09"/>
<path d="M363.489 369.835C357.391 372.269 350.284 372.183 344.712 375.66C342.431 377.008 340.764 379.443 339.974 382.008C339.053 382.486 338.132 383.051 337.21 383.529C321.022 392.659 327.076 372.574 311.941 372.704C297.157 372.835 301.412 397.354 294.831 395.18C293.164 398.919 295.884 403.353 294.7 407.266C294.261 408.614 293.428 409.831 292.813 411.092C292.419 411.874 292.155 412.744 292.024 413.613C287.9 417.743 284.346 422.569 281.802 427.742C281.626 427.177 281.407 426.655 281.232 426.09C277.634 422.569 271.01 426.308 269.869 431.177C268.729 436.046 270.878 441.045 272.326 445.827C273.774 450.61 274.3 456.479 270.659 460C268.772 461.869 265.701 463.174 268.421 467.434C269.387 468.999 271.317 469.608 273.159 469.347C277.064 468.782 280.398 475.955 276.581 476.172C269.518 476.998 264.342 469.651 262.104 462.956C259.911 456.261 258.375 448.479 252.453 444.61C249.557 442.697 245.565 441.784 244.161 438.654C241.792 433.35 248.68 427.177 246.135 421.96C243.635 416.874 235.256 418.743 230.956 414.961C227.315 411.744 227.797 405.527 224.288 402.223C222.489 400.528 219.989 399.875 217.707 399.006C210.425 396.224 204.415 390.442 201.344 383.355C197.176 384.094 197.79 390.268 199.764 394.006C207.442 408.222 219.638 420.004 234.203 427.264C229.465 429.612 227.139 434.959 225.209 439.872C222.27 447.175 219.331 454.522 216.435 461.869C212.004 461.348 207.354 460.696 203.757 458.044C200.203 455.392 198.273 449.958 200.905 446.393C205.775 451.088 215.207 449.392 218.146 443.349C221.041 437.22 216.479 428.96 209.723 428.177C212.575 420.178 203.493 413.179 195.509 410.179C187.524 407.179 177.741 403.353 176.776 394.963C173.135 391.746 167.256 393.354 163.308 396.18C159.36 399.049 156.069 402.962 151.419 404.527C146.813 406.092 140.232 403.484 140.539 398.615C138.17 400.658 135.801 402.701 133.389 404.745C138.785 406.266 135.714 414.874 130.756 417.395C125.755 419.917 118.955 421.482 117.771 426.96C117.288 429.133 117.902 431.394 117.902 433.698C117.902 437.133 116.235 440.35 114.7 443.436C110.795 451.001 105.75 459.435 97.3271 461C92.3697 461.913 84.824 462.435 85.5259 467.347C78.3751 461.174 68.4165 458.348 59.0283 459.826C59.5986 455.479 60.1689 451.175 60.6953 446.871C57.4928 446.393 54.2025 445.914 51 445.48C56.0012 438.654 57.7999 429.568 55.7819 421.352C54.6851 416.743 53.3251 410.266 57.7999 408.657C55.387 406.527 53.6322 403.658 52.7548 400.571C59.467 397.658 67.2759 397.354 74.2951 399.658C77.3222 400.658 80.2177 402.136 83.2886 403.049C91.9749 405.614 102.416 402.745 107.373 395.311C112.375 387.833 110.269 376.182 102.328 371.878C98.1606 369.618 93.0716 369.444 88.9917 367.009C84.9556 364.575 82.8499 357.88 86.9298 355.488C90.264 360.531 97.9412 362.097 102.986 358.793C100.617 354.749 99.5644 350.011 100.047 345.359C103.776 343.837 108.558 347.315 108.119 351.315C114.7 351.445 121.149 346.968 123.254 340.794C124 338.664 124.307 336.316 125.843 334.577C127.817 332.273 131.283 331.926 134.178 330.839C141.329 328.187 145.541 319.535 143.215 312.406C152.428 308.189 162.694 306.276 172.784 306.841C169.231 300.32 165.546 293.364 165.896 285.887C166.247 278.452 172.345 270.801 179.803 271.497C180.944 275.844 180.856 280.452 179.672 284.8C181.865 285.278 184.015 285.756 186.208 286.234C181.47 290.104 176.689 297.625 181.602 301.233C185.506 304.102 191.122 300.407 195.904 301.363C198.097 301.798 199.984 303.276 202.133 303.754C211.829 306.145 221.261 290.321 229.465 296.016C232.228 297.929 233.325 301.798 238.063 301.233C240.652 300.885 242.933 299.277 244.205 296.972C246.925 292.277 246.048 286.886 246.574 281.713C247.013 277.235 249.206 272.236 253.637 271.062C258.463 269.758 263.113 273.714 268.114 274.236C276.538 275.192 283.118 263.758 278.029 257.063C271.668 261.889 263.508 264.28 255.48 263.628C253.111 259.541 258.068 255.063 262.367 253.151C277.283 246.586 294.217 244.543 310.274 247.456C313.169 244.804 309.002 240.63 305.492 238.935C301.982 237.283 298.034 232.805 301.061 230.37C290.488 226.153 281.188 240.848 269.738 241.413C258.024 241.978 251.224 226.458 255.567 215.676C259.954 204.894 270.79 198.33 280.968 192.548C274.256 182.071 256.664 181.245 248.987 191.026C249.952 199.025 246.706 207.372 240.564 212.633C234.246 218.024 223.893 222.98 226.043 230.979C227.929 238.022 239.248 241.413 237.712 248.542C236.352 255.107 225.472 255.194 222.884 261.411C221.042 265.932 224.595 271.497 222.445 275.844C220.208 280.235 213.891 280.409 209.898 283.365C207.178 285.365 205.643 288.582 203.142 290.843C200.598 293.103 196.035 293.973 194.193 291.103C192.394 288.278 194.763 284.843 196.079 281.757C200.071 272.67 194.324 262.541 188.753 254.324C177.478 253.412 171.643 274.54 161.158 270.236C158.219 269.019 156.464 266.062 154.973 263.237C150.849 255.629 146.637 247.89 145.058 239.369C143.523 230.848 145.058 221.328 151.024 215.111C159.053 206.807 172.521 206.329 181.427 199.025C191.385 190.852 193.842 175.68 204.546 168.507C210.951 164.203 220.778 161.899 221.524 154.247C214.461 154.812 207.398 155.378 200.335 155.943C203.537 150.074 211.214 147.031 217.576 149.074C214.943 143.466 221.48 137.379 227.754 136.51C234.027 135.684 240.564 137.466 246.574 135.684C251.488 134.206 255.392 130.597 260.13 128.554C264.21 126.815 268.729 126.38 273.159 126.163C278.161 125.946 283.162 125.946 288.163 126.163C278.336 134.814 271.668 147.031 274.519 159.377C278.906 178.332 303.737 194.243 294.656 211.459C303.211 209.546 312.16 207.677 320.627 209.807C325.19 210.894 329.621 213.589 332.604 217.154C332.165 220.458 334.885 223.588 336.464 226.675C336.464 227.11 336.464 227.501 336.464 227.979C336.333 229.544 336.026 231.022 335.499 232.457C328.129 232.196 310.844 228.675 319.136 240.63C322.821 236.283 324.532 239.065 328.787 238.63C330.542 238.456 332.209 236.631 331.551 234.979C332.516 234.979 333.481 235.065 334.446 235.152C332.911 238.413 330.849 241.543 329.401 244.804C323.303 258.454 327.734 274.105 328.261 289.017C328.48 296.668 326.725 305.189 322.908 311.797C323.83 311.623 324.751 311.406 325.672 311.275C342.738 308.406 362.26 312.667 372.701 326.361C383.142 340.055 379.633 363.575 363.62 370.009L363.489 369.835Z" fill="#4EAEBC" fill-opacity="0.09"/>
</svg>
