<svg width="381" height="477" viewBox="0 0 381 477" fill="none" xmlns="http://www.w3.org/2000/svg">
<path d="M365.589 370.372C359.491 372.806 352.384 372.719 346.813 376.197C344.531 377.545 342.864 379.98 342.075 382.544C341.153 383.023 340.232 383.588 339.311 384.066C323.123 393.196 329.177 373.111 314.041 373.241C299.257 373.371 303.513 397.891 296.932 395.717C295.265 399.456 297.985 403.89 296.8 407.803C296.362 409.151 295.528 410.368 294.914 411.629C294.519 412.411 294.256 413.281 294.124 414.15C290 418.28 286.447 423.106 283.903 428.279C283.727 427.714 283.508 427.192 283.332 426.627C279.735 423.106 273.11 426.845 271.97 431.714C270.829 436.583 272.979 441.582 274.427 446.364C275.874 451.146 276.401 457.016 272.759 460.537C270.873 462.406 267.802 463.711 270.522 467.971C271.487 469.536 273.417 470.145 275.26 469.884C279.165 469.319 282.499 476.492 278.682 476.709C271.619 477.535 266.442 470.188 264.205 463.493C262.011 456.798 260.476 449.016 254.553 445.147C251.658 443.234 247.666 442.321 246.262 439.191C243.893 433.887 250.78 427.714 248.236 422.497C245.735 417.411 237.356 419.28 233.057 415.498C229.416 412.281 229.898 406.064 226.388 402.76C224.59 401.064 222.089 400.412 219.808 399.543C212.525 396.761 206.515 390.978 203.444 383.892C199.277 384.631 199.891 390.805 201.865 394.543C209.542 408.759 221.738 420.541 236.303 427.801C231.565 430.149 229.24 435.496 227.31 440.408C224.37 447.712 221.431 455.059 218.536 462.406C214.105 461.885 209.454 461.232 205.857 458.581C202.304 455.929 200.373 450.494 203.006 446.93C207.875 451.625 217.307 449.929 220.247 443.886C223.142 437.757 218.58 429.496 211.824 428.714C214.675 420.715 205.594 413.715 197.609 410.716C189.625 407.716 179.842 403.89 178.877 395.5C175.236 392.283 169.357 393.891 165.409 396.717C161.46 399.586 158.17 403.499 153.52 405.064C148.913 406.629 142.333 404.021 142.64 399.152C140.271 401.195 137.902 403.238 135.489 405.281C140.885 406.803 137.814 415.411 132.857 417.932C127.856 420.454 121.056 422.019 119.871 427.497C119.389 429.67 120.003 431.931 120.003 434.235C120.003 437.67 118.336 440.887 116.8 443.973C112.896 451.538 107.851 459.972 99.4277 461.537C94.4703 462.45 86.9246 462.971 87.6265 467.884C80.4757 461.711 70.5171 458.885 61.1289 460.363C61.6992 456.016 62.2695 451.712 62.7959 447.408C59.5934 446.93 56.3031 446.451 53.1006 446.017C58.1018 439.191 59.9005 430.105 57.8824 421.888C56.7857 417.28 55.4257 410.803 59.9005 409.194C57.4876 407.064 55.7328 404.195 54.8554 401.108C61.5675 398.195 69.3765 397.891 76.3957 400.195C79.4228 401.195 82.3182 402.673 85.3892 403.586C94.0755 406.151 104.517 403.282 109.474 395.848C114.475 388.37 112.369 376.719 104.429 372.415C100.261 370.154 95.1722 369.981 91.0923 367.546C87.0562 365.111 84.9505 358.416 89.0304 356.025C92.3646 361.068 100.042 362.633 105.087 359.329C102.718 355.286 101.665 350.548 102.148 345.896C105.877 344.374 110.658 347.852 110.22 351.852C116.8 351.982 123.249 347.504 125.355 341.331C126.101 339.201 126.408 336.853 127.943 335.114C129.918 332.81 133.383 332.462 136.279 331.376C143.43 328.724 147.641 320.072 145.316 312.943C154.529 308.726 164.794 306.813 174.885 307.378C171.331 300.857 167.646 293.901 167.997 286.423C168.348 278.989 174.446 271.338 181.904 272.034C183.045 276.381 182.957 280.989 181.772 285.337C183.966 285.815 186.115 286.293 188.309 286.771C183.571 290.64 178.789 298.161 183.703 301.77C187.607 304.639 193.222 300.944 198.004 301.9C200.198 302.335 202.084 303.813 204.234 304.291C213.929 306.682 223.361 290.858 231.565 296.553C234.329 298.466 235.426 302.335 240.164 301.77C242.752 301.422 245.033 299.813 246.306 297.509C249.026 292.814 248.148 287.423 248.675 282.25C249.113 277.772 251.307 272.773 255.738 271.599C260.563 270.295 265.214 274.251 270.215 274.772C278.638 275.729 285.219 264.295 280.13 257.6C273.768 262.426 265.609 264.817 257.58 264.165C255.211 260.078 260.169 255.6 264.468 253.688C279.384 247.123 296.318 245.08 312.374 247.992C315.27 245.341 311.102 241.167 307.592 239.472C304.083 237.82 300.134 233.342 303.162 230.907C292.589 226.69 283.288 241.384 271.838 241.95C260.125 242.515 253.325 226.994 257.668 216.213C262.055 205.431 272.891 198.867 283.069 193.085C276.357 182.607 258.765 181.781 251.087 191.563C252.053 199.562 248.806 207.909 242.664 213.17C236.347 218.561 225.994 223.517 228.143 231.516C230.03 238.559 241.348 241.95 239.813 249.079C238.453 255.644 227.573 255.731 224.985 261.948C223.142 266.469 226.696 272.034 224.546 276.381C222.309 280.772 215.991 280.946 211.999 283.902C209.279 285.902 207.744 289.119 205.243 291.38C202.699 293.64 198.136 294.51 196.293 291.64C194.495 288.815 196.864 285.38 198.18 282.293C202.172 273.207 196.425 263.078 190.854 254.861C179.579 253.948 173.744 275.077 163.259 270.773C160.32 269.556 158.565 266.599 157.073 263.773C152.95 256.166 148.738 248.427 147.159 239.906C145.623 231.385 147.159 221.865 153.125 215.648C161.153 207.344 174.621 206.866 183.527 199.562C193.486 191.389 195.942 176.217 206.647 169.044C213.052 164.74 222.879 162.436 223.625 154.784C216.562 155.349 209.498 155.914 202.435 156.48C205.638 150.611 213.315 147.567 219.676 149.611C217.044 144.003 223.581 137.916 229.854 137.047C236.128 136.221 242.664 138.003 248.675 136.221C253.588 134.743 257.493 131.134 262.231 129.091C266.311 127.352 270.829 126.917 275.26 126.7C280.261 126.483 285.262 126.483 290.264 126.7C280.437 135.351 273.768 147.567 276.62 159.914C281.007 178.869 305.838 194.78 296.757 211.996C305.311 210.083 314.261 208.214 322.728 210.344C327.29 211.431 331.721 214.126 334.704 217.691C334.266 220.995 336.986 224.125 338.565 227.212C338.565 227.647 338.565 228.038 338.565 228.516C338.433 230.081 338.126 231.559 337.6 232.994C330.23 232.733 312.945 229.212 321.236 241.167C324.921 236.82 326.632 239.602 330.888 239.167C332.642 238.993 334.31 237.167 333.651 235.515C334.617 235.515 335.582 235.602 336.547 235.689C335.011 238.95 332.95 242.08 331.502 245.34C325.404 258.991 329.835 274.642 330.361 289.554C330.581 297.205 328.826 305.726 325.009 312.334C325.93 312.16 326.852 311.943 327.773 311.812C344.838 308.943 364.361 313.203 374.802 326.898C385.243 340.592 381.733 364.112 365.721 370.546L365.589 370.372Z" fill="#808285" fill-opacity="0.09"/>
<path d="M47.037 304.744C47.037 308.992 51.0484 312.802 49.927 316.919C48.8055 320.948 43.1981 322.787 42.9393 326.991C42.6805 331.677 49.0643 333.341 53.5934 332.421C61.9614 330.713 69.553 325.546 74.3408 318.364C76.6701 314.86 77.5759 308.817 73.6507 307.416C79.0424 305.489 84.4342 303.562 89.8259 301.635C94.0531 305.314 98.6253 311.488 95.1315 315.868C92.8885 318.714 87.583 320.685 89.1789 323.926C89.826 325.239 91.5513 325.94 91.8532 327.385C92.1552 328.918 90.7318 330.188 89.5671 331.195C84.4773 335.531 81.458 342.319 81.6305 349.106C89.3083 341.924 99.833 337.983 110.271 338.465C112.73 338.552 115.448 338.815 117.302 337.239C119.157 335.618 118.338 331.502 115.922 331.896L124.678 325.502C125.325 325.02 126.015 324.495 126.36 323.75C127.094 321.999 125.412 320.028 123.6 319.415C121.788 318.802 119.804 318.889 118.079 318.057C114.283 316.262 113.636 311.182 112.299 307.153C111.005 303.08 106.303 299.007 103.068 301.723C103.888 297.825 104.664 293.621 103.154 289.986C101.645 286.308 96.8136 283.811 93.6649 286.176C91.8532 283.417 96.0804 280.877 98.2802 278.469C100.696 275.841 100.653 271.243 98.1508 268.659C95.6491 266.119 91.0337 266.119 88.5751 268.703C88.9201 261.214 90.473 251.974 97.547 249.653C99.488 249.04 101.602 249.084 103.499 248.383C105.44 247.726 107.252 245.931 106.95 243.872C107.295 246.281 111.091 246.368 112.514 244.442C113.938 242.515 113.636 239.843 113.248 237.435C107.77 235.858 105.397 245.23 99.9624 246.982C97.4607 247.814 94.6138 246.85 92.1983 247.857C86.4615 250.31 88.0143 261.127 82.0187 262.835C80.5953 263.229 79.0425 262.966 77.6622 263.535C74.9447 264.718 74.6428 268.571 75.2898 271.506C75.9368 274.44 77.1446 277.637 75.8505 280.352C75.1604 281.841 73.737 283.33 74.2977 284.906C75.031 286.964 78.0073 286.395 80.0346 287.14C85.1675 288.979 82.3638 295.11 79.6895 297.519C76.3682 300.54 70.7607 299.752 66.8355 299.183C60.9693 298.351 46.9938 293.139 46.9507 304.701L47.037 304.744Z" fill="#808285" fill-opacity="0.09"/>
<path d="M177.464 427.7C176.664 427.143 175.864 426.543 175.064 425.986C177.564 425.471 179.264 423.243 179.414 421.015C179.564 418.786 178.464 416.644 177.014 414.844C175.264 412.659 172.263 410.559 169.363 411.459C165.612 412.573 165.562 417.072 166.812 420.286C168.063 423.5 169.813 427.228 167.562 429.971C168.963 429.671 170.513 430.057 171.513 430.957C166.112 433.956 164.812 443.427 172.813 443.984C180.815 444.541 182.365 435.756 174.314 434.128C174.464 433.699 177.614 427.786 177.514 427.7H177.464Z" fill="#808285" fill-opacity="0.09"/>
<path d="M191.805 24.5096C195.529 26.7045 200.085 27.1434 203.94 29.1188C208.452 31.4453 211.782 35.9227 212.658 40.9269C213.183 43.9996 212.921 47.3796 214.629 49.9695C217.082 53.7446 222.996 54.0079 226.589 51.2864C230.181 48.5648 231.67 43.7801 231.67 39.2588C231.67 35.7032 231.057 31.5769 233.554 29.1188C234.649 28.0652 236.139 27.5385 237.584 27.0556C240.388 26.0899 243.367 25.212 246.302 25.6948C249.237 26.1777 252.041 28.592 251.997 31.5769C251.91 35.1764 247.923 38.5126 249.5 41.717C255.151 41.6292 260.846 41.5414 266.498 41.4975C268.469 39.5222 267.067 35.9227 264.745 34.3863C262.424 32.806 259.532 32.4988 256.991 31.3575C254.45 30.2162 252.041 27.6263 252.742 24.9486C253.793 20.8663 259.576 21.393 263.782 21.5247C274.996 21.9198 285.335 11.3408 284.678 0.147221C274.733 -1.38915 269.827 9.54102 261.547 12.3943C254.713 14.7647 250.99 10.7701 244.725 11.3408C238.066 11.9553 236.489 16.2133 231.364 17.4423C223.391 19.3738 217.608 15.3792 209.328 14.2818C202.889 13.4039 174.852 14.5891 191.761 24.5535L191.805 24.5096Z" fill="#808285" fill-opacity="0.09"/>
<path d="M59.9407 200.537C55.222 202.495 50.8121 205.164 46.9313 208.501C43.3151 211.571 39.3021 215.487 34.6716 214.508C29.953 213.573 27.748 208.279 25.6753 203.919C23.6026 199.558 19.4132 194.842 14.8709 196.399C17.3405 193.418 19.8101 190.393 22.2797 187.412L4.63983 184.831C3.18454 184.609 1.64106 184.342 0.714966 183.23C-1.49001 180.649 1.81744 176.778 5.03671 175.8C12.3572 173.619 20.4274 176.912 25.8958 182.251C28.189 184.476 31.0996 187.323 34.0542 186.077C35.9946 185.232 36.8325 182.963 38.1114 181.317C41.2425 177.312 47.0636 176.778 52.091 177.357C60.6022 178.336 77.5364 172.062 80.8439 182.34C84.5483 193.819 66.732 197.734 59.8966 200.537H59.9407Z" fill="#808285" fill-opacity="0.09"/>
</svg>
