<svg width="328" height="351" viewBox="0 0 328 351" fill="none" xmlns="http://www.w3.org/2000/svg">
<path d="M312.489 243.835C306.391 246.269 299.284 246.183 293.712 249.66C291.431 251.008 289.764 253.443 288.974 256.008C288.053 256.486 287.132 257.051 286.21 257.529C270.022 266.659 276.076 246.574 260.941 246.704C246.157 246.835 250.412 271.354 243.831 269.18C242.164 272.919 244.884 277.353 243.7 281.266C243.261 282.614 242.428 283.831 241.813 285.092C241.419 285.874 241.155 286.744 241.024 287.613C236.9 291.743 233.346 296.569 230.802 301.742C230.626 301.177 230.407 300.655 230.232 300.09C226.634 296.569 220.01 300.308 218.869 305.177C217.729 310.046 219.878 315.045 221.326 319.827C222.774 324.61 223.3 330.479 219.659 334C217.772 335.869 214.701 337.174 217.421 341.434C218.387 342.999 220.317 343.608 222.159 343.347C226.064 342.782 229.398 349.955 225.581 350.172C218.518 350.998 213.342 343.651 211.104 336.956C208.911 330.261 207.375 322.479 201.453 318.61C198.557 316.697 194.565 315.784 193.161 312.654C190.792 307.35 197.68 301.177 195.135 295.96C192.635 290.874 184.256 292.743 179.956 288.961C176.315 285.744 176.797 279.527 173.288 276.223C171.489 274.528 168.989 273.875 166.707 273.006C159.425 270.224 153.415 264.442 150.344 257.355C146.176 258.094 146.79 264.268 148.764 268.006C156.442 282.222 168.638 294.004 183.203 301.264C178.465 303.612 176.139 308.959 174.209 313.872C171.27 321.175 168.331 328.522 165.435 335.869C161.004 335.348 156.354 334.696 152.757 332.044C149.203 329.392 147.273 323.958 149.905 320.393C154.775 325.088 164.207 323.392 167.146 317.349C170.041 311.22 165.479 302.96 158.723 302.177C161.575 294.178 152.493 287.179 144.509 284.179C136.524 281.179 126.741 277.353 125.776 268.963C122.135 265.746 116.256 267.354 112.308 270.18C108.36 273.049 105.069 276.962 100.419 278.527C95.8129 280.092 89.2322 277.484 89.5393 272.615C87.1703 274.658 84.8014 276.701 82.3885 278.745C87.7846 280.266 84.7136 288.874 79.7563 291.395C74.7551 293.917 67.9552 295.482 66.7707 300.96C66.2881 303.133 66.9023 305.394 66.9023 307.698C66.9023 311.133 65.2352 314.35 63.6997 317.436C59.7952 325.001 54.7502 333.435 46.3271 335C41.3697 335.913 33.824 336.435 34.5259 341.347C27.3751 335.174 17.4165 332.348 8.02828 333.826C8.5986 329.479 9.16887 325.175 9.69531 320.871C6.49277 320.393 3.20254 319.914 0 319.48C5.00122 312.654 6.79989 303.568 4.78185 295.352C3.68509 290.743 2.32514 284.266 6.79992 282.657C4.38705 280.527 2.63219 277.658 1.75479 274.571C8.46695 271.658 16.2759 271.354 23.2951 273.658C26.3222 274.658 29.2177 276.136 32.2886 277.049C40.9749 279.614 51.416 276.745 56.3734 269.311C61.3746 261.833 59.2688 250.182 51.3283 245.878C47.1606 243.618 42.0716 243.444 37.9917 241.009C33.9556 238.575 31.8499 231.88 35.9298 229.488C39.264 234.531 46.9412 236.097 51.9863 232.793C49.6173 228.749 48.5644 224.011 49.047 219.359C52.776 217.837 57.5579 221.315 57.1192 225.315C63.6997 225.445 70.1487 220.968 72.2545 214.794C73.0003 212.664 73.3074 210.316 74.8428 208.577C76.817 206.273 80.2827 205.926 83.1782 204.839C90.329 202.187 94.5406 193.535 92.2154 186.406C101.428 182.189 111.694 180.276 121.784 180.841C118.231 174.32 114.546 167.364 114.896 159.887C115.247 152.452 121.345 144.801 128.803 145.497C129.944 149.844 129.856 154.452 128.672 158.8C130.865 159.278 133.015 159.756 135.208 160.234C130.47 164.104 125.689 171.625 130.602 175.233C134.506 178.102 140.122 174.407 144.904 175.363C147.097 175.798 148.984 177.276 151.133 177.754C160.829 180.145 170.261 164.321 178.465 170.016C181.228 171.929 182.325 175.798 187.063 175.233C189.652 174.885 191.933 173.277 193.205 170.972C195.925 166.277 195.048 160.886 195.574 155.713C196.013 151.235 198.206 146.236 202.637 145.062C207.463 143.758 212.113 147.714 217.114 148.236C225.538 149.192 232.118 137.758 227.029 131.063C220.668 135.889 212.508 138.28 204.48 137.628C202.111 133.541 207.068 129.063 211.367 127.151C226.283 120.586 243.217 118.543 259.274 121.456C262.169 118.804 258.002 114.63 254.492 112.935C250.982 111.283 247.034 106.805 250.061 104.37C239.488 100.153 230.188 114.848 218.738 115.413C207.024 115.978 200.224 100.458 204.567 89.676C208.954 78.8945 219.79 72.3299 229.968 66.5479C223.256 56.0706 205.664 55.2446 197.987 65.0263C198.952 73.0255 195.706 81.3725 189.564 86.6329C183.246 92.0236 172.893 96.9797 175.043 104.979C176.929 112.022 188.248 115.413 186.712 122.542C185.352 129.107 174.472 129.194 171.884 135.411C170.042 139.932 173.595 145.497 171.445 149.844C169.208 154.235 162.891 154.409 158.898 157.365C156.178 159.365 154.643 162.582 152.142 164.843C149.598 167.103 145.035 167.973 143.193 165.103C141.394 162.278 143.763 158.843 145.079 155.757C149.071 146.67 143.324 136.541 137.753 128.324C126.478 127.412 120.643 148.54 110.158 144.236C107.219 143.019 105.464 140.062 103.973 137.237C99.8489 129.629 95.6374 121.89 94.0581 113.369C92.5226 104.848 94.0581 95.3277 100.024 89.1109C108.053 80.8074 121.521 80.3291 130.427 73.0255C140.385 64.8524 142.842 49.6799 153.546 42.5067C159.951 38.2028 169.778 35.8987 170.524 28.2473C163.461 28.8124 156.398 29.3776 149.335 29.9427C152.537 24.0737 160.214 21.0306 166.576 23.0738C163.943 17.4657 170.48 11.3793 176.754 10.5098C183.027 9.68384 189.564 11.4663 195.574 9.68385C200.488 8.20573 204.392 4.59739 209.13 2.55411C213.21 0.815151 217.729 0.380398 222.159 0.163028C227.161 -0.0543425 232.162 -0.0543425 237.163 0.163028C227.336 8.81436 220.668 21.0306 223.519 33.3772C227.906 52.3319 252.737 68.2434 243.656 85.4591C252.211 83.5462 261.16 81.6768 269.627 83.8071C274.19 84.8939 278.621 87.5893 281.604 91.1542C281.165 94.4582 283.885 97.5883 285.464 100.675C285.464 101.11 285.464 101.501 285.464 101.979C285.333 103.544 285.026 105.022 284.499 106.457C277.129 106.196 259.844 102.675 268.136 114.63C271.821 110.283 273.532 113.065 277.787 112.63C279.542 112.456 281.209 110.631 280.551 108.979C281.516 108.979 282.481 109.065 283.446 109.152C281.911 112.413 279.849 115.543 278.401 118.804C272.303 132.454 276.734 148.105 277.261 163.017C277.48 170.668 275.725 179.189 271.908 185.797C272.83 185.623 273.751 185.406 274.672 185.275C291.738 182.406 311.26 186.667 321.701 200.361C332.142 214.055 328.633 237.575 312.62 244.009L312.489 243.835Z" fill="#808285" fill-opacity="0.09"/>
<path d="M279.69 187.463C279.985 187.463 280.278 187.521 280.551 187.634C280.824 187.747 281.072 187.913 281.281 188.122C281.49 188.331 281.656 188.579 281.769 188.852C281.882 189.125 281.94 189.418 281.94 189.713V192.153C284.704 192.619 287.254 193.934 289.236 195.917C291.219 197.899 292.534 200.449 293 203.213H295.44C296.037 203.213 296.609 203.45 297.031 203.872C297.453 204.294 297.69 204.866 297.69 205.463C297.69 206.06 297.453 206.632 297.031 207.054C296.609 207.476 296.037 207.713 295.44 207.713H293C292.534 210.477 291.219 213.028 289.236 215.01C287.254 216.992 284.704 218.307 281.94 218.773V221.213C281.94 221.81 281.703 222.382 281.281 222.804C280.859 223.226 280.287 223.463 279.69 223.463C279.093 223.463 278.521 223.226 278.099 222.804C277.677 222.382 277.44 221.81 277.44 221.213V218.773C274.676 218.307 272.125 216.992 270.143 215.01C268.161 213.028 266.846 210.477 266.38 207.713H263.94C263.343 207.713 262.771 207.476 262.349 207.054C261.927 206.632 261.69 206.06 261.69 205.463C261.69 204.866 261.927 204.294 262.349 203.872C262.771 203.45 263.343 203.213 263.94 203.213H266.38C266.846 200.449 268.161 197.899 270.143 195.917C272.125 193.934 274.676 192.619 277.44 192.153V189.713C277.44 189.418 277.498 189.125 277.611 188.852C277.724 188.579 277.889 188.331 278.098 188.122C278.307 187.913 278.555 187.747 278.829 187.634C279.102 187.521 279.394 187.463 279.69 187.463ZM270.69 205.463C270.69 207.243 271.218 208.983 272.207 210.463C273.196 211.943 274.601 213.097 276.246 213.778C277.89 214.459 279.7 214.637 281.446 214.29C283.192 213.943 284.795 213.086 286.054 211.827C287.313 210.568 288.17 208.965 288.517 207.219C288.864 205.473 288.686 203.664 288.005 202.019C287.324 200.374 286.17 198.969 284.69 197.98C283.21 196.991 281.47 196.463 279.69 196.463C277.303 196.463 275.014 197.411 273.326 199.099C271.638 200.787 270.69 203.076 270.69 205.463ZM279.69 199.838C280.802 199.838 281.89 200.168 282.815 200.786C283.74 201.404 284.461 202.283 284.887 203.311C285.312 204.338 285.424 205.469 285.207 206.561C284.99 207.652 284.454 208.654 283.667 209.441C282.881 210.227 281.878 210.763 280.787 210.98C279.696 211.197 278.565 211.086 277.537 210.66C276.509 210.234 275.631 209.513 275.013 208.588C274.395 207.663 274.065 206.576 274.065 205.463C274.065 203.971 274.658 202.541 275.712 201.486C276.767 200.431 278.198 199.838 279.69 199.838Z" fill="#96FFFD"/>
</svg>
