<svg width="164" height="164" viewBox="0 0 164 164" fill="none" xmlns="http://www.w3.org/2000/svg">
<g filter="url(#filter0_f_263_1372)">
<circle cx="82" cy="82" r="49" fill="url(#paint0_radial_263_1372)"/>
</g>
<path d="M82.8101 54.3005C83.1631 54.3002 83.5127 54.3695 83.839 54.5045C84.1652 54.6394 84.4616 54.8374 84.7112 55.087C84.9608 55.3366 85.1587 55.633 85.2937 55.9592C85.4286 56.2854 85.4979 56.635 85.4976 56.988V59.9025C88.7992 60.459 91.8454 62.0302 94.2129 64.3977C96.5804 66.7652 98.1516 69.8115 98.7082 73.113H101.623C102.335 73.113 103.019 73.3962 103.523 73.9002C104.027 74.4042 104.31 75.0878 104.31 75.8005C104.31 76.5133 104.027 77.1969 103.523 77.7009C103.019 78.2049 102.335 78.488 101.623 78.488H98.7082C98.1516 81.7896 96.5804 84.8358 94.2129 87.2033C91.8454 89.5709 88.7992 91.1421 85.4976 91.6986V94.613C85.4976 95.3258 85.2145 96.0094 84.7105 96.5134C84.2065 97.0174 83.5229 97.3005 82.8101 97.3005C82.0973 97.3005 81.4138 97.0174 80.9098 96.5134C80.4058 96.0094 80.1226 95.3258 80.1226 94.613V91.6986C76.821 91.1421 73.7748 89.5709 71.4073 87.2033C69.0398 84.8358 67.4686 81.7896 66.9121 78.488H63.9976C63.2849 78.488 62.6013 78.2049 62.0973 77.7009C61.5933 77.1969 61.3101 76.5133 61.3101 75.8005C61.3101 75.0878 61.5933 74.4042 62.0973 73.9002C62.6013 73.3962 63.2849 73.113 63.9976 73.113H66.9121C67.4686 69.8115 69.0398 66.7652 71.4073 64.3977C73.7748 62.0302 76.821 60.459 80.1226 59.9025V56.988C80.1223 56.635 80.1916 56.2854 80.3266 55.9592C80.4615 55.633 80.6594 55.3366 80.9091 55.087C81.1587 54.8374 81.4551 54.6394 81.7813 54.5045C82.1075 54.3695 82.4571 54.3002 82.8101 54.3005ZM72.0601 75.8005C72.0601 77.9267 72.6906 80.0051 73.8718 81.7729C75.053 83.5407 76.732 84.9186 78.6963 85.7322C80.6606 86.5459 82.822 86.7588 84.9073 86.344C86.9926 85.9292 88.9081 84.9053 90.4115 83.4019C91.9149 81.8985 92.9388 79.9831 93.3536 77.8978C93.7684 75.8125 93.5555 73.651 92.7418 71.6867C91.9282 69.7224 90.5503 68.0435 88.7825 66.8622C87.0147 65.681 84.9363 65.0505 82.8101 65.0505C79.959 65.0505 77.2247 66.1831 75.2087 68.1991C73.1927 70.2152 72.0601 72.9495 72.0601 75.8005ZM82.8101 69.0818C84.139 69.0818 85.438 69.4758 86.5429 70.2141C87.6477 70.9524 88.5089 72.0017 89.0174 73.2294C89.526 74.4571 89.659 75.808 89.3998 77.1113C89.1405 78.4146 88.5006 79.6118 87.561 80.5514C86.6214 81.491 85.4242 82.1309 84.1209 82.3902C82.8176 82.6494 81.4667 82.5164 80.239 82.0079C79.0113 81.4993 77.9619 80.6382 77.2237 79.5333C76.4854 78.4284 76.0914 77.1294 76.0914 75.8005C76.0914 74.0186 76.7992 72.3097 78.0592 71.0497C79.3193 69.7897 81.0282 69.0818 82.8101 69.0818Z" fill="#96FFFD"/>
<defs>
<filter id="filter0_f_263_1372" x="0" y="0" width="164" height="164" filterUnits="userSpaceOnUse" color-interpolation-filters="sRGB">
<feFlood flood-opacity="0" result="BackgroundImageFix"/>
<feBlend mode="normal" in="SourceGraphic" in2="BackgroundImageFix" result="shape"/>
<feGaussianBlur stdDeviation="16.5" result="effect1_foregroundBlur_263_1372"/>
</filter>
<radialGradient id="paint0_radial_263_1372" cx="0" cy="0" r="1" gradientUnits="userSpaceOnUse" gradientTransform="translate(82 74) rotate(-158.429) scale(46.2385)">
<stop stop-color="#5CFAF7" stop-opacity="0.36"/>
<stop offset="1" stop-color="#5CFAF7" stop-opacity="0"/>
</radialGradient>
</defs>
</svg>
