<svg width="30" height="30" viewBox="0 0 30 30" fill="none" xmlns="http://www.w3.org/2000/svg">
<path fill-rule="evenodd" clip-rule="evenodd" d="M24.75 18.75H18.75L18.75 24.75H24.75V18.75ZM18.75 16.5H24.75C25.9926 16.5 27 17.5074 27 18.75V24.75C27 25.9926 25.9926 27 24.75 27H18.75C17.5074 27 16.5 25.9926 16.5 24.75V18.75C16.5 17.5074 17.5074 16.5 18.75 16.5Z" fill="white"/>
<path fill-rule="evenodd" clip-rule="evenodd" d="M11.25 5.25H5.25L5.25 11.25H11.25V5.25ZM24.75 5.25H18.75V11.25H24.75V5.25ZM11.25 18.75H5.25L5.25 24.75H11.25V18.75ZM11.25 3H5.25C4.00736 3 3 4.00736 3 5.25V11.25C3 12.4926 4.00736 13.5 5.25 13.5H11.25C12.4926 13.5 13.5 12.4926 13.5 11.25V5.25C13.5 4.00736 12.4926 3 11.25 3ZM24.75 3H18.75C17.5074 3 16.5 4.00736 16.5 5.25V11.25C16.5 12.4926 17.5074 13.5 18.75 13.5H24.75C25.9926 13.5 27 12.4926 27 11.25V5.25C27 4.00736 25.9926 3 24.75 3ZM5.25 16.5H11.25C12.4926 16.5 13.5 17.5074 13.5 18.75V24.75C13.5 25.9926 12.4926 27 11.25 27H5.25C4.00736 27 3 25.9926 3 24.75V18.75C3 17.5074 4.00736 16.5 5.25 16.5Z" fill="white"/>
</svg>
