<svg width="1728" height="1117" viewBox="0 0 1728 1117" fill="none" xmlns="http://www.w3.org/2000/svg">
<path d="M1590.95 875.071C1589.37 871.763 1584.62 870.37 1581.45 872.285C1584.22 874.548 1584.49 879.206 1581.98 881.774C1580.7 883.079 1578.94 883.819 1577.49 884.951C1572.7 888.607 1572.48 896.79 1577.1 900.707C1574.85 901.838 1572.65 903.014 1570.41 904.145C1568.83 898.356 1564.34 893.395 1558.71 891.218C1551.01 896.006 1545.25 903.797 1543.05 912.502C1542.17 912.676 1541.25 912.807 1540.37 912.981C1539.97 915.549 1539.53 918.117 1539.13 920.728C1537.16 918.117 1536.36 914.635 1536.98 911.457C1532.32 912.371 1529.72 917.246 1528.45 921.773C1527.17 926.299 1526.42 931.305 1523.04 934.613C1520.57 937.05 1517.1 938.138 1513.8 939.139C1508.7 940.706 1503.59 942.229 1498.49 943.796C1494.27 945.058 1489.69 946.625 1487.45 950.368C1485.6 953.372 1484.41 958.203 1480.89 957.811C1479.4 957.637 1478.26 956.418 1476.76 956.07C1473.77 955.33 1471.09 958.595 1470.95 961.641C1470.82 964.688 1472.27 967.604 1473.11 970.564C1473.9 973.524 1473.86 977.18 1471.39 979.095C1474.21 979.269 1477.16 980.357 1478.83 982.62C1480.5 984.884 1480.5 988.453 1478.34 990.237C1476.19 992.065 1472.1 991.021 1471.61 988.235C1477.82 1004.95 1482.21 1022.36 1484.68 1039.99C1485.69 1047.21 1486.26 1054.96 1482.74 1061.36C1488.9 1065.93 1497.83 1066.41 1504.47 1062.53C1508.17 1060.36 1511.11 1056.96 1514.99 1055.09C1521.72 1051.82 1529.9 1053.7 1537.11 1051.56C1543.71 1049.6 1549.03 1044.34 1555.85 1043.16C1560.95 1042.29 1566.67 1043.73 1571.11 1041.16C1573.23 1039.94 1574.77 1037.94 1576.83 1036.59C1579.12 1035.07 1581.89 1034.46 1584.62 1034.33C1595.48 1033.72 1606.61 1041.12 1609.08 1051.61C1609.69 1054.22 1609.78 1057 1610.84 1059.48C1611.89 1061.97 1614.27 1064.23 1616.95 1063.97C1617.61 1055.74 1625.53 1048.78 1633.84 1049.04C1634.24 1051.69 1632.3 1054.13 1630.28 1055.87C1628.25 1057.61 1625.88 1059.22 1624.82 1061.7C1623.77 1064.19 1624.96 1067.8 1627.64 1067.97C1629 1065.4 1630.89 1063.14 1633.14 1061.31C1637.36 1065.06 1635.38 1073.28 1629.88 1074.68C1635.16 1073.15 1642.59 1072.63 1644.4 1077.77C1644.88 1079.2 1644.75 1080.81 1644.88 1082.34C1645.67 1090.3 1654.08 1094.96 1661.42 1098.22C1662.92 1098.87 1664.54 1099.57 1666.13 1099.31C1668.9 1098.83 1670.4 1095.92 1672.02 1093.65C1673.65 1091.35 1676.95 1089.34 1679.1 1091.21C1680.95 1092.82 1680.16 1095.96 1681.66 1097.87C1683.64 1100.49 1688.03 1099.09 1690.19 1096.61C1692.35 1094.13 1693.62 1090.82 1696.44 1089.04C1701.63 1085.77 1711.08 1088.34 1712.62 1082.42C1713.46 1079.2 1710.73 1076.24 1709.85 1073.06C1708.44 1068.06 1711.74 1062.97 1715.48 1059.35C1719.22 1055.74 1723.75 1052.61 1725.95 1047.91C1729.65 1040.07 1725.78 1030.76 1727.27 1022.23C1728.77 1013.65 1735.63 1005.17 1732.02 997.245C1730.61 994.154 1727.76 991.804 1726.57 988.583C1725.42 985.493 1725.91 981.75 1723.75 979.225C1722.39 977.615 1720.28 976.875 1718.61 975.656C1712.93 971.609 1712.76 963.513 1710.6 956.941C1706.64 944.971 1695.29 937.137 1687.42 927.213C1685.97 925.385 1684.6 923.427 1683.99 921.163C1683.28 918.552 1683.59 915.766 1683.37 913.068C1682.84 906.495 1678.84 900.271 1673.03 897.051C1671.76 896.354 1670.4 895.745 1669.47 894.613C1668.2 893.003 1668.28 890.783 1668.2 888.737C1667.93 881.034 1664.85 873.46 1659.66 867.759C1656.23 884.646 1652.76 901.534 1649.32 918.421C1647.35 919.945 1644.88 920.859 1642.37 921.076C1641.36 916.767 1640.4 912.458 1639.38 908.149C1634.46 908.411 1629.31 908.585 1624.87 906.452C1620.47 904.319 1617.21 898.922 1619.19 894.483C1620.29 892.045 1622.71 889.347 1621.13 887.214C1625.53 888.868 1629.35 881.773 1626.14 878.379C1621.08 873.025 1615.5 880.772 1610.26 880.511C1603.8 880.163 1597.99 871.153 1591 875.245L1590.95 875.071Z" fill="#808285" fill-opacity="0.09"/>
<path d="M1683.96 1138.77C1683.96 1139.94 1683.87 1141.35 1685.03 1141.92C1685.49 1142.16 1686.05 1142.2 1686.56 1142.24C1690.45 1142.49 1695.41 1142.04 1696.71 1138.81C1697.77 1136.23 1695.73 1133.24 1696.85 1130.7C1697.22 1129.85 1697.87 1129.13 1698.47 1128.4C1699.9 1126.5 1700.74 1124.16 1700.04 1121.98C1699.35 1119.8 1696.8 1118.03 1694.25 1118.47C1692.86 1118.71 1691.7 1119.52 1690.31 1119.84C1685.91 1120.85 1673.31 1112.66 1674.37 1121.86C1674.7 1124.73 1679.28 1126.99 1680.95 1129.37C1682.99 1132.19 1684.06 1135.5 1683.92 1138.81L1683.96 1138.77Z" fill="#808285" fill-opacity="0.09"/>
<path d="M1672.77 786.038C1669.4 786.295 1665.72 786.21 1663.1 784.154C1660.62 786.167 1662.26 790.322 1665.01 791.992C1667.76 793.663 1671.18 793.963 1674.01 795.462C1676.85 796.961 1678.98 800.773 1676.94 803.172C1679.2 803.728 1681.51 804.328 1683.77 804.885C1684.31 806.941 1681.87 808.44 1680.05 809.597C1678.23 810.753 1676.72 813.666 1678.63 814.736C1679.52 816.578 1682.35 816.278 1684.22 815.293C1686.08 814.308 1688.03 812.937 1690.03 813.537C1691.31 813.923 1692.2 815.079 1693.18 815.979C1697.21 819.962 1703.34 820.904 1708.53 823.346C1713.67 825.787 1718.37 831.698 1715.58 836.581C1714.51 838.423 1712.61 839.622 1711.19 841.207C1709.77 842.792 1708.79 845.233 1710.03 846.947C1714.56 847.247 1719.22 845.833 1722.77 843.092C1726.4 846.861 1730.75 850.416 1735.98 851.487C1741.22 852.601 1747.47 850.502 1749.51 845.705C1749.91 844.762 1750.18 843.691 1751.02 843.049C1752.18 842.149 1753.86 842.449 1755.33 842.835C1759.72 844.034 1764.02 845.576 1768.19 847.461C1768.99 847.803 1769.83 848.232 1770.19 849.003C1770.72 850.116 1770.05 851.359 1769.88 852.601C1769.21 857.098 1774.98 859.668 1779.59 860.439C1785.84 861.51 1792.19 862.067 1798.58 862.11C1798.8 859.026 1795.34 856.927 1792.23 856.242C1789.13 855.556 1785.62 855.471 1783.23 853.415C1780.43 850.973 1780.17 846.561 1777.24 844.291C1775.02 842.578 1771.16 841.464 1771.74 838.809C1772.36 835.939 1777.55 836.324 1778.57 833.583C1779.19 831.87 1777.64 830.071 1775.91 829.428C1774.18 828.786 1772.23 828.914 1770.36 828.571C1765.75 827.715 1761.98 823.774 1761.54 819.277C1761.36 817.563 1761.58 815.764 1760.87 814.222C1759.81 811.867 1756.97 810.839 1754.39 810.025C1740.82 805.784 1727.25 801.587 1713.72 797.346C1711.76 796.747 1709.64 796.147 1707.73 796.789C1702.54 798.546 1702.89 807.583 1697.44 808.526C1694.64 809.04 1692.11 806.855 1690.16 804.842C1688.21 802.872 1685.46 800.088 1685.19 797.218C1685.02 795.248 1687.1 793.534 1686.92 791.778C1686.17 785.096 1678.23 785.696 1672.86 786.081L1672.77 786.038Z" fill="#808285" fill-opacity="0.09"/>
<path d="M1019.4 913.83C1015.71 920.549 1023.27 928.358 1022.65 936.037C1022.04 943.891 1013.21 948.777 1011.36 956.456C1010.61 959.597 1011.14 962.913 1011.89 966.055C1013.29 972.076 1015.4 977.966 1018.17 983.55C1019.05 985.339 1020.06 987.128 1021.51 988.481C1026.04 992.669 1033.86 991.273 1038.25 986.954C1042.65 982.634 1044.36 976.264 1045.28 970.2C1046.21 964.091 1046.56 957.809 1049.02 952.18C1052.58 943.934 1060.44 936.997 1060 928.053C1059.78 923.603 1057.41 919.502 1056.4 915.182C1055.35 910.819 1056.22 905.278 1060.35 903.446L1061.67 911.997C1073.36 908.376 1059.04 870.069 1046.34 889.44C1041.2 897.338 1046.29 902.66 1036.06 906.718C1030.52 908.899 1022.7 907.809 1019.36 913.873L1019.4 913.83Z" fill="#808285" fill-opacity="0.09"/>
<path d="M1067.85 690.653C1050.67 702.336 1028.21 705.793 1008.28 699.886C1006.05 699.229 1003.61 698.266 1002.61 696.166C1001.08 693.016 1003.52 689.427 1003.96 685.971C1005.22 675.95 991.005 671.618 986.513 662.648C984.725 659.103 984.594 654.946 984.289 651.008C981.541 615.783 963.224 584.058 947.829 552.29C946.739 549.971 945.605 547.477 946.041 544.939C946.521 542.401 949.399 540.213 951.623 541.482C949.966 547.477 953.629 554.434 959.473 556.447C962.134 546.208 963.616 532.73 954.458 527.479C951.361 525.685 947.611 525.379 944.035 525.204C929.904 524.504 915.687 525.292 901.731 527.567C899.376 527.961 896.846 528.311 894.797 527.129C893.009 526.079 892.049 524.023 890.828 522.316C887.383 517.721 878.268 515.227 873.427 519.209C868.062 523.672 872.162 533.387 861.826 534.699C855.982 535.443 850.356 532.424 845.253 529.536C839.758 526.429 834.176 523.191 830.163 518.29C828.768 516.54 827.503 514.571 825.584 513.389C821.921 511.07 817.254 512.339 812.937 512.295C808.619 512.295 803.386 509.101 804.52 504.944C804.869 503.631 805.828 502.625 806.569 501.487C811.977 493.173 804.825 481.271 795.361 478.252C785.897 475.232 775.692 478.252 766.228 481.227C752.054 485.734 737.88 490.198 723.663 494.705C718.299 496.411 712.673 498.118 707.177 497.111C702.424 496.236 697.452 493.436 693.134 495.536C687.247 498.38 688.206 507.176 684.674 512.689C681.272 517.94 674.032 519.647 670.543 524.854C666.487 530.893 668.886 538.9 668.494 546.164C667.665 560.123 656.195 570.756 646.121 580.47C636.046 590.185 625.841 602.787 628.414 616.571C629.199 620.815 631.205 624.797 631.511 629.085C631.729 632.63 630.813 636.13 629.853 639.587C626.888 650.439 623.966 661.247 621 672.099C630.9 689.69 641.89 706.668 653.796 722.902C659.684 730.91 665.92 738.874 674.076 744.562C682.231 750.251 692.611 753.401 702.206 750.863C706.48 749.726 710.492 747.45 714.94 747.013C721.09 746.356 727.152 749.288 733.345 749.026C740.541 748.719 746.821 744.212 752.621 739.88C758.422 735.548 764.745 731.085 771.941 730.866C779.181 730.647 786.944 736.948 785.418 744.037C785.069 745.569 784.327 747.144 784.545 748.676C785.025 752.045 789.386 753.226 792.701 752.745C796.059 752.308 799.635 751.039 802.688 752.526C806.831 754.583 807.311 760.447 805.915 764.866C804.04 770.861 800.071 775.937 797.411 781.625C794.751 787.314 793.66 794.534 797.411 799.522C799.373 802.104 802.339 803.723 804.738 805.867C808.794 809.455 811.192 814.487 813.155 819.52C821.572 841.049 823.404 865.115 818.737 887.738C816.687 897.759 810.32 905.898 808.314 915.131C806.09 925.545 814.332 937.185 819.217 945.674C826.631 958.582 830.992 973.241 831.952 988.119C832.301 994.026 832.213 1000.24 834.917 1005.53C836.967 1009.47 840.369 1012.54 843.204 1015.95C853.976 1029.16 855.328 1047.45 856.244 1064.52C858.511 1067.54 863.222 1067.54 866.623 1065.92C870.069 1064.3 872.816 1061.5 876.131 1059.71C884.504 1055.2 894.709 1057.56 904.13 1056.47C920.353 1054.63 934.614 1041.15 937.406 1025.01C938.191 1020.54 938.191 1015.82 940.11 1011.7C942.988 1005.49 949.966 1001.29 950.882 994.508C951.231 991.838 950.577 989.038 951.143 986.369C952.975 978.011 965.753 975.385 966.844 966.853C967.367 962.783 964.881 959.02 963.311 955.213C958.601 943.923 962.57 929.658 972.383 922.438C976.046 919.725 980.364 917.975 984.114 915.35C1002.17 902.791 1001.78 875.53 994.145 854.876C991.179 846.825 987.341 838.686 987.908 830.065C988.257 824.421 990.525 819.038 993.142 814.05C999.771 801.448 1008.93 790.202 1019.88 781.188C1027.03 775.324 1035.27 770.03 1039.33 761.715C1041.81 756.64 1042.51 750.864 1044.47 745.525C1048.05 735.811 1055.46 728.197 1061.26 719.664C1067.06 711.131 1071.34 700.236 1067.59 690.609L1067.85 690.653ZM962.657 900.516C962.177 904.06 958.209 907.386 955.156 905.548C955.025 896.096 953.019 886.732 951.013 877.499C950.053 873.079 949.05 868.616 948.091 864.197C947.654 862.14 947 859.821 945.169 858.814C943.86 858.114 942.159 858.202 940.938 857.326C939.107 856.014 939.237 853.169 937.755 851.463C935.792 849.275 932.085 850.063 929.599 848.487C927.113 846.956 926.546 843.63 926.197 840.742L922.447 808.668C922.316 807.443 922.185 806.086 922.839 805.036C923.581 803.854 925.02 803.373 926.328 802.892C931.911 800.748 936.621 796.415 939.237 791.033C940.328 788.714 941.069 786.264 942.595 784.207C948.047 776.812 955.33 779 955.941 786.264C956.813 796.328 952.801 795.059 947.175 798.603C942.857 801.316 935.443 805.867 932.478 810.418C927.985 817.244 931.954 819.17 935.051 825.777C937.885 831.947 935.181 840.217 939.673 845.293C942.596 848.575 947.436 849.188 951.143 851.55C956.944 855.226 959.081 862.709 959.473 869.535C959.866 876.405 958.95 883.406 960.695 890.057C961.567 893.514 963.18 896.971 962.701 900.516H962.657Z" fill="#808285" fill-opacity="0.09"/>
<path d="M667.246 322.744C667.246 326.992 671.258 330.802 670.136 334.919C669.015 338.948 663.408 340.787 663.149 344.991C662.89 349.677 669.274 351.341 673.803 350.421C682.171 348.713 689.762 343.546 694.55 336.364C696.88 332.86 697.785 326.817 693.86 325.416C699.252 323.489 704.644 321.562 710.035 319.635C714.263 323.314 718.835 329.488 715.341 333.868C713.098 336.714 707.792 338.685 709.388 341.926C710.035 343.239 711.761 343.94 712.063 345.385C712.365 346.918 710.941 348.188 709.777 349.195C704.687 353.531 701.667 360.319 701.84 367.106C709.518 359.924 720.043 355.983 730.481 356.465C732.94 356.552 735.657 356.815 737.512 355.239C739.367 353.618 738.547 349.502 736.132 349.896L744.888 343.502C745.535 343.02 746.225 342.495 746.57 341.75C747.303 339.999 745.621 338.028 743.809 337.415C741.998 336.802 740.014 336.889 738.288 336.057C734.492 334.262 733.845 329.182 732.508 325.153C731.214 321.08 726.513 317.007 723.278 319.723C724.097 315.825 724.874 311.621 723.364 307.986C721.854 304.308 717.023 301.811 713.874 304.176C712.063 301.417 716.29 298.877 718.49 296.469C720.905 293.841 720.862 289.243 718.36 286.659C715.859 284.119 711.243 284.119 708.785 286.703C709.13 279.214 710.682 269.974 717.756 267.653C719.697 267.04 721.811 267.084 723.709 266.383C725.65 265.726 727.462 263.931 727.16 261.872C727.505 264.281 731.301 264.368 732.724 262.442C734.147 260.515 733.845 257.843 733.457 255.435C727.979 253.858 725.607 263.23 720.172 264.982C717.67 265.814 714.823 264.85 712.408 265.857C706.671 268.31 708.224 279.127 702.228 280.835C700.805 281.229 699.252 280.966 697.872 281.535C695.154 282.718 694.852 286.571 695.499 289.506C696.146 292.44 697.354 295.637 696.06 298.352C695.37 299.841 693.946 301.33 694.507 302.906C695.24 304.964 698.217 304.395 700.244 305.14C705.377 306.979 702.573 313.11 699.899 315.519C696.578 318.54 690.97 317.752 687.045 317.183C681.179 316.351 667.203 311.139 667.16 322.701L667.246 322.744Z" fill="#808285" fill-opacity="0.09"/>
<path d="M797.674 445.7C796.874 445.143 796.073 444.543 795.273 443.986C797.774 443.471 799.474 441.243 799.624 439.015C799.774 436.786 798.674 434.644 797.224 432.844C795.473 430.659 792.473 428.559 789.572 429.459C785.822 430.573 785.772 435.072 787.022 438.286C788.272 441.5 790.022 445.228 787.772 447.971C789.172 447.671 790.723 448.057 791.723 448.957C786.322 451.956 785.022 461.427 793.023 461.984C801.024 462.541 802.574 453.756 794.523 452.128C794.673 451.699 797.824 445.786 797.724 445.7H797.674Z" fill="#808285" fill-opacity="0.09"/>
<path d="M812.015 42.5096C815.739 44.7045 820.295 45.1434 824.15 47.1188C828.662 49.4453 831.991 53.9227 832.867 58.9269C833.393 61.9996 833.13 65.3796 834.839 67.9695C837.292 71.7446 843.206 72.0079 846.798 69.2864C850.391 66.5648 851.88 61.7801 851.88 57.2588C851.88 53.7032 851.267 49.5769 853.764 47.1188C854.859 46.0652 856.348 45.5385 857.794 45.0556C860.598 44.0899 863.577 43.212 866.512 43.6948C869.447 44.1777 872.251 46.592 872.207 49.5769C872.119 53.1764 868.133 56.5126 869.71 59.717C875.361 59.6292 881.056 59.5414 886.707 59.4975C888.679 57.5222 887.277 53.9227 884.955 52.3863C882.633 50.806 879.742 50.4988 877.201 49.3575C874.66 48.2162 872.251 45.6263 872.952 42.9486C874.003 38.8663 879.786 39.393 883.991 39.5247C895.206 39.9198 905.545 29.3408 904.888 18.1472C894.943 16.6109 890.037 27.541 881.757 30.3943C874.923 32.7647 871.199 28.7701 864.935 29.3408C858.276 29.9553 856.699 34.2133 851.573 35.4423C843.6 37.3738 837.818 33.3792 829.538 32.2818C823.098 31.4039 795.061 32.5891 811.971 42.5535L812.015 42.5096Z" fill="#808285" fill-opacity="0.09"/>
<path d="M680.15 218.537C675.432 220.495 671.022 223.164 667.141 226.501C663.525 229.571 659.512 233.487 654.881 232.508C650.163 231.573 647.957 226.279 645.885 221.919C643.812 217.558 639.623 212.842 635.08 214.399C637.55 211.418 640.02 208.393 642.489 205.412L624.849 202.831C623.394 202.609 621.851 202.342 620.924 201.23C618.72 198.649 622.027 194.778 625.246 193.8C632.567 191.619 640.637 194.912 646.105 200.251C648.399 202.476 651.309 205.323 654.264 204.077C656.204 203.232 657.042 200.963 658.321 199.317C661.452 195.312 667.273 194.778 672.3 195.357C680.812 196.336 697.746 190.062 701.053 200.34C704.758 211.819 686.942 215.734 680.106 218.537H680.15Z" fill="#808285" fill-opacity="0.09"/>
<path d="M248.855 708.861C245.832 716.963 255.601 726.423 263.617 723.182C265.938 722.218 267.953 720.51 270.406 720.072C277.284 718.846 281.27 727.518 282.715 734.394C284.38 742.233 286.001 750.598 283.11 758.043C279.605 766.978 270.056 773.197 268.917 782.744C267.997 790.54 273.122 798.555 270.494 805.956C269.311 809.285 266.639 811.956 265.369 815.285C263.135 821.241 265.807 827.81 268.435 833.635C277.196 852.905 286.001 872.176 294.761 891.446C296.733 895.782 298.835 900.293 302.646 903.183C305.669 905.461 309.436 906.512 312.633 908.57C317.846 911.899 321.044 917.548 324.022 922.979C329.542 933.008 335.105 943.213 337.47 954.424C340.668 969.709 337.645 985.52 334.623 1000.85C330.199 1023.23 325.775 1045.65 321.35 1068.03C316.488 1092.69 311.626 1117.3 306.764 1141.96C311.976 1138.81 315.831 1133.51 317.277 1127.59C319.773 1143.62 316.62 1160.44 308.472 1174.46C307.771 1168.41 307.07 1162.37 306.369 1156.32C300.412 1169.2 297.346 1183.35 297.433 1197.54C297.433 1200.08 297.652 1202.88 299.448 1204.72C301.113 1206.47 303.741 1206.86 305.888 1207.96C310.531 1210.41 312.546 1216.89 310.049 1221.54C312.502 1222.11 314.999 1222.67 317.452 1223.24C321.263 1226.27 312.239 1230.51 312.283 1235.38C312.283 1237.35 313.904 1238.92 315.393 1240.24C322.358 1246.37 329.323 1252.54 336.331 1258.67C341.193 1260.12 346.231 1261.57 351.225 1260.78C356.218 1259.99 361.168 1256.31 361.606 1251.27C362.219 1244.35 355.035 1239.71 350.392 1234.54C343.165 1226.53 341.412 1214.75 343.208 1204.11C345.048 1193.46 349.998 1183.65 354.86 1174.06C351.706 1172.88 348.552 1171.7 345.355 1170.47C345.574 1163.37 352.845 1158.95 357.401 1153.52C365.724 1143.62 364.804 1127.29 355.43 1118.4C358.89 1115.94 362.351 1113.49 365.855 1111.08C368.702 1115.64 371.55 1120.19 374.397 1124.75C381.493 1119.05 384.165 1108.41 380.617 1100C396.737 1104.12 414.959 1090.94 416.054 1074.29C412.068 1074.16 408.914 1069.56 410.228 1065.8C411.542 1062.03 416.843 1060.37 420.084 1062.69C418.288 1067.29 423.588 1072.32 428.495 1071.71C433.401 1071.1 437.08 1066.72 438.701 1062.03C440.365 1057.39 440.497 1052.35 441.417 1047.49C442.906 1039.7 446.41 1032.29 451.535 1026.25C455.784 1021.21 461.26 1016.92 463.757 1010.83C465.596 1006.37 465.596 1001.42 466.385 996.644C468.925 981.096 480.358 967.344 495.208 962.001C495.821 968.965 506.816 967.519 511.941 962.789C519.65 955.738 524.819 946.016 526.396 935.724C527.754 926.702 526.571 916.935 530.82 908.833C532.616 905.417 535.376 902.439 536.427 898.716C537.303 895.519 536.865 892.147 537.04 888.818C537.96 871.037 557.015 856.978 554.825 839.329C553.379 827.854 543.392 819.621 534.193 812.657C520.088 802.015 505.107 790.978 487.586 788.788C476.46 787.387 464.457 789.577 454.47 784.54C458.938 784.277 462.092 779.635 462.311 775.168C462.53 770.7 460.603 766.452 458.719 762.423C457.449 759.708 456.179 756.948 454.908 754.233C449.739 743.153 441.241 730.145 429.152 731.897C425.56 732.423 421.617 734.218 418.551 732.248C415.748 730.452 415.441 726.554 413.908 723.576C407.95 711.97 385.304 716.7 381.887 704.087C381.011 700.802 381.756 696.817 379.39 694.364C377.463 692.393 374.353 692.35 371.593 692.437C359.065 692.919 346.581 693.357 334.053 693.839C333.615 698.744 330.418 703.342 325.95 705.401C326.607 708.291 327.264 711.182 327.921 714.028C326.913 719.153 318.284 718.539 316.05 713.81C313.816 709.08 315.962 703.518 318.634 699.007C321.263 694.496 324.504 689.941 324.46 684.685C318.766 681.97 313.028 687.882 308.91 692.656C304.792 697.43 296.776 701.59 293.009 696.51C293.491 701.722 293.973 706.89 294.455 712.101C286.395 719.153 271.852 716.043 267.34 706.364C264.23 710.218 260.77 714.291 255.995 715.649C251.22 717.007 244.956 713.985 245 709.036C247.453 719.766 258.054 727.999 269.049 727.737" fill="#808285" fill-opacity="0.09"/>
<path d="M710.593 -2.89199C704.306 8.0443 693.609 16.3996 681.472 19.8117C675.753 21.4303 669.378 22.174 665.056 26.286C662.393 28.8233 660.865 32.3229 659.424 35.735C656.586 42.428 653.705 49.296 653.574 56.5577C653.399 63.8194 656.63 71.6498 663.135 74.7994C654.054 79.3052 653.137 94.3535 661.651 99.9091C658.202 108.571 643.663 103.715 636.809 110.058C631.482 114.957 633.534 123.794 636.765 130.312C639.952 136.83 644.056 144.092 641.437 150.872C631.701 147.066 621.965 143.261 612.185 139.455C608.517 147.416 619.083 157.303 626.767 153.06C619.389 166.358 599.742 163.733 585.902 170.033C571.145 176.726 563.199 194.005 548.311 200.348C540.977 203.454 532.638 203.629 525.303 206.779C517.968 209.928 511.681 218.415 515.13 225.633C515.829 227.076 516.877 228.476 516.658 230.051C516.484 231.713 514.999 232.851 513.733 233.901C501.771 244.137 501.64 262.291 502.469 278.039C498.191 281.233 492.166 276.902 489.808 272.09C487.45 267.278 486.228 261.416 481.731 258.573C477.234 255.729 471.209 257.086 466.319 255.073C461.823 253.236 458.985 248.861 456.365 244.793C451.519 237.094 446.629 229.395 441.783 221.696C437.679 215.221 433.488 208.485 432.353 200.917C431.217 193.349 433.924 184.6 440.735 181.1C445.538 178.607 453.309 174.845 449.86 170.689C449.074 169.77 447.895 169.333 446.76 168.895C437.941 165.746 429.165 162.64 420.346 159.49C423.752 148.86 436.064 141.992 446.891 144.66C450.864 138.274 441.652 131.274 434.143 131.406C426.633 131.537 418.251 134.249 412.138 129.875C417.814 121.957 417.508 110.714 412.924 102.096C408.34 93.4786 400.132 87.2668 391.225 83.3297C387.252 81.5799 383.018 80.2238 378.695 80.1363C371.841 80.0488 365.248 83.1985 358.394 83.2422C348.701 83.286 339.839 76.9867 334.25 69.0251C328.662 61.0634 325.824 51.527 323.073 42.2093C330.888 46.54 341.192 46.8025 348.483 41.5968C355.774 36.3912 358.743 25.4549 353.984 17.8432C363.851 15.6122 373.762 13.425 383.629 11.194C386.117 10.6253 388.693 10.0566 390.833 8.65673C393.583 6.90693 395.46 4.01975 397.949 1.91998C402.752 -2.10458 409.388 -2.97948 415.631 -3.6794C432.309 -5.5167 448.987 -7.39774 465.664 -9.23504C468.852 -9.585 472.17 -9.93496 475.27 -9.1038C483.477 -6.91654 490.9 3.05735 498.278 -1.18593C498.584 -4.42307 497.623 -7.7477 495.615 -10.3287C505.001 -14.6594 515.829 -13.3471 526.176 -13.1721C547.002 -12.8659 567.565 -17.6779 588.391 -17.9841C608.823 -18.2903 629.256 -14.1782 647.985 -5.9979C641.742 -1.66712 634.582 1.39504 627.116 2.88237C632.006 2.57616 636.94 3.40732 641.437 5.3321C637.857 3.80102 621.659 16.6184 619.083 18.9368C627.902 25.8048 647.287 11.5877 656.412 7.25689C673.657 -0.967201 691.295 -5.69168 710.549 -2.84824L710.593 -2.89199Z" fill="#808285" fill-opacity="0.09"/>
<path d="M-46.4799 142.93C-68.5274 152.125 -91.4061 161.275 -115.247 160.969C-125.615 160.837 -135.851 158.911 -146 157.028C-168.135 152.869 -190.489 148.666 -211.049 139.559C-216.561 137.107 -222.073 134.305 -228.066 133.955C-234.759 133.561 -241.233 136.275 -247.27 139.252C-265.511 148.315 -282.222 160.443 -296.483 175.023C-281.653 177.344 -267.874 185.75 -258.993 197.878C-265.993 201.293 -275.442 198.141 -279.029 191.223C-288.434 188.508 -299.414 195.952 -300.333 205.715C-301.251 215.479 -291.933 224.848 -282.178 223.973C-278.722 219.375 -273.386 216.267 -267.655 215.523C-264.987 220.032 -262.274 224.586 -259.606 229.095C-264.287 234.743 -272.511 235.356 -279.685 236.976C-286.859 238.596 -294.908 243.631 -294.077 250.943C-292.721 263.115 -269.361 264.122 -270.367 276.337C-270.017 272.178 -221.766 268.982 -245.126 296.697C-248.801 301.031 -254.269 304.183 -259.912 303.702C-258.337 308.168 -258.687 313.684 -262.187 316.837C-265.686 319.989 -272.554 318.851 -273.648 314.254C-277.41 322.266 -287.69 324.149 -296.483 325.024C-297.533 328.571 -298.583 332.073 -299.589 335.62C-300.289 331.198 -306.107 328.614 -309.913 330.935C-313.719 333.255 -314.068 339.56 -310.613 342.362C-307.419 344.989 -302.739 344.333 -298.626 343.588C-297.095 343.282 -295.346 342.844 -294.689 341.443C-294.296 340.567 -294.427 339.56 -294.383 338.641C-294.252 334 -290.184 330.322 -285.853 328.658C-281.522 326.994 -276.754 326.819 -272.248 325.768C-264.768 324.017 -258.031 319.945 -252.082 315.129C-245.564 309.875 -239.746 303.702 -232.353 299.761C-229.509 298.273 -226.491 297.134 -223.779 295.427C-203.787 282.992 -216.517 261.495 -186.945 257.817C-186.508 261.933 -189.351 266.136 -193.288 267.318C-183.796 274.323 -173.428 252.257 -162.317 256.197C-159.167 257.292 -157.155 260.313 -154.486 262.239C-149.5 265.829 -142.807 265.61 -136.682 266.136C-112.229 268.237 -89.9625 286.364 -82.9195 309.875C-72.2457 306.723 -63.3217 318.15 -58.0286 327.958C-49.2358 344.157 -40.4431 360.313 -31.6941 376.513C-26.1384 386.802 -20.4953 397.179 -17.6082 408.519C-13.4524 424.718 -15.1147 441.925 -11.2651 458.212C-7.41553 474.5 5.13931 491.05 21.8062 490.568C24.5184 516.05 31.955 541.05 43.6787 563.817C37.9919 569.597 47.1346 578.222 54.9649 580.499C62.7953 582.776 73.0754 588.555 69.6633 595.954C78.8935 585.709 67.126 570.21 55.9273 562.197C44.7286 554.185 31.5613 540.919 38.5605 529.01C42.3663 525.157 49.1031 529.667 50.8966 534.789C52.6902 539.912 52.5152 545.998 56.1461 550.069C59.2957 553.616 64.4576 554.535 68.5259 556.943C83.3555 565.744 80.2496 590.832 94.598 600.376C99.8474 603.879 106.759 604.667 111.265 609.045C114.546 612.198 116.033 616.664 118.177 620.648C125.701 634.746 140.88 642.758 155.185 649.895C159.341 651.997 163.54 654.054 167.696 656.156C191.581 668.109 215.466 680.105 239.35 692.058C241.625 693.197 244.294 694.379 246.7 693.415C256.498 689.519 236.463 672.049 244.819 665.569C233.095 659.921 221.371 654.229 209.647 648.581C216.953 642.058 217.915 629.58 211.703 621.961C216.034 620.954 219.621 617.277 220.54 612.942C215.378 607.557 205.929 612.023 201.905 618.284C197.88 624.588 196.261 632.469 190.881 637.592C178.632 649.195 156.978 636.891 152.254 620.692C147.53 604.492 152.954 587.329 154.747 570.516C155.491 563.73 156.06 556.024 161.397 551.821C173.645 542.189 191.712 562.46 205.973 556.155C211.441 553.747 214.634 547.924 219.753 544.903C228.589 539.649 240.619 544.509 246.787 552.784C252.911 561.059 254.617 571.655 256.192 581.856C259.079 586.628 267.128 581.374 266.691 575.814C266.254 570.254 261.66 566.094 258.642 561.409C250.943 549.457 254.442 531.681 266.079 523.537C276.446 516.313 293.463 513.467 294.163 500.857C294.6 492.714 286.858 486.015 286.551 477.871C286.289 470.691 291.713 464.692 296.788 459.613C311.136 445.209 325.441 430.804 339.789 416.4C343.157 413.028 347.226 409.394 351.95 409.92C356.675 410.445 359.343 418.282 354.837 419.858C371.723 420.515 394.383 416.443 395.739 399.543C388.915 405.541 380.822 410.051 372.16 412.722C371.242 404.709 373.604 396.347 378.591 389.955C372.292 379.096 357.243 376.119 345.257 379.841C333.271 383.562 323.691 392.406 314.548 400.988C328.328 384.744 346.701 371.128 367.873 368.676C375.835 367.757 384.365 368.282 391.277 364.254C400.901 358.65 409.431 344.464 419.143 349.981C412.056 362.415 404.969 374.893 397.883 387.328C405.538 386.758 413.193 386.189 420.805 385.62C423.911 390.918 425.442 397.135 425.092 403.308C434.453 402.652 447.314 396.478 443.159 388.072C441.015 383.781 435.503 382.73 431.829 379.709C421.724 371.391 429.598 354.359 424.523 342.275C421.986 336.233 416.43 332.117 411.4 327.958C389.877 310.313 373.035 287.02 362.93 261.101C360.481 267.274 357.768 273.754 352.431 277.695C347.094 281.635 338.346 281.723 334.846 276.075C332.921 272.966 333.052 269.069 332.046 265.61C329.771 257.686 322.204 252.651 315.204 248.36C306.674 243.106 296.656 237.677 287.208 240.961C277.759 244.244 275.571 261.232 285.458 262.808C276.271 263.159 276.578 277.432 281.827 285.006C287.076 292.581 294.425 301.994 289.395 309.7C284.933 316.53 273.646 315.874 269.141 322.704C264.81 329.271 269.534 337.765 272.815 344.902C276.096 352.038 276.009 363.291 268.31 364.823C261.704 366.137 256.936 358.474 255.711 351.863C253.786 341.443 255.142 330.191 250.287 320.777C245.431 311.364 229.858 306.942 224.958 316.355C222.29 306.81 214.547 298.798 205.054 295.865C197.355 293.457 188.781 294.201 181.476 290.786C170.539 285.663 165.64 273.097 161.747 261.67C176.008 253.483 191.231 244.288 197.618 229.139C199.324 225.067 200.461 220.47 203.698 217.449C206.629 214.734 210.741 213.771 213.978 211.451C217.215 209.13 219.271 204.008 216.384 201.293C220.584 198.71 225.702 197.747 230.558 198.535C238.869 209.787 213.41 228.964 225.396 236.188C231.826 240.085 238.825 232.073 242.15 225.33C247.356 227.432 252.561 229.533 257.811 231.635C264.548 226.162 256.63 215.698 248.931 211.757C241.231 207.773 231.476 200.636 235.326 192.887C242.238 192.755 249.106 192.624 256.017 192.493C256.455 185.881 252.08 179.27 245.868 177.125C249.412 171.652 252.955 166.179 256.498 160.706C253.261 157.16 248.056 155.54 243.375 156.722C257.33 154.664 270.978 150.373 283.62 144.112C293.944 155.934 303.699 168.281 312.755 181.109C314.198 183.167 315.729 185.444 315.642 187.939C315.511 193.456 308.861 195.776 304.093 198.491C299.281 201.162 296.394 209.699 301.731 211.057C300.987 215.129 294.907 215.085 291.451 212.808C287.995 210.531 284.845 206.897 280.733 207.16C272.947 207.598 274.215 221.39 281.696 223.71C289.176 226.031 296.788 221.214 303.131 216.617C317.698 229.796 335.108 239.822 353.787 245.864C346.263 244.288 340.751 236.101 342.151 228.526C350.9 231.066 359.256 235.006 366.736 240.216C373.079 232.467 364.943 221.214 356.631 215.698C348.319 210.137 337.864 203.263 339.177 193.325C350.113 193.062 360.962 199.279 366.211 208.868C370.367 202.957 374.479 197.09 378.635 191.179C373.954 175.68 344.076 180.409 340.926 164.515C340.314 161.45 340.926 157.948 339.002 155.452C336.027 151.599 330.034 153.482 325.178 153.351C308.205 152.825 297.881 124.322 282.221 130.934C288.782 118.63 270.147 103.087 259.254 111.757C265.247 113.989 271.766 117.098 273.953 123.096C276.14 129.095 269.753 137.326 264.198 134.174C258.555 131.021 261.267 122.089 258.161 116.398C254.399 109.48 242.981 110.881 238.432 117.273C233.839 123.666 234.407 132.378 236.245 140.04C232.482 139.953 228.677 139.865 224.915 139.778C224.083 129.051 226.183 118.149 230.864 108.473C226.446 101.862 216.341 108.21 211.485 114.515C206.367 121.126 201.073 128.088 199.455 136.319C197.836 144.55 201.205 154.358 209.035 157.335C214.066 159.217 219.84 158.035 224.871 160.006C236.288 164.515 231.782 185.838 219.534 185.356C215.728 179.139 213.541 171.915 213.147 164.647C207.242 166.398 201.73 169.463 197.136 173.578C191.143 158.78 182.788 144.9 172.508 132.641C174.958 127.913 177.407 123.184 179.857 118.455C189.7 122.746 202.298 112.194 199.849 101.774C191.668 99.4973 183.094 97.1768 174.783 99.0594C166.515 100.942 158.816 108.517 159.997 116.923C160.697 121.958 164.284 126.161 165.596 131.109C166.909 136.012 163.978 142.93 158.947 142.098C156.322 154.051 181.651 154.358 182.788 166.573C183.575 175.111 171.983 178.482 163.409 178.394C165.902 186.626 165.509 195.733 162.315 203.745C155.885 191.661 159.384 175.111 170.233 166.704C163.759 156.722 148.711 153.569 138.78 160.093C142.499 165.785 148.404 170.032 154.966 171.739C151.51 175.767 148.011 179.796 144.555 183.824C137.031 178.394 126.707 182.641 117.477 183.211C108.203 183.736 96.9602 173.535 103.522 166.923C97.9663 163.552 90.3984 162.414 85.1053 166.179C79.8121 169.988 79.3747 179.62 85.2802 182.335C72.9879 185.487 52.6027 162.851 43.7224 180.19C38.1668 162.545 29.1991 157.291 11.5698 156.372C-0.15387 155.759 -34.8437 147.09 -40.8368 156.941C-41.3617 155.671 -46.2612 143.237 -46.0424 143.149L-46.4799 142.93Z" fill="#808285" fill-opacity="0.09"/>
<path d="M-13.5905 95.0794C-20.262 95.7827 -23.9928 103.299 -24.8706 109.98C-25.7046 116.661 -25.0901 123.825 -28.3819 129.715C-29.172 131.166 -30.2254 132.528 -30.4888 134.199C-31.2349 138.902 -25.134 141.891 -20.4815 141.143C-6.83121 138.946 1.77157 120.265 15.3779 122.595C15.5096 126.243 15.6413 129.935 15.773 133.583C24.7707 133.671 33.7246 132.353 42.3274 129.715C44.9609 131.43 43.4685 135.869 40.7034 137.231C37.9382 138.594 34.6024 138.155 31.4861 138.418C28.3698 138.726 24.8585 140.396 24.5074 143.473C30.5205 141.715 36.7531 139.957 42.8979 141.143C49.0428 142.33 54.8803 147.429 54.7048 153.67C46.0143 153.275 37.2798 153.582 28.6332 154.637C33.3735 160.307 42.0201 159.648 49.35 160.439C56.6799 161.23 65.4143 167.12 62.8247 174.065C72.7881 163.56 89.3791 160.044 102.722 165.582C106.058 166.988 109.218 168.878 112.773 169.582C116.329 170.285 120.498 169.494 122.473 166.461C124.448 163.428 122.473 158.286 118.874 158.417C123.571 157.758 127.653 154.022 128.75 149.451C120.718 152.088 111.018 147.605 107.77 139.781C104.829 132.704 106.585 123.562 101.274 117.98C105.882 119.386 110.447 113.892 109.35 109.189C108.252 104.486 103.205 101.585 98.3769 101.453C95.2167 101.365 91.837 102.42 89.9497 104.969C88.0624 107.518 88.4135 111.738 91.1786 113.32C87.4918 111.518 83.761 109.716 80.0741 107.914C78.5818 117.013 96.4456 122.419 92.232 130.638C89.5547 135.869 80.4691 132.572 79.4157 126.814C78.7134 123.034 79.5913 117.98 76.1238 116.265C69.4962 113.057 64.6681 129.32 58.3478 125.584C58.7428 121.935 59.1378 118.287 59.5328 114.639C51.369 113.98 42.9857 116.925 37.0165 122.551C37.7626 119.034 38.5088 115.474 39.2549 111.958C30.3888 107.035 21.6105 124.485 12.0861 121.144C21.3033 124.309 41.8884 106.332 25.6925 98.7276C21.83 96.8815 13.7101 99.7386 9.4087 99.4309C1.81546 98.9034 -6.04113 94.2443 -13.6344 95.0794H-13.5905Z" fill="#808285" fill-opacity="0.09"/>
<path d="M26.8079 58.9524C20.3699 55.7173 12.5361 59.222 7.0435 63.8948C1.5959 68.5676 -2.95126 74.5883 -9.47938 77.5987C-12.5859 79.0365 -16.2326 79.9351 -18.1235 82.7208C-7.27335 82.5861 3.53183 81.8222 14.292 80.5192C13.7067 84.1586 11.8608 87.6183 9.15952 90.1345C14.2019 91.9766 18.3889 85.6414 19.1093 80.3395C19.3344 78.6771 19.5144 76.8349 20.8201 75.8015C21.8556 74.9927 23.3413 74.9927 24.6469 74.7681C29.1941 74.0492 33.246 69.7358 32.6607 65.1528C32.1205 60.5699 26.0876 57.3349 22.3508 60.0756" fill="#808285" fill-opacity="0.09"/>
<path d="M59.7089 86.7324C61.0536 86.0287 61.7708 84.4012 61.3674 82.9936C54.6436 83.2136 48.2783 77.7593 47.5611 71.2054C43.7509 68.8302 37.9236 70.6776 36.265 74.8123C34.6065 78.9469 37.6098 84.2252 42.0475 85.017C35.5478 87.7441 29.0481 90.4712 22.5483 93.1984C34.9651 99.7522 49.7127 85.4568 63.4742 88.3159C63.4742 89.9434 63.4742 91.5709 63.4742 93.2423C57.5124 93.3303 51.6402 96.0134 47.7852 100.456C58.0503 101.336 68.6292 98.8285 77.3254 93.4183C79.7908 91.8788 82.2114 90.0753 85.125 89.6795C87.6801 89.3276 90.1903 90.1193 92.7454 90.4712C98.7521 91.307 106.372 87.964 106.148 82.0259C102.114 80.7064 97.7659 80.1785 93.5074 80.5304C92.2075 72.7889 82.3907 67.8185 75.1737 71.2054C75.3082 76.5277 77.8184 81.762 81.9424 85.1929C77.8633 88.7118 71.498 89.3276 66.7913 86.6884C64.55 85.4568 62.4881 83.4775 59.933 83.4775C57.1538 83.4775 53.5677 85.4129 52.1781 83.0816" fill="#808285" fill-opacity="0.09"/>
<path d="M66.5824 50.0083C56.5939 48.8437 46.296 50.5259 37.2357 54.7531C42.1415 56.9098 47.0032 59.0665 51.909 61.2232C53.014 61.6977 54.1631 62.2153 55.4006 62.2153C56.4613 62.2153 57.522 61.7839 58.4944 61.3526C63.2234 59.3684 67.9083 57.3842 72.6374 55.4001C71.8419 54.2354 71.0021 53.0708 70.2066 51.9062C72.328 53.2865 75.466 51.2592 75.6428 48.8005C75.7753 46.3419 73.6539 44.142 71.2231 43.4087C68.7922 42.6755 66.1846 43.0637 63.7096 43.6675C60.8368 44.3146 58.0082 45.2204 55.268 46.3419C56.6823 49.275 59.5551 51.518 62.7815 52.2944C62.8257 53.459 62.8699 54.6237 62.9583 55.7883" fill="#808285" fill-opacity="0.09"/>
<path d="M136.493 51.3412C134.34 51.4235 133.066 49.036 132.935 47.0189C132.847 45.0018 133.286 42.8201 132.232 41.05C129.596 36.7277 122.523 39.9385 117.295 39.1152C114.176 38.6624 111.628 36.6042 108.641 35.5751C105.698 34.546 101.48 35.1223 100.646 37.9626C99.6793 41.1323 103.853 43.7257 107.367 43.7669C110.882 43.8492 114.528 42.6554 117.91 43.6845C118.525 43.8904 119.14 44.1785 119.536 44.6725C122.04 47.801 113.078 50.0651 113.913 53.8934C114.308 55.787 116.812 56.3633 118.877 56.5691C121.908 56.8573 124.895 57.1866 127.927 57.4748C131.046 57.8041 134.56 58.0099 137.064 56.2398C139.568 54.4697 139.656 49.8593 136.581 49.1595" fill="#808285" fill-opacity="0.09"/>
<path d="M152.699 83.0401C154.506 80.8718 153.421 77.2734 151.117 75.6126C148.858 73.9518 145.876 73.7673 143.12 73.7212C134.988 73.675 126.855 74.7361 118.994 76.9043C116.554 77.5502 114.024 78.3345 111.585 77.827C109.145 77.2734 106.841 74.8745 107.383 72.3833C104.039 76.2585 108.061 82.671 112.94 84.0089C117.819 85.3467 123.015 83.8243 128.075 84.1011C133.136 84.3779 138.919 87.9302 138.376 93.051C138.241 94.2966 137.789 95.5883 138.286 96.6955C138.873 98.0333 140.545 98.4485 141.991 98.3563C148.723 98.0333 153.873 89.96 151.434 83.5475C149.807 83.8243 148.09 82.8555 147.412 81.3331C150.349 80.1337 152.653 77.4118 153.376 74.2748C147.909 72.1526 141.494 72.6601 136.389 75.6126" fill="#808285" fill-opacity="0.09"/>
<path d="M148.755 109.146C151.396 107.051 149.65 101.882 146.54 100.904C143.431 99.9265 140.109 101.696 137.553 103.884C137.383 106.818 137.212 109.752 137.042 112.685C133.933 111.987 130.61 112.685 127.969 114.594C132.527 115.945 136.275 120.182 137.34 125.211C132.996 128.47 126.095 126.189 124.136 120.834C123.242 118.366 122.901 115.013 120.558 114.175C117.278 113.011 115.319 118.692 116.853 122.138C120.856 131.125 133.123 130.566 139.981 137.224C142.451 139.646 146.157 143.045 148.244 140.251C149.905 138.016 147.733 134.896 145.731 133.034C148.159 133.36 150.715 133.592 152.929 132.428C155.144 131.264 156.635 128.191 155.443 125.863C154.804 124.652 153.654 123.907 152.674 123.069C149.053 119.856 147.733 113.896 149.607 109.286L145.689 107.47" fill="#808285" fill-opacity="0.09"/>
<path d="M272.029 86.949C263.538 81.8582 252.946 80.2919 243.317 82.685C236.358 84.4254 229.836 88.1238 222.702 88.6024C212.241 89.3421 202.218 82.8155 196.528 74.0698C204.45 68.6744 216.049 79.2476 224.409 74.5484C226.816 73.1996 228.479 70.7195 231.018 69.5882C233.6 68.4569 236.576 68.9355 239.378 69.4141C252.771 71.8072 266.12 74.1568 279.514 76.5499C281.089 70.85 276.187 64.3669 270.278 64.2363C277.281 61.4516 284.284 58.6234 291.287 55.8387C294.833 54.4029 298.597 52.793 300.523 49.5297C302.448 46.2663 301.092 40.958 297.284 40.4794C313.434 34.91 329.06 27.8612 343.941 19.5507C342.453 16.9835 340.965 14.4164 339.433 11.8057C349.806 12.85 360.53 9.71719 368.627 3.23407C357.028 2.27683 345.21 3.3646 333.962 6.45387C353.308 8.89049 373.31 5.62717 390.861 -2.72692C384.559 -8.20929 373.047 -1.07351 366.832 -6.6429C364.95 -8.29632 364.031 -10.8199 362.149 -12.4734C359.829 -14.4749 356.503 -14.7794 353.395 -14.91C321.838 -16.6069 290.149 -15.6932 258.767 -12.2558C253.602 -11.6902 247.037 -9.68866 246.775 -4.51087C239.246 -4.81544 231.718 -5.12002 224.234 -5.4246C218.806 1.79821 208.171 4.62642 199.854 1.01501C197.972 3.97375 196.09 6.9325 194.208 9.89124C199.461 13.5026 206.026 15.1561 212.372 14.4599C216.268 22.3789 228.829 24.1193 234.738 17.5492C237.364 26.5559 250.889 24.859 258.942 19.9422C266.952 15.0255 277.281 8.75995 284.81 14.4164C274.83 22.1178 262.006 26.0773 249.401 25.4246C252.552 29.2101 255.703 32.9955 258.855 36.781C251.108 37.2596 244.236 32.3429 237.452 28.6009C230.668 24.859 221.783 22.2048 215.524 26.7735C221.17 31.3856 226.86 35.9543 232.506 40.5664C216.924 32.3864 201.299 24.2498 185.717 16.0698C181.165 13.6767 175.869 11.2401 171.011 13.024C166.153 14.808 164.708 23.2491 169.698 24.5979C165.846 25.2941 162.52 28.3834 161.513 32.1253C170.748 32.865 179.852 35.4321 188.124 39.6092C184.229 40.871 180.334 42.0893 176.438 43.3511C185.323 46.2228 194.208 49.0946 203.093 51.9663C204.888 52.5319 206.989 53.1411 208.652 52.1838C210.315 51.2701 210.928 49.2251 211.847 47.5717C214.648 42.6114 221.826 40.6969 226.728 43.6122C225.59 46.2663 224.452 48.964 223.358 51.6182C227.56 51.6182 231.762 51.6617 235.964 51.7052C236.051 54.0113 236.095 56.2738 236.183 58.5799C242.266 59.4936 248.525 59.3631 254.565 58.0578C252.377 66.1508 240.516 66.8905 233.119 62.8005C225.722 58.7105 219.901 51.7052 211.76 49.4426C214.342 55.4906 218.5 60.8425 223.708 64.889C212.854 63.1486 201.561 64.2363 191.232 67.9783C190.225 65.8027 189.219 63.6707 188.212 61.4951C179.721 65.0195 180.99 77.2026 183.748 85.9483C184.579 88.5154 185.411 91.1261 187.118 93.2146C190.969 97.9138 197.885 98.4794 204.013 98.6535C213.204 98.9145 222.439 99.1756 231.631 99.4366C244.455 99.7847 272.467 105.789 271.985 87.1231L272.029 86.949Z" fill="#808285" fill-opacity="0.09"/>
<path d="M171.469 77.4306C174.108 75.6921 178.842 77.1698 180.025 74.3448C180.935 72.2152 178.568 70.2159 176.475 69.0859C174.382 67.9559 171.878 66.2174 172.47 64.0009C170.604 64.2616 168.647 63.8705 167.054 62.9143L179.069 59.9155C180.571 59.5243 182.528 58.2204 181.618 57.0035C181.299 56.5689 180.753 56.395 180.207 56.2647C177.749 55.6562 175.019 55.5693 172.834 54.3089C170.65 53.005 169.421 49.7888 171.332 48.1373C169.967 48.0069 168.602 47.92 167.236 47.7896C167.191 46.7465 167.1 45.7034 167.054 44.6603C159.955 44.4865 152.901 43.9215 145.847 43.0088C144.8 47.5288 149.397 52.3531 154.221 51.8315C154.994 51.7446 155.859 51.5708 156.496 52.0054C157.088 52.3966 157.224 53.0919 157.543 53.7004C158.453 55.4823 160.956 56.3516 162.868 55.5258C162.321 56.8297 161.366 58.0031 160.182 58.8289C162.458 60.0024 165.006 60.7412 167.555 61.0455C165.507 62.5666 163.141 63.6532 160.592 64.1747C161.639 65.0005 162.685 65.7828 163.732 66.6086C161.047 66.6521 158.362 66.6955 155.722 66.739C154.903 69.1294 157.361 71.4329 159.818 72.389C162.549 73.4321 175.792 81.4725 167.828 85.0799C163.323 87.1226 161.411 79.9949 163.004 77.3002C165.507 82.8633 164.733 90.643 169.193 95.5107C172.425 99.0746 177.34 99.7265 180.434 95.0327C185.85 86.9488 172.743 84.5149 171.423 77.4306H171.469Z" fill="#808285" fill-opacity="0.09"/>
<path d="M237.252 606.263C241.005 610.043 246.827 604.373 252.132 603.686C257.265 603.041 261.448 607.337 265.287 610.774C269.126 614.21 275.121 617.089 279.132 613.824C281.03 621.771 292.157 625.723 298.713 620.826C298.109 623.618 301.818 625.551 304.665 625.036C307.512 624.52 310.013 622.759 312.903 622.544C317.043 622.244 321.055 625.895 321.098 630.062C321.184 631.566 319.071 632.124 317.561 631.737C316.095 631.351 314.456 630.577 313.162 631.394C312.256 631.952 311.911 633.069 311.264 633.928C308.935 637.064 304.104 635.861 300.395 634.616C296.686 633.327 291.467 632.983 290.044 636.592C301.646 638.868 313.722 638.697 325.238 636.076C324.289 636.978 324.979 638.74 326.187 639.255C327.395 639.771 328.775 639.47 330.026 639.169C334.943 638.009 339.859 636.806 344.776 635.647C347.752 637.451 351.677 637.451 354.653 635.647C354.437 636.978 354.265 638.353 354.049 639.685C359.829 642.176 367.29 639.771 370.525 634.401C362.33 633.069 354.179 631.694 345.984 630.363C340.118 629.375 334.08 628.387 328.947 625.38C323.901 622.415 319.89 617.604 314.283 615.8C306.476 613.265 297.549 617.217 289.958 614.124C282.625 611.117 278.011 602.01 270.075 601.881C267.487 601.838 264.77 602.783 262.441 601.71C256.489 599.003 257.308 593.376 249.588 596.297C248.164 596.855 238.503 607.423 237.209 606.134L237.252 606.263Z" fill="#808285" fill-opacity="0.09"/>
<path d="M1538.63 804.698C1535.23 805.047 1530.73 805.352 1529.4 802.212C1528.61 800.38 1529.49 798.287 1529.53 796.281C1529.62 793.01 1527.5 790.131 1525.96 787.253C1523.26 782.15 1522.34 776.218 1523.26 770.549C1523.48 769.109 1523.88 767.626 1524.9 766.58C1525.56 765.926 1526.4 765.489 1527.19 765.053C1530.37 763.396 1533.55 761.739 1536.73 760.125C1540.88 757.988 1545.08 755.807 1548.96 753.234C1558.72 746.779 1566.71 737.751 1571.84 727.327C1573.6 725.452 1576.91 727.196 1578.11 729.508C1579.3 731.776 1579.61 734.567 1581.42 736.399C1584.24 739.19 1590.38 739.801 1589.9 743.726C1589.72 745.253 1588.39 746.386 1587.29 747.52C1583.49 751.489 1581.9 757.421 1583.27 762.698C1584.64 767.975 1588.84 772.468 1594.09 774.168C1589.28 774.605 1583.1 776.48 1583.1 781.234C1583.1 784.243 1585.79 787.384 1584.11 789.913C1582.39 792.53 1577.75 791.309 1575.68 793.664C1574.04 795.583 1575.06 798.461 1575.41 800.947C1576.3 807.184 1571.39 813.596 1565.12 814.555C1562.47 814.948 1559.38 814.25 1558.06 811.938C1557.35 810.717 1557.26 809.278 1556.69 808.013C1554.39 802.91 1550.91 805.963 1547.51 805.919C1545.12 805.919 1541.81 804.349 1538.63 804.698Z" fill="#808285" fill-opacity="0.09"/>
<path d="M1664 107.57C1661.24 106.424 1658.31 105.633 1655.32 105.198C1653.74 104.961 1651.39 105.554 1651.75 106.938C1651.93 107.531 1652.56 107.886 1653.19 108.163C1657.31 110.139 1661.7 111.641 1666.22 112.748C1668.3 113.262 1671.2 113.302 1671.92 111.523C1672.42 110.258 1671.38 108.954 1670.2 108.123C1667.35 106.068 1663.28 105.357 1659.75 106.266" fill="#808285" fill-opacity="0.09"/>
<path d="M1985 229.059C1984.69 227.745 1983.64 226.737 1982.64 225.816C1975.64 219.374 1967.85 213.809 1959.44 209.383C1964.74 208.945 1970.21 208.419 1974.89 205.877C1979.62 203.379 1983.38 198.339 1982.68 193.037C1981.5 184.009 1968.72 178.751 1969.99 169.723C1970.6 165.648 1974.1 161.572 1972.22 157.935C1970.87 155.437 1967.67 154.78 1964.83 154.429C1950.04 152.457 1935.29 150.441 1920.45 148.469C1921.11 154.122 1919.53 160.389 1914.98 163.807C1910.39 167.182 1902.64 166.086 1900.5 160.827C1899.75 158.987 1899.71 156.839 1898.44 155.262C1895.82 151.887 1890.48 153.859 1886.41 155.437C1877.7 158.811 1867.77 158.811 1859.1 155.437C1857.44 154.736 1855.6 153.816 1854.9 152.15C1853.85 149.652 1855.6 146.935 1855.73 144.262C1855.95 139.661 1851.22 136.111 1846.63 135.673C1842.08 135.279 1837.61 137.119 1833.24 138.565C1820.5 142.685 1805.36 143.254 1794.9 134.884C1791.8 132.43 1789.26 129.275 1785.89 127.171C1781.16 124.191 1775.39 123.578 1769.87 123.008C1755.61 121.562 1741.34 120.116 1727.07 118.626C1725.72 118.451 1724.14 118.407 1722.96 119.196C1721.12 120.554 1721.43 123.315 1720.82 125.506C1719.68 129.757 1714.87 131.992 1710.49 132.299C1706.07 132.605 1701.65 131.554 1697.27 132.08C1694.04 132.43 1690.84 133.657 1687.6 133.438C1684.32 133.263 1680.73 130.94 1680.82 127.697C1676.71 130.283 1673.99 134.928 1673.86 139.792C1665.55 140.713 1655.09 134.753 1656.93 126.558C1657.41 124.454 1658.63 122.57 1658.85 120.423C1659.95 107.101 1627.04 104.121 1619.6 109.861C1617.59 111.439 1616.01 113.542 1614.09 115.208C1605.99 122.263 1591.55 119.459 1586.65 109.861C1575.01 108.415 1563.19 108.503 1551.51 109.993C1546.78 101.929 1534.44 105.742 1526.56 110.738C1518.69 115.777 1507.18 120.686 1501.18 113.543C1521.09 109.029 1539.95 99.9575 1555.97 87.3365C1557.59 86.0657 1559.34 84.3566 1558.95 82.2969C1558.73 80.8946 1557.5 79.8867 1556.32 79.054C1548.93 73.9268 1539.87 71.2098 1530.85 71.4289C1524.29 71.5603 1516.46 72.7874 1512.3 67.7039C1509.72 64.5925 1509.41 59.8159 1506.26 57.2303C1503.24 54.7762 1498.91 55.3459 1495.1 56.0033C1486.65 57.5371 1478.16 59.0709 1469.68 60.6047C1468.36 60.8238 1466.92 61.1305 1466 62.0946C1464.82 63.4093 1464.91 65.3813 1464.77 67.1781C1464.03 78.3529 1449.98 86.2848 1440.05 81.0699C1436.94 79.4046 1434.32 76.8191 1430.95 75.7673C1426.7 74.4965 1422.15 75.9426 1417.99 77.4326C1400.45 83.5239 1382.9 89.6153 1365.35 95.7067C1370.08 98.9057 1376.2 99.9575 1381.72 98.5113C1383.38 101.447 1379.09 104.077 1375.76 104.778C1362.37 107.583 1349.03 110.387 1335.59 113.148C1343.25 118.977 1350.69 125.156 1357.78 131.641C1361.24 129.231 1364.47 135.498 1363.16 139.529C1361.89 143.561 1359.49 148.557 1362.55 151.405C1358.44 150.047 1354.93 146.979 1352.92 143.079C1355.07 141.501 1357.12 139.88 1359.27 138.302C1354.58 139.266 1349.46 136.199 1348.06 131.641C1339.53 129.976 1331.39 126.295 1324.52 120.949C1323.16 124.148 1325 128.398 1328.33 129.582C1325.18 130.02 1322.03 130.37 1318.88 130.765C1319.93 135.673 1324.3 139.661 1329.29 140.231C1323.03 141.852 1316.03 140.362 1310.87 136.374C1315.55 129.319 1308.68 118.144 1300.28 119.108C1305.09 119.765 1305.92 126.689 1303.78 131.072C1301.63 135.498 1297.87 139.442 1297.96 144.306C1298.05 150.266 1303.6 157.453 1298.96 161.265C1304.61 165.998 1315.07 157.409 1319.8 162.975C1321.24 164.727 1321.41 167.138 1322.03 169.329C1323.86 175.902 1331.04 180.46 1337.74 179.277C1333.89 185.412 1324.7 179.364 1320.5 173.448C1316.34 167.532 1306.93 161.66 1303.25 167.926C1302.07 169.986 1302.29 172.484 1302.29 174.807C1302.07 191.854 1282.07 205.395 1266.19 199.216C1272.23 191.722 1286.45 194.702 1291.09 186.288C1292.97 182.826 1292.44 178.619 1291.88 174.763C1289.99 162.098 1288.16 149.477 1286.27 136.812C1287.37 130.984 1287.81 125.024 1287.54 119.108C1280.89 121.431 1270.17 121.124 1270.39 114.068C1264.74 123.446 1259.06 132.825 1253.41 142.203C1249.95 147.856 1247.37 156.708 1253.28 159.688C1257.22 158.066 1261.81 161.397 1262.91 165.56C1264.04 169.679 1262.6 174.018 1260.72 177.874C1252.23 154.341 1209.26 165.166 1198.05 142.816C1192.93 144.788 1197.62 152.72 1202.78 154.604C1207.99 156.489 1215.12 159.819 1213.19 164.99C1211.75 169.066 1206.15 169.066 1201.86 168.759C1189.48 167.883 1176.79 170.731 1165.93 176.866C1164.97 172.484 1163.96 168.146 1163.04 163.851C1154.03 170.249 1144.93 176.647 1135.91 183.089C1131.49 186.201 1126.85 189.4 1121.47 189.969C1116.13 190.495 1109.96 187.296 1109.26 181.95C1108.56 176.603 1116.35 171.914 1119.81 176.034C1121.3 166.217 1107.91 158.023 1099.85 163.851C1105.19 172.878 1105.32 184.798 1100.16 193.957C1098.24 197.375 1095.3 200.574 1091.45 201.188C1087.6 201.758 1083.14 198.427 1083.97 194.615C1079.07 198.953 1076.31 205.57 1076.66 212.1C1068.7 214.685 1059.2 211.618 1054.26 204.781C1054.87 208.594 1055.48 212.319 1056.09 216.131C1050.36 222.31 1037.8 217.841 1037.23 209.427C1037.1 206.929 1037.71 204.475 1037.71 201.977C1037.71 193.475 1030.23 187.165 1023.4 182.037C1033.6 185.894 1043.84 189.794 1054.04 193.65C1059.77 195.842 1065.9 198.077 1071.89 196.893C1080.69 195.228 1086.38 183.352 1078.54 177.217C1064.5 166.217 1048.3 157.935 1031.15 152.983C1026.21 151.581 1020.91 150.397 1016.05 151.975C1012.07 153.246 1006.73 155.788 1004.59 152.194C1008.57 152.764 1012.86 151.23 1015.57 148.206C1007.26 146.366 998.855 145.183 990.365 144.744C980.563 153.465 973.911 165.779 976.756 178.225C981.132 197.332 1005.9 213.371 996.842 230.724C1005.38 228.796 1014.3 226.912 1022.75 229.059C1027.3 230.155 1031.72 232.872 1034.69 236.465C1034.69 236.29 1034.69 236.071 1034.69 235.896C1037.23 235.063 1039.95 234.186 1042.53 234.888C1045.11 235.589 1047.21 238.613 1045.9 240.979C1045.02 242.644 1042.7 244.003 1043.53 245.712C1044.06 246.764 1045.5 246.939 1046.6 247.289C1049.75 248.254 1051.5 252.329 1050.05 255.265C1045.55 255.002 1041.04 254.783 1036.49 254.564C1034.96 257.851 1032.9 261.006 1031.46 264.293C1025.37 278.053 1029.79 293.829 1030.32 308.86C1030.54 316.573 1028.79 325.162 1024.98 331.823C1025.9 331.648 1026.82 331.429 1027.74 331.298C1044.76 328.405 1064.23 332.7 1074.65 346.504C1085.06 360.308 1081.56 384.016 1065.59 390.502C1059.51 392.956 1052.42 392.868 1046.86 396.374C1044.58 397.733 1042.92 400.187 1042.13 402.772C1052.46 396.9 1063.1 391.291 1074.78 389.1C1072.2 394.621 1067.12 398.828 1061.26 400.275C1063.23 401.545 1062.57 404.832 1060.6 406.103C1058.63 407.374 1056.09 407.155 1053.82 406.673C1051.54 406.234 1049.14 405.621 1046.9 406.191C1044.93 406.673 1043.36 408.206 1042.57 410.091C1042.18 410.923 1042 411.844 1042 412.764C1042 413.421 1042.13 413.991 1042.31 414.605C1048.26 409.609 1057.71 409.477 1063.8 414.342C1066.11 416.226 1067.95 418.68 1070.45 420.345C1073.2 422.186 1076.79 423.019 1078.89 425.648C1080.95 428.277 1079.51 433.58 1076.27 432.879C1076.14 434.544 1077.89 435.727 1079.46 436.034C1081.04 436.341 1082.83 436.209 1084.28 436.954C1087.65 438.707 1087.03 444.141 1084.1 446.551C1081.17 448.918 1077.06 449.137 1073.25 449.137C1063.31 449.268 1052.99 449.356 1043.88 445.324C1039.6 443.44 1035.75 440.635 1031.28 439.058C1026.86 437.48 1021.52 437.349 1017.93 440.372C1016.27 441.775 1015.13 443.791 1013.51 445.324C1009.66 449.049 1003.1 449.531 998.724 446.42C995.135 443.834 993.385 438.97 994.216 434.632C990.103 438.795 986.558 443.659 984.02 448.874C986.208 455.097 988.396 461.363 990.584 467.586C991.328 469.602 991.985 471.618 992.728 473.59C994.829 479.681 998.286 486.824 1004.68 487.219C1012.77 487.745 1020.91 476.701 1027.34 486.693C1028.57 488.621 1028.96 490.9 1028.96 493.223C1028.96 497.736 1035.13 503.433 1038.46 499.884C1038.06 496.641 1037.71 493.135 1039.2 490.199C1040.69 487.306 1044.8 485.466 1047.39 487.526C1049.14 488.884 1049.49 491.382 1049.62 493.573C1049.75 496.816 1049.62 500.147 1049.18 503.346C1048.17 511.058 1045.11 519.078 1038.63 523.197C1033.56 526.396 1026.25 528.719 1030.41 535.555C1031.37 537.045 1035.22 535.336 1036.31 536.782C1038.72 540.157 1037.06 543.706 1037.36 547.694C1038.02 556.152 1047.6 560.403 1052.86 567.108C1060.12 576.31 1058.59 589.501 1062.18 600.676C1069.48 623.551 1098.28 638.232 1096.66 662.203C1096 671.537 1091.45 683.194 1099.11 688.584C1104.23 692.134 1111.23 689.636 1116.92 686.963C1127.51 682.055 1138.14 677.103 1148.82 672.151C1153.15 670.179 1157.75 667.9 1159.98 663.649C1161.12 661.414 1161.51 658.829 1163.13 656.9C1165.5 654.096 1169.61 653.701 1173.07 652.562C1180.9 649.933 1186.15 642.527 1190.09 635.208C1194.33 627.276 1197.66 618.862 1200.02 610.142C1200.64 607.863 1201.2 605.409 1200.63 603.086C1198.58 594.628 1183.74 593.796 1183 585.119C1182.69 581.482 1185.23 578.239 1186.41 574.82C1187.59 571.358 1186.28 566.275 1182.65 566.319C1180.46 572.761 1178.1 579.466 1173.24 584.198C1168.34 588.931 1160.07 590.947 1154.73 586.784C1150.75 583.716 1149.44 578.37 1146.72 574.163C1142.61 567.633 1135.08 563.689 1131.49 556.897C1127.9 550.061 1133.16 538.579 1140.29 541.515C1143.79 554.443 1152.63 565.793 1164.31 572.279C1171.53 569.825 1178.49 566.538 1185.01 562.462C1188.25 559.877 1192.54 564.741 1192.89 568.861C1193.24 573.024 1192.58 578.107 1195.95 580.517C1197.66 581.788 1199.98 581.876 1202.12 581.876C1219.67 581.876 1237.13 579.86 1254.2 575.828C1250.7 586.039 1260.11 598.309 1270.83 597.521C1269.51 601.684 1265.36 604.795 1260.98 604.839C1263.08 608.958 1265.31 613.253 1269.08 616.014C1272.84 618.731 1278.53 619.344 1281.81 616.101C1284.92 613.078 1285.31 607.425 1289.34 605.759C1294.02 603.787 1298.66 609.659 1298.26 614.743C1297.87 619.783 1294.72 624.121 1293.01 628.941C1289.6 638.714 1292.79 649.451 1295.9 659.311C1301.98 678.33 1308.29 697.831 1320.76 713.476C1325.22 709.269 1329.73 705.062 1334.19 700.855C1340.23 701.906 1340.45 710.583 1338.52 716.368C1336.56 722.24 1334.76 730.084 1340.01 733.283C1344.74 736.132 1351.04 731.574 1352.09 726.184C1353.14 720.794 1350.69 715.448 1348.28 710.496C1345.18 704.185 1342.11 697.787 1339.05 691.433C1338 689.242 1336.86 686.919 1337.08 684.465C1337.21 682.361 1338.26 680.477 1339.14 678.549C1341.89 672.37 1342.77 665.314 1341.54 658.653C1357.95 650.283 1371.7 636.742 1380.18 620.308C1381.5 617.854 1382.72 615.269 1384.95 613.604C1391.69 608.695 1403.03 615.576 1408.98 609.747C1417.29 612.859 1424.3 619.213 1428.23 627.189C1431.12 633.017 1433.79 640.774 1440.27 641.256C1430.33 645.331 1423.64 656.112 1424.38 666.804C1434.36 669.346 1445.39 659.88 1444.38 649.626C1448.28 647.391 1453.44 650.108 1455.54 654.096C1457.6 658.084 1457.38 662.816 1457.12 667.286C1456.37 680.828 1455.54 694.325 1454.8 707.779C1454.58 711.81 1454.4 716.149 1456.63 719.479C1458.73 722.634 1462.72 724.387 1464.16 727.893C1466.35 733.064 1461.97 739.594 1464.82 744.458C1466.35 747.044 1469.37 748.183 1471.69 749.98C1476.68 753.792 1478.34 760.541 1481.93 765.712C1485.52 770.883 1493.83 774.258 1497.73 769.306C1489.41 762.776 1484.12 752.609 1483.55 742.004C1483.42 739.594 1483.55 737.052 1482.5 734.861C1481.27 732.1 1478.65 730.303 1476.41 728.288C1463.42 716.368 1464.99 695.771 1467.66 678.286C1473.7 687.138 1483.37 693.405 1493.96 695.245C1490.55 702.257 1493.52 711.635 1500.26 715.491C1500.7 708.611 1505.87 702.345 1512.47 700.548C1515.36 699.759 1518.42 699.715 1521.14 698.532C1529.28 695.026 1530.15 683.983 1529.76 675.131C1529.63 671.625 1529.41 667.987 1527.53 665.095C1524.38 660.319 1518.03 659.179 1513.04 656.375C1504.11 651.335 1499.78 639.415 1503.37 629.73C1506.92 620.089 1517.99 613.91 1528.05 615.926C1531.38 617.372 1529.89 622.675 1527 624.866C1524.11 627.057 1520.13 628.372 1518.77 631.746C1516.85 636.435 1522.54 641.65 1527.48 640.555C1532.43 639.503 1535.58 634.288 1535.93 629.204C1536.24 624.165 1534.4 619.257 1532.56 614.48C1543.19 616.803 1554.92 613.078 1562.23 605.014C1564.29 602.735 1566.12 600.106 1568.79 598.572C1573.96 595.549 1581.35 597.214 1585.6 592.919C1588.84 589.676 1588.62 584.461 1589.62 579.948C1591.5 571.578 1597.94 565.179 1601.74 557.554C1605.51 549.929 1609.23 538.185 1607.21 529.771C1605.77 523.635 1602.58 518.07 1600.39 512.198C1598.81 508.035 1597.76 503.696 1597.19 499.226C1596.97 497.43 1596.8 495.414 1597.63 493.836C1599.12 490.944 1602.79 490.286 1605.55 488.577C1609.67 486.036 1611.81 480.733 1610.58 476.088C1599.21 479.9 1585.9 477.008 1577.15 468.813C1579.69 463.905 1585.29 461.626 1590.15 458.997C1595.05 456.411 1600.13 452.204 1599.91 446.639C1603.01 446.639 1606.08 446.639 1609.14 446.639C1609.36 451.679 1607 456.806 1603.01 459.917C1607.21 463.555 1613.56 460.093 1618.5 457.507C1623.45 454.921 1631.72 454.921 1632.33 460.443C1632.9 465.789 1624.85 469.383 1625.94 474.642C1631.59 472.714 1637.67 480.295 1634.61 485.422C1633.78 486.781 1632.42 488.139 1632.64 489.761C1632.9 491.733 1635.22 492.478 1636.93 493.442C1641.7 495.983 1643.8 502.557 1641.35 507.377C1644.67 504.792 1648 502.206 1651.33 499.577C1652.07 502.644 1655.53 504.704 1658.63 504.003C1661.7 503.258 1663.84 499.84 1663.14 496.772C1662.48 493.748 1659.68 491.645 1658.76 488.709C1657.41 484.283 1660.52 479.375 1658.98 475.036C1657.8 471.618 1654.17 469.821 1651.19 467.674C1648.22 465.527 1645.59 461.67 1647.39 458.471C1648.44 456.499 1650.76 455.71 1652.64 454.571C1662 448.742 1664.02 432.134 1675.04 431.783C1677.28 431.695 1679.46 432.397 1681.61 432.09C1687.87 431.213 1690.05 423.588 1693.03 417.935C1699.55 405.402 1714.69 399.31 1721.56 386.909C1726.81 377.399 1726.2 365.786 1729.31 355.312C1731.58 347.731 1735.87 339.843 1733.2 332.349C1729.92 323.015 1714.87 321.175 1709.44 329.457C1710.31 324.768 1711.19 320.123 1712.11 315.39C1708.83 325.995 1686.95 316.442 1705.98 306.056C1718.67 299.176 1730.05 289.71 1739.2 278.491C1742.3 274.679 1745.24 270.603 1749.31 267.842C1764.27 257.719 1784.88 270.253 1802.39 265.87C1803 267.579 1803.57 269.332 1804.18 271.041C1799.45 273.013 1794.82 274.985 1790.13 276.957C1800.02 281.603 1810.66 270.603 1821.55 271.041C1824.75 271.173 1829.34 271.173 1829.52 268.061C1826.59 267.623 1822.78 266.002 1823.3 263.066C1823.48 262.014 1824.27 261.137 1825.01 260.392C1827.86 257.369 1830.7 254.389 1833.59 251.365C1838.36 246.325 1846.1 240.935 1851.57 245.317C1855.69 248.648 1853.81 256.667 1848.6 257.763C1852.01 261.181 1857.79 258.07 1861.2 254.608C1864.61 251.19 1868.99 247.07 1873.54 248.823C1874.81 246.282 1874.81 243.17 1873.63 240.672C1877.26 238.656 1881.72 238.174 1885.71 239.401C1883.3 241.417 1881.64 244.397 1881.16 247.509C1880.81 249.524 1880.98 251.628 1880.37 253.556C1878.18 260.831 1868.47 261.663 1861.59 265.038C1849.52 270.91 1845.27 286.423 1834.42 294.267C1831.75 296.239 1828.73 297.686 1826.5 300.14C1821.73 305.442 1822.34 313.681 1824.53 320.473C1826.81 327.266 1830.48 333.752 1830.88 340.895C1830.96 342.253 1830.87 343.568 1830.79 344.883C1830.31 349.616 1836.13 352.289 1839.45 348.914C1840.24 348.082 1841.07 347.249 1841.86 346.46C1845.71 342.472 1849.74 338.353 1851.71 333.182C1853.06 329.501 1853.67 325.031 1857.04 323.103C1859.54 321.7 1862.65 322.314 1865.45 321.788C1868.29 321.306 1871.31 318.458 1869.87 315.916C1865.23 312.629 1866.06 304.303 1871.18 301.893C1873.32 302.9 1875.47 303.908 1877.61 304.96C1882.69 302.638 1875.03 294.267 1877.79 289.403C1878.84 287.519 1881.42 286.379 1881.33 284.232C1881.24 281.559 1877.48 281.077 1874.81 281.515C1873.06 272.794 1879.06 263.285 1887.63 261.137C1887.5 262.934 1887.33 264.775 1887.19 266.571C1891.44 263.898 1895.68 261.225 1899.93 258.464C1900.67 260.524 1901.42 262.584 1902.16 264.731C1907.24 267.36 1911.22 255.747 1916.51 257.895C1917.65 258.377 1918.44 259.428 1919.4 260.173C1923.21 263.285 1929.99 260.918 1931.04 256.098C1934.98 237.911 1957.04 237.079 1975.5 235.545C1979.79 235.194 1985.74 233.31 1984.74 229.103L1985 229.059ZM1168.82 450.846C1165.71 453.651 1161.25 454.396 1157.09 453.738C1156.09 454.571 1156.83 456.324 1157.92 456.981C1159.02 457.682 1160.42 457.858 1161.38 458.778C1163.09 460.443 1162.43 463.248 1162.69 465.614C1163.18 469.427 1166.46 472.363 1167.33 476.088C1168.91 482.793 1161.69 488.972 1154.77 489.016C1140.38 489.147 1130.27 477.446 1126.55 464.869C1124.4 457.682 1120.29 438.181 1131.32 437.086C1127.99 432.703 1131.45 427.883 1129.39 423.194C1128.25 420.652 1125.41 419.425 1123.49 417.409C1119.68 413.334 1120.25 406.497 1123.49 401.94C1126.72 397.382 1131.93 394.709 1137.14 392.649C1142.21 390.677 1147.99 389.144 1152.98 391.203C1158.01 393.263 1161.08 400.45 1157.31 404.394C1153.24 408.645 1144.93 406.191 1141.25 410.792C1138.93 413.64 1139.72 418.11 1142.04 420.959C1144.4 423.807 1147.95 425.385 1151.36 426.7C1153.29 427.445 1155.34 428.365 1156.09 430.205C1157.27 433.01 1154.86 435.859 1153.33 438.444C1151.84 441.074 1152.15 445.675 1155.17 445.675C1158.1 445.675 1158.58 441.468 1160.2 439.014C1162.48 435.552 1168.43 436.121 1170.75 439.583C1173.02 443.046 1171.8 448.041 1168.78 450.802L1168.82 450.846ZM1528.14 316.836C1527.48 318.107 1526.7 319.378 1526.26 320.736C1525.82 322.27 1525.82 323.935 1525.43 325.469C1524.29 330.071 1520.04 333.05 1516.19 335.855C1513.52 337.783 1510.85 339.931 1509.28 342.779C1508.62 343.962 1508.18 345.277 1507.44 346.46C1503.63 352.858 1492.3 354.173 1499.43 345.233C1503.85 339.668 1510.42 331.517 1515.89 326.696C1517.77 325.031 1520.04 323.672 1521.31 321.525C1523.37 318.019 1522.23 313.593 1522.36 309.518C1522.49 305.442 1525.56 300.578 1529.5 301.717C1530.94 306.669 1530.46 312.191 1528.14 316.836ZM1038.72 246.062C1038.72 246.501 1038.72 246.895 1038.72 247.377C1038.59 248.955 1038.28 250.445 1037.76 251.891C1038.37 251.891 1038.94 251.891 1039.42 251.891C1040.34 249.919 1039.77 248.034 1038.72 246.062ZM1008.83 343.305C1016.1 342.779 1021.52 338.178 1025.16 331.823C1018.28 333.489 1011.5 336.863 1008.83 343.305Z" fill="#808285" fill-opacity="0.09"/>
<path d="M1985 229.059C1984.69 227.745 1983.64 226.737 1982.64 225.816C1975.64 219.374 1967.85 213.809 1959.44 209.383C1964.74 208.945 1970.21 208.419 1974.89 205.877C1979.62 203.379 1983.38 198.339 1982.68 193.037C1981.5 184.009 1968.72 178.751 1969.99 169.723C1970.6 165.648 1974.1 161.572 1972.22 157.935C1970.87 155.437 1967.67 154.78 1964.83 154.429C1950.04 152.457 1935.29 150.441 1920.45 148.469C1921.11 154.122 1919.53 160.389 1914.98 163.807C1910.39 167.182 1902.64 166.086 1900.5 160.827C1899.75 158.987 1899.71 156.839 1898.44 155.262C1895.82 151.887 1890.48 153.859 1886.41 155.437C1877.7 158.811 1867.77 158.811 1859.1 155.437C1857.44 154.736 1855.6 153.816 1854.9 152.15C1853.85 149.652 1855.6 146.935 1855.73 144.262C1855.95 139.661 1851.22 136.111 1846.63 135.673C1842.08 135.279 1837.61 137.119 1833.24 138.565C1820.5 142.685 1805.36 143.254 1794.9 134.884C1791.8 132.43 1789.26 129.275 1785.89 127.171C1781.16 124.191 1775.39 123.578 1769.87 123.008C1755.61 121.562 1741.34 120.116 1727.07 118.626C1725.72 118.451 1724.14 118.407 1722.96 119.196C1721.12 120.554 1721.43 123.315 1720.82 125.506C1719.68 129.757 1714.87 131.992 1710.49 132.299C1706.07 132.605 1701.65 131.554 1697.27 132.08C1694.04 132.43 1690.84 133.657 1687.6 133.438C1684.32 133.263 1680.73 130.94 1680.82 127.697C1676.71 130.283 1673.99 134.928 1673.86 139.792C1665.55 140.713 1655.09 134.753 1656.93 126.558C1657.41 124.454 1658.63 122.57 1658.85 120.423C1659.95 107.101 1627.04 104.121 1619.6 109.861C1617.59 111.439 1616.01 113.542 1614.09 115.208C1605.99 122.263 1591.55 119.459 1586.65 109.861C1575.01 108.415 1563.19 108.503 1551.51 109.993C1546.78 101.929 1534.44 105.742 1526.56 110.738C1518.69 115.777 1507.18 120.686 1501.18 113.543C1521.09 109.029 1539.95 99.9575 1555.97 87.3365C1557.59 86.0657 1559.34 84.3566 1558.95 82.2969C1558.73 80.8946 1557.5 79.8867 1556.32 79.054C1548.93 73.9268 1539.87 71.2098 1530.85 71.4289C1524.29 71.5603 1516.46 72.7874 1512.3 67.7039C1509.72 64.5925 1509.41 59.8159 1506.26 57.2303C1503.24 54.7762 1498.91 55.3459 1495.1 56.0033C1486.65 57.5371 1478.16 59.0709 1469.68 60.6047C1468.36 60.8238 1466.92 61.1305 1466 62.0946C1464.82 63.4093 1464.91 65.3813 1464.77 67.1781C1464.03 78.3529 1449.98 86.2848 1440.05 81.0699C1436.94 79.4046 1434.32 76.8191 1430.95 75.7673C1426.7 74.4965 1422.15 75.9426 1417.99 77.4326C1400.45 83.5239 1382.9 89.6153 1365.35 95.7067C1370.08 98.9057 1376.2 99.9575 1381.72 98.5113C1383.38 101.447 1379.09 104.077 1375.76 104.778C1362.37 107.583 1349.03 110.387 1335.59 113.148C1343.25 118.977 1350.69 125.156 1357.78 131.641C1361.24 129.231 1364.47 135.498 1363.16 139.529C1361.89 143.561 1359.49 148.557 1362.55 151.405C1358.44 150.047 1354.93 146.979 1352.92 143.079C1355.07 141.501 1357.12 139.88 1359.27 138.302C1354.58 139.266 1349.46 136.199 1348.06 131.641C1339.53 129.976 1331.39 126.295 1324.52 120.949C1323.16 124.148 1325 128.398 1328.33 129.582C1325.18 130.02 1322.03 130.37 1318.88 130.765C1319.93 135.673 1324.3 139.661 1329.29 140.231C1323.03 141.852 1316.03 140.362 1310.87 136.374C1315.55 129.319 1308.68 118.144 1300.28 119.108C1305.09 119.765 1305.92 126.689 1303.78 131.072C1301.63 135.498 1297.87 139.442 1297.96 144.306C1298.05 150.266 1303.6 157.453 1298.96 161.265C1304.61 165.998 1315.07 157.409 1319.8 162.975C1321.24 164.727 1321.41 167.138 1322.03 169.329C1323.86 175.902 1331.04 180.46 1337.74 179.277C1333.89 185.412 1324.7 179.364 1320.5 173.448C1316.34 167.532 1306.93 161.66 1303.25 167.926C1302.07 169.986 1302.29 172.484 1302.29 174.807C1302.07 191.854 1282.07 205.395 1266.19 199.216C1272.23 191.722 1286.45 194.702 1291.09 186.288C1292.97 182.826 1292.44 178.619 1291.88 174.763C1289.99 162.098 1288.16 149.477 1286.27 136.812C1287.37 130.984 1287.81 125.024 1287.54 119.108C1280.89 121.431 1270.17 121.124 1270.39 114.068C1264.74 123.446 1259.06 132.825 1253.41 142.203C1249.95 147.856 1247.37 156.708 1253.28 159.688C1257.22 158.066 1261.81 161.397 1262.91 165.56C1264.04 169.679 1262.6 174.018 1260.72 177.874C1252.23 154.341 1209.26 165.166 1198.05 142.816C1192.93 144.788 1197.62 152.72 1202.78 154.604C1207.99 156.489 1215.12 159.819 1213.19 164.99C1211.75 169.066 1206.15 169.066 1201.86 168.759C1189.48 167.883 1176.79 170.731 1165.93 176.866C1164.97 172.484 1163.96 168.146 1163.04 163.851C1154.03 170.249 1144.93 176.647 1135.91 183.089C1131.49 186.201 1126.85 189.4 1121.47 189.969C1116.13 190.495 1109.96 187.296 1109.26 181.95C1108.56 176.603 1116.35 171.914 1119.81 176.034C1121.3 166.217 1107.91 158.023 1099.85 163.851C1105.19 172.878 1105.32 184.798 1100.16 193.957C1098.24 197.375 1095.3 200.574 1091.45 201.188C1087.6 201.758 1083.14 198.427 1083.97 194.615C1079.07 198.953 1076.31 205.57 1076.66 212.1C1068.7 214.685 1059.2 211.618 1054.26 204.781C1054.87 208.594 1055.48 212.319 1056.09 216.131C1050.36 222.31 1037.8 217.841 1037.23 209.427C1037.1 206.929 1037.71 204.475 1037.71 201.977C1037.71 193.475 1030.23 187.165 1023.4 182.037C1033.6 185.894 1043.84 189.794 1054.04 193.65C1059.77 195.842 1065.9 198.077 1071.89 196.893C1080.69 195.228 1086.38 183.352 1078.54 177.217C1064.5 166.217 1048.3 157.935 1031.15 152.983C1026.21 151.581 1020.91 150.397 1016.05 151.975C1012.07 153.246 1006.73 155.788 1004.59 152.194C1008.57 152.764 1012.86 151.23 1015.57 148.206C1007.26 146.366 998.855 145.183 990.365 144.744C980.563 153.465 973.911 165.779 976.756 178.225C981.132 197.332 1005.9 213.371 996.842 230.724C1005.38 228.796 1014.3 226.912 1022.75 229.059C1027.3 230.155 1031.72 232.872 1034.69 236.465C1034.69 236.29 1034.69 236.071 1034.69 235.896C1037.23 235.063 1039.95 234.186 1042.53 234.888C1045.11 235.589 1047.21 238.613 1045.9 240.979C1045.02 242.644 1042.7 244.003 1043.53 245.712C1044.06 246.764 1045.5 246.939 1046.6 247.289C1049.75 248.254 1051.5 252.329 1050.05 255.265C1045.55 255.002 1041.04 254.783 1036.49 254.564C1034.96 257.851 1032.9 261.006 1031.46 264.293C1025.37 278.053 1029.79 293.829 1030.32 308.86C1030.54 316.573 1028.79 325.162 1024.98 331.823C1025.9 331.648 1026.82 331.429 1027.74 331.298C1044.76 328.405 1064.23 332.7 1074.65 346.504C1085.06 360.308 1081.56 384.016 1065.59 390.502C1059.51 392.956 1052.42 392.868 1046.86 396.374C1044.58 397.733 1042.92 400.187 1042.13 402.772C1052.46 396.9 1063.1 391.291 1074.78 389.1C1072.2 394.621 1067.12 398.828 1061.26 400.275C1063.23 401.545 1062.57 404.832 1060.6 406.103C1058.63 407.374 1056.09 407.155 1053.82 406.673C1051.54 406.234 1049.14 405.621 1046.9 406.191C1044.93 406.673 1043.36 408.206 1042.57 410.091C1042.18 410.923 1042 411.844 1042 412.764C1042 413.421 1042.13 413.991 1042.31 414.605C1048.26 409.609 1057.71 409.477 1063.8 414.342C1066.11 416.226 1067.95 418.68 1070.45 420.345C1073.2 422.186 1076.79 423.019 1078.89 425.648C1080.95 428.277 1079.51 433.58 1076.27 432.879C1076.14 434.544 1077.89 435.727 1079.46 436.034C1081.04 436.341 1082.83 436.209 1084.28 436.954C1087.65 438.707 1087.03 444.141 1084.1 446.551C1081.17 448.918 1077.06 449.137 1073.25 449.137C1063.31 449.268 1052.99 449.356 1043.88 445.324C1039.6 443.44 1035.75 440.635 1031.28 439.058C1026.86 437.48 1021.52 437.349 1017.93 440.372C1016.27 441.775 1015.13 443.791 1013.51 445.324C1009.66 449.049 1003.1 449.531 998.724 446.42C995.135 443.834 993.385 438.97 994.216 434.632C990.103 438.795 986.558 443.659 984.02 448.874C986.208 455.097 988.396 461.363 990.584 467.586C991.328 469.602 991.985 471.618 992.728 473.59C994.829 479.681 998.286 486.824 1004.68 487.219C1012.77 487.745 1020.91 476.701 1027.34 486.693C1028.57 488.621 1028.96 490.9 1028.96 493.223C1028.96 497.736 1035.13 503.433 1038.46 499.884C1038.06 496.641 1037.71 493.135 1039.2 490.199C1040.69 487.306 1044.8 485.466 1047.39 487.526C1049.14 488.884 1049.49 491.382 1049.62 493.573C1049.75 496.816 1049.62 500.147 1049.18 503.346C1048.17 511.058 1045.11 519.078 1038.63 523.197C1033.56 526.396 1026.25 528.719 1030.41 535.555C1031.37 537.045 1035.22 535.336 1036.31 536.782C1038.72 540.157 1037.06 543.706 1037.36 547.694C1038.02 556.152 1047.6 560.403 1052.86 567.108C1060.12 576.31 1058.59 589.501 1062.18 600.676C1069.48 623.551 1098.28 638.232 1096.66 662.203C1096 671.537 1091.45 683.194 1099.11 688.584C1104.23 692.134 1111.23 689.636 1116.92 686.963C1127.51 682.055 1138.14 677.103 1148.82 672.151C1153.15 670.179 1157.75 667.9 1159.98 663.649C1161.12 661.414 1161.51 658.829 1163.13 656.9C1165.5 654.096 1169.61 653.701 1173.07 652.562C1180.9 649.933 1186.15 642.527 1190.09 635.208C1194.33 627.276 1197.66 618.862 1200.02 610.142C1200.64 607.863 1201.2 605.409 1200.63 603.086C1198.58 594.628 1183.74 593.796 1183 585.119C1182.69 581.482 1185.23 578.239 1186.41 574.82C1187.59 571.358 1186.28 566.275 1182.65 566.319C1180.46 572.761 1178.1 579.466 1173.24 584.198C1168.34 588.931 1160.07 590.947 1154.73 586.784C1150.75 583.716 1149.44 578.37 1146.72 574.163C1142.61 567.633 1135.08 563.689 1131.49 556.897C1127.9 550.061 1133.16 538.579 1140.29 541.515C1143.79 554.443 1152.63 565.793 1164.31 572.279C1171.53 569.825 1178.49 566.538 1185.01 562.462C1188.25 559.877 1192.54 564.741 1192.89 568.861C1193.24 573.024 1192.58 578.107 1195.95 580.517C1197.66 581.788 1199.98 581.876 1202.12 581.876C1219.67 581.876 1237.13 579.86 1254.2 575.828C1250.7 586.039 1260.11 598.309 1270.83 597.521C1269.51 601.684 1265.36 604.795 1260.98 604.839C1263.08 608.958 1265.31 613.253 1269.08 616.014C1272.84 618.731 1278.53 619.344 1281.81 616.101C1284.92 613.078 1285.31 607.425 1289.34 605.759C1294.02 603.787 1298.66 609.659 1298.26 614.743C1297.87 619.783 1294.72 624.121 1293.01 628.941C1289.6 638.714 1292.79 649.451 1295.9 659.311C1301.98 678.33 1308.29 697.831 1320.76 713.476C1325.22 709.269 1329.73 705.062 1334.19 700.855C1340.23 701.906 1340.45 710.583 1338.52 716.368C1336.56 722.24 1334.76 730.084 1340.01 733.283C1344.74 736.132 1351.04 731.574 1352.09 726.184C1353.14 720.794 1350.69 715.448 1348.28 710.496C1345.18 704.185 1342.11 697.787 1339.05 691.433C1338 689.242 1336.86 686.919 1337.08 684.465C1337.21 682.361 1338.26 680.477 1339.14 678.549C1341.89 672.37 1342.77 665.314 1341.54 658.653C1357.95 650.283 1371.7 636.742 1380.18 620.308C1381.5 617.854 1382.72 615.269 1384.95 613.604C1391.69 608.695 1403.03 615.576 1408.98 609.747C1417.29 612.859 1424.3 619.213 1428.23 627.189C1431.12 633.017 1433.79 640.774 1440.27 641.256C1430.33 645.331 1423.64 656.112 1424.38 666.804C1434.36 669.346 1445.39 659.88 1444.38 649.626C1448.28 647.391 1453.44 650.108 1455.54 654.096C1457.6 658.084 1457.38 662.816 1457.12 667.286C1456.37 680.828 1455.54 694.325 1454.8 707.779C1454.58 711.81 1454.4 716.149 1456.63 719.479C1458.73 722.634 1462.72 724.387 1464.16 727.893C1466.35 733.064 1461.97 739.594 1464.82 744.458C1466.35 747.044 1469.37 748.183 1471.69 749.98C1476.68 753.792 1478.34 760.541 1481.93 765.712C1485.52 770.883 1493.83 774.258 1497.73 769.306C1489.41 762.776 1484.12 752.609 1483.55 742.004C1483.42 739.594 1483.55 737.052 1482.5 734.861C1481.27 732.1 1478.65 730.303 1476.41 728.288C1463.42 716.368 1464.99 695.771 1467.66 678.286C1473.7 687.138 1483.37 693.405 1493.96 695.245C1490.55 702.257 1493.52 711.635 1500.26 715.491C1500.7 708.611 1505.87 702.345 1512.47 700.548C1515.36 699.759 1518.42 699.715 1521.14 698.532C1529.28 695.026 1530.15 683.983 1529.76 675.131C1529.63 671.625 1529.41 667.987 1527.53 665.095C1524.38 660.319 1518.03 659.179 1513.04 656.375C1504.11 651.335 1499.78 639.415 1503.37 629.73C1506.92 620.089 1517.99 613.91 1528.05 615.926C1531.38 617.372 1529.89 622.675 1527 624.866C1524.11 627.057 1520.13 628.372 1518.77 631.746C1516.85 636.435 1522.54 641.65 1527.48 640.555C1532.43 639.503 1535.58 634.288 1535.93 629.204C1536.24 624.165 1534.4 619.257 1532.56 614.48C1543.19 616.803 1554.92 613.078 1562.23 605.014C1564.29 602.735 1566.12 600.106 1568.79 598.572C1573.96 595.549 1581.35 597.214 1585.6 592.919C1588.84 589.676 1588.62 584.461 1589.62 579.948C1591.5 571.578 1597.94 565.179 1601.74 557.554C1605.51 549.929 1609.23 538.185 1607.21 529.771C1605.77 523.635 1602.58 518.07 1600.39 512.198C1598.81 508.035 1597.76 503.696 1597.19 499.226C1596.97 497.43 1596.8 495.414 1597.63 493.836C1599.12 490.944 1602.79 490.286 1605.55 488.577C1609.67 486.036 1611.81 480.733 1610.58 476.088C1599.21 479.9 1585.9 477.008 1577.15 468.813C1579.69 463.905 1585.29 461.626 1590.15 458.997C1595.05 456.411 1600.13 452.204 1599.91 446.639C1603.01 446.639 1606.08 446.639 1609.14 446.639C1609.36 451.679 1607 456.806 1603.01 459.917C1607.21 463.555 1613.56 460.093 1618.5 457.507C1623.45 454.921 1631.72 454.921 1632.33 460.443C1632.9 465.789 1624.85 469.383 1625.94 474.642C1631.59 472.714 1637.67 480.295 1634.61 485.422C1633.78 486.781 1632.42 488.139 1632.64 489.761C1632.9 491.733 1635.22 492.478 1636.93 493.442C1641.7 495.983 1643.8 502.557 1641.35 507.377C1644.67 504.792 1648 502.206 1651.33 499.577C1652.07 502.644 1655.53 504.704 1658.63 504.003C1661.7 503.258 1663.84 499.84 1663.14 496.772C1662.48 493.748 1659.68 491.645 1658.76 488.709C1657.41 484.283 1660.52 479.375 1658.98 475.036C1657.8 471.618 1654.17 469.821 1651.19 467.674C1648.22 465.527 1645.59 461.67 1647.39 458.471C1648.44 456.499 1650.76 455.71 1652.64 454.571C1662 448.742 1664.02 432.134 1675.04 431.783C1677.28 431.695 1679.46 432.397 1681.61 432.09C1687.87 431.213 1690.05 423.588 1693.03 417.935C1699.55 405.402 1714.69 399.31 1721.56 386.909C1726.81 377.399 1726.2 365.786 1729.31 355.312C1731.58 347.731 1735.87 339.843 1733.2 332.349C1729.92 323.015 1714.87 321.175 1709.44 329.457C1710.31 324.768 1711.19 320.123 1712.11 315.39C1708.83 325.995 1686.95 316.442 1705.98 306.056C1718.67 299.176 1730.05 289.71 1739.2 278.491C1742.3 274.679 1745.24 270.603 1749.31 267.842C1764.27 257.719 1784.88 270.253 1802.39 265.87C1803 267.579 1803.57 269.332 1804.18 271.041C1799.45 273.013 1794.82 274.985 1790.13 276.957C1800.02 281.603 1810.66 270.603 1821.55 271.041C1824.75 271.173 1829.34 271.173 1829.52 268.061C1826.59 267.623 1822.78 266.002 1823.3 263.066C1823.48 262.014 1824.27 261.137 1825.01 260.392C1827.86 257.369 1830.7 254.389 1833.59 251.365C1838.36 246.325 1846.1 240.935 1851.57 245.317C1855.69 248.648 1853.81 256.667 1848.6 257.763C1852.01 261.181 1857.79 258.07 1861.2 254.608C1864.61 251.19 1868.99 247.07 1873.54 248.823C1874.81 246.282 1874.81 243.17 1873.63 240.672C1877.26 238.656 1881.72 238.174 1885.71 239.401C1883.3 241.417 1881.64 244.397 1881.16 247.509C1880.81 249.524 1880.98 251.628 1880.37 253.556C1878.18 260.831 1868.47 261.663 1861.59 265.038C1849.52 270.91 1845.27 286.423 1834.42 294.267C1831.75 296.239 1828.73 297.686 1826.5 300.14C1821.73 305.442 1822.34 313.681 1824.53 320.473C1826.81 327.266 1830.48 333.752 1830.88 340.895C1830.96 342.253 1830.87 343.568 1830.79 344.883C1830.31 349.616 1836.13 352.289 1839.45 348.914C1840.24 348.082 1841.07 347.249 1841.86 346.46C1845.71 342.472 1849.74 338.353 1851.71 333.182C1853.06 329.501 1853.67 325.031 1857.04 323.103C1859.54 321.7 1862.65 322.314 1865.45 321.788C1868.29 321.306 1871.31 318.458 1869.87 315.916C1865.23 312.629 1866.06 304.303 1871.18 301.893C1873.32 302.9 1875.47 303.908 1877.61 304.96C1882.69 302.638 1875.03 294.267 1877.79 289.403C1878.84 287.519 1881.42 286.379 1881.33 284.232C1881.24 281.559 1877.48 281.077 1874.81 281.515C1873.06 272.794 1879.06 263.285 1887.63 261.137C1887.5 262.934 1887.33 264.775 1887.19 266.571C1891.44 263.898 1895.68 261.225 1899.93 258.464C1900.67 260.524 1901.42 262.584 1902.16 264.731C1907.24 267.36 1911.22 255.747 1916.51 257.895C1917.65 258.377 1918.44 259.428 1919.4 260.173C1923.21 263.285 1929.99 260.918 1931.04 256.098C1934.98 237.911 1957.04 237.079 1975.5 235.545C1979.79 235.194 1985.74 233.31 1984.74 229.103L1985 229.059ZM1168.82 450.846C1165.71 453.651 1161.25 454.396 1157.09 453.738C1156.09 454.571 1156.83 456.324 1157.92 456.981C1159.02 457.682 1160.42 457.858 1161.38 458.778C1163.09 460.443 1162.43 463.248 1162.69 465.614C1163.18 469.427 1166.46 472.363 1167.33 476.088C1168.91 482.793 1161.69 488.972 1154.77 489.016C1140.38 489.147 1130.27 477.446 1126.55 464.869C1124.4 457.682 1120.29 438.181 1131.32 437.086C1127.99 432.703 1131.45 427.883 1129.39 423.194C1128.25 420.652 1125.41 419.425 1123.49 417.409C1119.68 413.334 1120.25 406.497 1123.49 401.94C1126.72 397.382 1131.93 394.709 1137.14 392.649C1142.21 390.677 1147.99 389.144 1152.98 391.203C1158.01 393.263 1161.08 400.45 1157.31 404.394C1153.24 408.645 1144.93 406.191 1141.25 410.792C1138.93 413.64 1139.72 418.11 1142.04 420.959C1144.4 423.807 1147.95 425.385 1151.36 426.7C1153.29 427.445 1155.34 428.365 1156.09 430.205C1157.27 433.01 1154.86 435.859 1153.33 438.444C1151.84 441.074 1152.15 445.675 1155.17 445.675C1158.1 445.675 1158.58 441.468 1160.2 439.014C1162.48 435.552 1168.43 436.121 1170.75 439.583C1173.02 443.046 1171.8 448.041 1168.78 450.802L1168.82 450.846ZM1528.14 316.836C1527.48 318.107 1526.7 319.378 1526.26 320.736C1525.82 322.27 1525.82 323.935 1525.43 325.469C1524.29 330.071 1520.04 333.05 1516.19 335.855C1513.52 337.783 1510.85 339.931 1509.28 342.779C1508.62 343.962 1508.18 345.277 1507.44 346.46C1503.63 352.858 1492.3 354.173 1499.43 345.233C1503.85 339.668 1510.42 331.517 1515.89 326.696C1517.77 325.031 1520.04 323.672 1521.31 321.525C1523.37 318.019 1522.23 313.593 1522.36 309.518C1522.49 305.442 1525.56 300.578 1529.5 301.717C1530.94 306.669 1530.46 312.191 1528.14 316.836ZM1038.72 246.062C1038.72 246.501 1038.72 246.895 1038.72 247.377C1038.59 248.955 1038.28 250.445 1037.76 251.891C1038.37 251.891 1038.94 251.891 1039.42 251.891C1040.34 249.919 1039.77 248.034 1038.72 246.062ZM1008.83 343.305C1016.1 342.779 1021.52 338.178 1025.16 331.823C1018.28 333.489 1011.5 336.863 1008.83 343.305Z" fill="url(#paint0_radial_144_1354)" fill-opacity="0.09"/>
<path d="M1633.26 767.991C1633.86 767.801 1634.4 767.564 1635 767.375C1633.76 766.521 1632.07 766.806 1630.83 767.707C1629.6 768.607 1628.77 769.887 1627.77 771.072C1624.33 775.054 1619.02 777.235 1613.89 776.761C1610.64 776.477 1607.44 775.197 1604.23 775.813C1600.34 776.571 1597.37 780.222 1596.22 784.156C1595.63 786.147 1596.22 789.181 1598.19 788.992C1599.29 785.436 1602.4 782.829 1605.84 781.691C1609.27 780.553 1612.98 780.743 1616.55 781.407C1619.34 781.928 1622.13 782.734 1624.93 782.355C1627.72 781.976 1630.6 779.985 1630.93 777.093C1631.15 775.007 1630.1 772.732 1630.93 770.788C1631.66 769.129 1633.81 767.659 1632.99 766C1632.07 766.19 1634.13 767.801 1633.21 767.991H1633.26Z" fill="#808285" fill-opacity="0.09"/>
<path d="M1588.24 812.244C1589.57 817.844 1592.36 823.664 1590.19 828.999C1592.6 830.013 1595.49 828.117 1596.29 825.781C1597.1 823.444 1596.48 820.886 1595.86 818.505C1595.25 816.124 1594.63 813.567 1595.53 811.23C1595.72 810.701 1596.1 810.127 1596.67 809.995C1596.95 809.951 1597.28 809.995 1597.57 810.083C1600.83 810.965 1603.06 813.831 1604.1 816.874C1605.14 819.872 1605.19 823.091 1605.66 826.221C1605.95 828.162 1606.51 830.322 1608.26 831.38C1611.15 833.188 1615.27 830.763 1616.36 827.677C1617.45 824.59 1616.55 821.239 1616.12 818.02C1615.46 813.567 1615.13 808.187 1610.87 805.983C1609.12 805.101 1606.7 804.704 1606.13 802.896C1605.47 800.78 1608.17 799.104 1610.44 798.487C1612.52 797.914 1614.65 797.517 1616.83 797.252C1619.39 796.944 1622.75 796.282 1622.98 793.901C1623.27 791.388 1619.86 790.153 1617.21 789.757C1614.04 789.271 1610.77 788.742 1607.55 789.139C1604.34 789.536 1601.12 790.947 1599.41 793.504C1599.04 794.033 1598.7 794.695 1598.09 794.915C1597.19 795.268 1596.2 794.651 1595.68 793.901C1595.15 793.152 1594.87 792.27 1594.3 791.564C1587.39 783.583 1587.72 810.039 1588.24 812.244Z" fill="#808285" fill-opacity="0.09"/>
<path d="M1671.54 522.918C1671.94 519.137 1672.33 514.695 1675.53 512.628C1676.54 515.267 1678.47 517.509 1680.88 518.961C1683.07 517.685 1684.25 515.267 1685.52 513.112C1686.79 510.913 1688.54 508.67 1690.99 508.275C1693.45 507.879 1696.3 510.649 1694.98 512.804C1701.46 515.355 1705.76 505.9 1711.8 502.338C1714.96 500.491 1718.81 500.315 1722.4 499.436C1725.95 498.512 1729.72 496.225 1730.25 492.575C1730.55 490.421 1729.63 488.31 1729.55 486.155C1729.41 481.537 1732.92 477.8 1735.15 473.754C1739.1 466.762 1739.27 457.747 1735.63 450.623C1733.66 446.753 1730.6 443.323 1729.63 439.101C1728.67 434.879 1731.12 429.295 1735.46 429.383C1736.64 433.076 1738.26 437.254 1741.9 438.617C1745.54 440.025 1750.4 435.363 1747.77 432.505C1751.84 431.361 1756.14 431.01 1760.34 431.405C1762.14 428.767 1761.7 424.897 1759.38 422.698C1772.7 418.037 1784.13 408.846 1792.93 397.764C1780.8 405.328 1768.67 412.892 1756.53 420.456C1755.09 421.335 1753.38 422.258 1751.8 421.687C1750.35 421.115 1749.65 419.532 1748.95 418.169C1745.67 412.012 1738.83 407.966 1731.87 408.098C1732.44 413.903 1733.01 419.752 1733.58 425.557C1729.46 424.809 1725.69 428.723 1724.73 432.813C1723.76 436.902 1724.73 441.212 1725.08 445.39C1726.3 460.165 1719.34 475.337 1707.38 484.044C1707.34 481.669 1707.29 479.251 1707.25 476.876C1700.94 477.8 1703.83 489.629 1698.14 492.575C1696.51 493.411 1694.63 493.235 1692.83 493.411C1683.9 494.334 1684.07 503.569 1674.44 499.875C1673.47 511.617 1658.62 509.55 1659.67 521.379C1660.59 531.362 1669.97 539.013 1671.59 522.874L1671.54 522.918Z" fill="#808285" fill-opacity="0.09"/>
<path d="M1439.77 751.921C1443.7 754.864 1448.62 757.015 1450.96 761.407C1452.73 764.788 1452.73 769.224 1455.49 771.903C1456.96 773.308 1459.03 774.011 1460.5 775.372C1464 778.666 1463.22 784.375 1464.91 788.898C1467.29 795.31 1474.63 799.086 1476.01 805.806C1476.49 808.089 1476.23 810.548 1477.18 812.7C1479.04 816.741 1484.39 817.575 1487.37 820.869C1488.84 822.493 1489.66 824.601 1490.92 826.358C1494.5 831.408 1501.93 833.121 1507.29 830.135C1505.39 827.148 1504.31 823.635 1504.22 820.122C1504.18 818.014 1504.48 815.906 1504.05 813.842C1503.1 808.88 1498.43 805.41 1497.14 800.492C1499.34 798.867 1502.19 801.238 1503.83 803.434C1505.48 805.63 1508.2 808.133 1510.49 806.64C1506.34 801.107 1501.59 796.056 1496.36 791.577C1496.79 793.597 1494.11 795.046 1492.21 794.344C1490.31 793.641 1489.19 791.709 1488.19 789.952C1487.46 788.591 1486.68 787.141 1486.81 785.604C1486.94 784.331 1487.68 783.189 1487.89 781.916C1488.37 779.237 1486.47 776.733 1484.35 775.152C1482.19 773.572 1479.68 772.474 1477.83 770.541C1474.11 766.721 1473.46 760.046 1468.8 757.498C1466.55 756.269 1463.87 756.269 1461.58 755.127C1454.58 751.482 1453.2 740.942 1445.21 737.693C1433.85 733.081 1431.43 745.729 1439.68 751.921H1439.77Z" fill="#808285" fill-opacity="0.09"/>
<path d="M1511.69 832.054C1510.01 834.424 1508.37 836.793 1506.7 839.163C1506.35 839.69 1505.97 840.216 1505.97 840.875C1505.97 842.63 1508.46 842.893 1510.14 842.674C1515.56 841.928 1521.06 842.191 1526.39 843.508C1535.33 845.702 1543.85 850.792 1553.01 850.178C1554.38 850.09 1555.8 849.871 1557.18 850.09C1558.68 850.309 1560.01 851.055 1561.48 851.45C1564.83 852.46 1568.57 851.889 1571.5 849.958C1569.04 847.545 1565.17 847.72 1561.73 847.457C1558.29 847.194 1554.25 845.614 1553.82 842.103C1553.69 841.182 1553.91 840.172 1553.65 839.251C1553.14 837.276 1550.94 836.311 1548.96 836.179C1546.99 836.047 1544.97 836.53 1543.03 836.135C1539.76 835.477 1537.23 832.405 1534 831.922C1530.69 831.44 1529.27 834.029 1526.61 834.16C1521.1 834.424 1516.8 824.77 1511.64 832.098L1511.69 832.054Z" fill="#808285" fill-opacity="0.09"/>
<path d="M1510.02 852.503C1512.96 852.548 1515.87 854.905 1518.6 853.882C1519.3 853.615 1519.92 853.171 1520.66 853.082C1521.59 852.993 1522.42 853.571 1523.26 853.927C1531.35 857.707 1540.64 846.944 1548.95 850.191C1547.01 858.152 1536.59 860.687 1532.5 867.758C1539.54 866.736 1546.22 863.089 1550.93 857.663C1552.21 856.195 1553.39 854.594 1555.02 853.526C1555.94 852.904 1557 852.548 1557.97 851.925C1560.17 850.502 1561.49 847.789 1561.31 845.165C1558.89 845.121 1556.47 845.699 1554.36 846.9C1552.78 847.789 1551.37 848.99 1549.61 849.39C1546.71 850.057 1543.85 848.367 1540.9 847.967C1534.7 847.077 1528.67 853.615 1523.04 852.548C1520.8 852.103 1519.65 849.568 1516.84 848.856C1514.55 848.278 1510.9 849.257 1508.3 848.856C1505.4 848.456 1499.42 845.476 1497.22 848.59C1490.75 857.796 1508.43 852.459 1510.02 852.503Z" fill="#808285" fill-opacity="0.09"/>
<path d="M1508.65 859.578C1509.84 858.408 1512.17 859.139 1513.36 860.309C1514.55 861.479 1515.31 863.015 1516.84 863.856C1518.37 864.66 1520.53 864.514 1521.89 863.454C1522.69 862.832 1523.16 861.808 1522.78 860.967C1522.35 860.09 1521.25 859.688 1520.23 859.395C1519.26 859.103 1518.24 858.81 1517.26 858.481C1515.52 857.969 1513.7 857.421 1511.88 857.64C1510.05 857.859 1508.23 859.066 1508.23 860.675" fill="#808285" fill-opacity="0.09"/>
<path d="M1644.93 807.098C1640.98 806.586 1636.81 806.643 1632.96 807.24C1632.27 807.354 1631.43 807.554 1631.37 807.952C1631.37 808.379 1632.22 808.636 1632.96 808.721C1636.7 809.262 1640.82 809.034 1644.25 808.095C1643.72 807.269 1641.71 806.842 1640.29 807.24" fill="#808285" fill-opacity="0.09"/>
<path d="M1658.7 805.146C1657.04 804.349 1654.84 804.559 1653.41 805.691C1651.97 806.822 1651.34 808.792 1651.93 810.469C1655.29 811.265 1658.65 807.577 1661.84 808.792C1663.94 809.588 1664.98 812.271 1667.26 812.397C1669.19 812.48 1670.54 809.966 1669.33 808.583C1668.29 807.409 1666.32 807.409 1665.07 806.445C1662.78 804.685 1664.21 801.248 1665.74 798.901C1663.18 798.398 1661.3 801.164 1660.94 803.595C1660.81 804.643 1660.76 805.774 1660.27 806.738C1659.73 807.702 1658.47 808.415 1657.44 807.954" fill="#808285" fill-opacity="0.09"/>
<path d="M1645.16 790.321C1645.16 791.289 1645.12 792.257 1645.46 793.133C1645.8 793.962 1646.68 794.607 1647.4 794.193C1647.94 793.916 1648.2 793.179 1648.43 792.533C1649.16 790.413 1649.92 787.924 1649.08 785.851C1648.7 784.929 1648.05 784.145 1647.75 783.177C1646.91 780.228 1649.84 778.661 1651.71 778.891C1651.25 775.158 1648.66 777.785 1648.66 773.775C1648.66 773.176 1654.42 770.503 1649.61 769.535C1643.36 768.245 1645.23 785.482 1645.08 790.367L1645.16 790.321Z" fill="#808285" fill-opacity="0.09"/>
<path d="M1588.44 837.254C1585.93 840.137 1583.64 843.356 1581.66 846.911C1583.17 847.92 1585.14 847.391 1586.29 845.71C1587.4 844.028 1587.55 841.338 1586.65 839.416" fill="#808285" fill-opacity="0.09"/>
<path d="M1690.99 825.142C1692.86 826.542 1694.6 828.528 1694.64 830.875C1694.69 833.223 1692.36 835.616 1690.12 834.848C1690.58 831.508 1690.99 828.167 1691.45 824.826" fill="#808285" fill-opacity="0.09"/>
<path d="M1594.89 655.512C1594.47 656.567 1594.09 657.665 1594.09 658.763C1594.18 662.605 1599.11 665.223 1599.44 669.023C1599.58 670.543 1598.97 672.063 1598.97 673.583C1598.97 675.103 1600 676.876 1601.69 676.876C1603.14 676.876 1604.17 675.652 1605.2 674.723C1606.23 673.794 1608.2 673.203 1609 674.301C1609.37 674.765 1609.33 675.441 1609.28 675.989C1608.81 680.085 1607.59 684.096 1605.62 687.854C1608.06 688.741 1610.92 687.305 1612.28 685.278C1613.64 683.252 1613.87 680.761 1614.06 678.396C1614.16 677.214 1614.25 675.99 1613.73 674.892C1612.94 673.245 1610.97 672.401 1609.7 671.05C1607.31 668.516 1607.55 664.716 1608.91 661.634C1610.26 658.552 1612.52 655.85 1613.87 652.767C1614.25 651.965 1614.53 651.121 1614.39 650.234C1614.25 649.347 1613.64 648.587 1613.22 647.785C1612.14 645.801 1612.05 643.521 1611.58 641.325C1607.45 622.283 1596.15 652.134 1594.89 655.47V655.512Z" fill="#808285" fill-opacity="0.09"/>
<path d="M1632.7 685.417C1633.14 689.128 1631.59 692.97 1628.72 695.355C1628.06 695.885 1627.36 696.371 1626.96 697.122C1625.59 699.639 1628.77 702.024 1631.06 703.747C1638.22 709.18 1639.1 721.105 1632.79 727.509C1632.21 728.128 1631.55 728.702 1631.15 729.453C1630.8 730.203 1630.76 731.043 1630.71 731.882C1630.67 735.636 1631.33 739.435 1632.7 742.924C1628.99 744.779 1624.31 741.731 1622.9 737.8C1621.48 733.869 1622.28 729.541 1622.98 725.433C1623.25 723.887 1623.43 722.209 1622.59 720.928C1621.17 718.852 1617.77 719.294 1616.01 721.061C1614.24 722.827 1613.67 725.433 1612.96 727.863C1612.25 730.292 1611.24 732.809 1609.03 734.046C1607.35 725.654 1614.24 716.644 1622.72 715.981C1624.57 715.849 1626.56 716.026 1628.24 715.186C1629.92 714.347 1630.89 711.874 1629.52 710.593C1627.89 710.637 1627.27 708.473 1627.4 706.883C1627.53 705.249 1627.8 703.305 1626.52 702.334C1625.19 701.362 1623.21 702.334 1622.32 703.791C1621.44 705.205 1621.17 706.927 1620.29 708.34C1618.97 710.461 1616.32 711.653 1613.84 711.211C1613.71 707.501 1615.92 703.791 1619.23 702.157C1616.27 701.097 1613.23 699.419 1612.08 696.504C1610.93 693.588 1612.96 689.481 1616.05 689.746C1617.16 692.617 1618.26 695.488 1619.41 698.359C1621.84 699.86 1625.24 698.359 1626.65 695.885C1628.06 693.412 1627.93 690.364 1627.53 687.537C1630.71 689.172 1634.29 684.711 1633.01 681.398C1632.26 679.499 1630.53 678.174 1628.77 677.953C1630.76 679.985 1632.39 682.723 1632.74 685.55L1632.7 685.417Z" fill="#808285" fill-opacity="0.09"/>
<path d="M1163.67 141.661C1165.82 140.133 1164.2 136.467 1161.7 135.638C1159.2 134.809 1156.52 135.638 1153.89 135.681C1151.26 135.769 1148.11 134.503 1147.84 131.928C1147.76 131.142 1147.93 130.4 1148.24 129.658C1150.08 125.337 1155.21 123.591 1158.59 120.318C1163.85 115.211 1164.28 106.787 1168.89 101.113C1175.24 93.2568 1187.3 92.9076 1195.46 86.8844C1198 85.0076 1200.15 82.5634 1202.82 80.8175C1209.7 76.2782 1218.65 77.0202 1226.93 76.802C1237.76 76.4965 1248.55 74.2268 1258.54 70.124C1256.44 80.1191 1244.43 83.8728 1234.47 86.3606C1227.77 88.0628 1221.15 89.9833 1214.61 92.1656C1206.28 94.959 1197.95 98.2762 1191.16 103.776C1184.36 109.275 1179.19 117.393 1179.06 126.123C1179.02 130.706 1184.5 140.614 1181.43 144.193C1177.83 148.383 1167.57 143.363 1163.67 141.617V141.661Z" fill="#808285" fill-opacity="0.09"/>
<path d="M1415.31 25.8886C1412.78 26.7153 1410.25 27.5879 1407.68 28.4146C1410.03 32.1349 1414.87 33.972 1418.95 32.6401C1423.26 31.2622 1427.43 26.899 1431.47 28.9658C1432.54 30.9866 1430.14 32.9616 1428.19 34.0639C1426.24 35.1662 1424.19 37.7382 1425.79 39.3457C1426.19 39.7131 1426.68 39.9428 1427.21 40.0805C1436.09 43.02 1446.17 40.5398 1454.65 44.4897C1457.32 45.7298 1459.89 47.6588 1462.82 47.521C1465.75 47.3832 1468.51 43.5711 1466.46 41.3666C1465.13 39.9428 1462.47 39.8968 1461.94 38.0137C1460.96 34.5232 1468.91 33.0994 1467.35 29.8844C1461.62 30.0681 1455.85 30.2518 1450.12 30.4355C1448.17 30.4814 1445.77 30.2977 1444.93 28.4606C1444.44 27.4501 1444.62 26.1182 1443.95 25.1996C1443.15 24.0973 1441.55 24.0973 1440.18 24.2351C1437.16 24.5566 1434.09 24.8781 1431.08 25.1996C1437.74 24.5107 1446.44 20.8364 1453.1 19.1829C1444.26 8.84897 1418.69 10.089 1415.22 25.8426L1415.31 25.8886Z" fill="#808285" fill-opacity="0.09"/>
<path d="M1720.39 92.0949C1721.46 91.4374 1722.45 90.5608 1723.64 90.2102C1728.44 88.8077 1732.5 95.9957 1737.34 94.8561C1739.39 94.374 1740.85 92.4455 1742.77 91.7004C1747.35 89.9034 1752.49 94.8123 1756.85 91.7881C1762.54 87.8434 1760.1 84.4247 1755.61 82.6277C1751.5 81.006 1745.13 82.7154 1740.5 81.3566C1737.08 80.3486 1734.13 78.4201 1730.88 76.9737C1723.26 73.6427 1711.15 68.0325 1705.97 78.1133C1701.31 87.186 1711.66 97.3983 1720.35 92.0511L1720.39 92.0949Z" fill="#808285" fill-opacity="0.09"/>
<path d="M1708.05 89.1851C1704.83 86.3485 1701.08 84.2101 1697.09 82.9009C1696.52 82.7263 1695.95 82.5518 1695.34 82.5518C1693.22 82.639 1691.87 85.4756 1692.57 87.6577C1693.26 89.796 1695.34 91.1925 1697.41 91.5853C1699.49 92.0217 1701.65 91.7162 1703.77 91.5853C1708.25 91.2798 1712.73 91.6289 1717.09 92.7199C1717.91 89.7087 1715.18 86.7412 1712.28 86.3048C1709.39 85.8684 1706.58 87.2649 1703.93 88.5741" fill="#808285" fill-opacity="0.09"/>
<path d="M1730.23 848.552L1740.96 806.185C1733.43 803.36 1712.38 796.017 1708.77 796.017C1704.25 796.017 1704.81 804.49 1698.03 808.444C1695.19 810.104 1689.56 804.49 1687.3 802.23C1685.04 799.971 1685.6 794.887 1686.73 792.627C1687.86 790.368 1683.91 786.978 1682.22 786.413C1680.52 785.848 1670.92 786.413 1669.22 786.413C1667.53 786.413 1663.01 784.719 1662.44 784.507L1662.44 784.507C1661.88 784.295 1661.88 786.413 1662.44 789.238C1663.01 792.062 1669.79 793.757 1673.74 794.887C1677.7 796.017 1677.13 801.666 1677.13 802.795C1677.13 803.925 1678.26 803.36 1680.52 803.925C1682.78 804.49 1683.91 805.055 1683.35 806.467C1683.01 807.313 1681.38 808.527 1680.03 809.4C1679.25 809.907 1678.5 810.521 1678.16 811.39C1676.61 815.411 1682.46 816.318 1683.35 815.788C1686.17 814.093 1688.43 811.834 1690.69 814.093C1692.5 815.901 1699.73 819.366 1703.12 820.872C1708.2 823.132 1719.5 829.91 1715.54 836.124C1710.4 844.212 1707.64 842.903 1709.9 846.292C1711.76 849.087 1717.68 845.798 1722.73 842.993L1722.89 842.903C1724.98 841.739 1721.76 845.728 1730.23 848.552Z" fill="#808285" fill-opacity="0.09" stroke="#808285" stroke-opacity="0.09"/>
<defs>
<radialGradient id="paint0_radial_144_1354" cx="0" cy="0" r="1" gradientUnits="userSpaceOnUse" gradientTransform="translate(1480.55 413.581) rotate(90) scale(358.145 504.453)">
<stop stop-color="#808285"/>
<stop offset="1" stop-color="#808285" stop-opacity="0"/>
</radialGradient>
</defs>
</svg>
