<svg width="711" height="694" viewBox="0 0 711 694" fill="none" xmlns="http://www.w3.org/2000/svg">
<path d="M710.593 -2.89199C704.306 8.0443 693.609 16.3996 681.472 19.8117C675.753 21.4303 669.379 22.174 665.056 26.286C662.393 28.8233 660.865 32.3229 659.424 35.735C656.586 42.428 653.705 49.296 653.574 56.5577C653.399 63.8194 656.63 71.6498 663.135 74.7994C654.054 79.3052 653.137 94.3535 661.651 99.9091C658.202 108.571 643.663 103.715 636.809 110.058C631.482 114.957 633.534 123.794 636.765 130.312C639.952 136.83 644.056 144.092 641.437 150.872C631.701 147.066 621.965 143.261 612.185 139.455C608.518 147.416 619.083 157.303 626.767 153.06C619.389 166.358 599.742 163.733 585.902 170.033C571.145 176.726 563.199 194.005 548.312 200.348C540.977 203.454 532.638 203.629 525.303 206.779C517.968 209.928 511.681 218.415 515.13 225.633C515.829 227.076 516.877 228.476 516.659 230.051C516.484 231.713 515 232.851 513.733 233.901C501.771 244.137 501.64 262.291 502.469 278.039C498.191 281.233 492.166 276.902 489.808 272.09C487.451 267.278 486.228 261.416 481.731 258.573C477.234 255.729 471.209 257.086 466.319 255.073C461.823 253.236 458.985 248.861 456.365 244.793C451.519 237.094 446.629 229.395 441.783 221.696C437.679 215.221 433.488 208.485 432.353 200.917C431.217 193.349 433.924 184.6 440.735 181.1C445.538 178.607 453.309 174.845 449.86 170.689C449.074 169.77 447.895 169.333 446.76 168.895C437.941 165.746 429.165 162.64 420.346 159.49C423.752 148.86 436.064 141.992 446.891 144.66C450.864 138.274 441.652 131.274 434.143 131.406C426.633 131.537 418.251 134.249 412.138 129.875C417.814 121.957 417.508 110.714 412.924 102.096C408.34 93.4786 400.132 87.2668 391.226 83.3297C387.253 81.5799 383.018 80.2238 378.695 80.1363C371.841 80.0488 365.248 83.1985 358.394 83.2422C348.702 83.286 339.839 76.9867 334.25 69.0251C328.662 61.0634 325.824 51.527 323.073 42.2093C330.888 46.54 341.192 46.8025 348.483 41.5968C355.774 36.3912 358.743 25.4549 353.984 17.8432C363.851 15.6122 373.762 13.425 383.629 11.194C386.117 10.6253 388.693 10.0566 390.833 8.65673C393.583 6.90693 395.461 4.01975 397.949 1.91998C402.752 -2.10458 409.388 -2.97948 415.631 -3.6794C432.309 -5.5167 448.987 -7.39774 465.665 -9.23504C468.852 -9.585 472.17 -9.93496 475.27 -9.1038C483.477 -6.91654 490.9 3.05735 498.278 -1.18593C498.584 -4.42307 497.623 -7.7477 495.615 -10.3287C505.002 -14.6594 515.829 -13.3471 526.176 -13.1721C547.002 -12.8659 567.565 -17.6779 588.391 -17.9841C608.823 -18.2903 629.256 -14.1782 647.986 -5.9979C641.742 -1.66712 634.582 1.39504 627.116 2.88237C632.006 2.57616 636.94 3.40732 641.437 5.3321C637.857 3.80102 621.659 16.6184 619.083 18.9368C627.902 25.8048 647.287 11.5877 656.412 7.25689C673.657 -0.967201 691.295 -5.69168 710.549 -2.84824L710.593 -2.89199Z" fill="#808285" fill-opacity="0.09"/>
<path d="M-47.4799 142.561C-69.5274 151.756 -92.4061 160.907 -116.247 160.6C-126.615 160.469 -136.851 158.542 -147 156.66C-169.135 152.5 -191.489 148.297 -212.049 139.19C-217.561 136.738 -223.073 133.936 -229.066 133.586C-235.759 133.192 -242.233 135.906 -248.27 138.884C-266.511 147.947 -283.222 160.075 -297.483 174.655C-282.653 176.975 -268.874 185.381 -259.993 197.509C-266.993 200.924 -276.442 197.772 -280.029 190.854C-289.434 188.14 -300.414 195.583 -301.333 205.346C-302.251 215.11 -292.933 224.48 -283.178 223.604C-279.722 219.007 -274.386 215.898 -268.655 215.154C-265.987 219.664 -263.274 224.217 -260.606 228.727C-265.287 234.375 -273.511 234.988 -280.685 236.608C-287.859 238.228 -295.908 243.263 -295.077 250.574C-293.721 262.746 -270.361 263.753 -271.367 275.969C-271.017 271.809 -222.766 268.613 -246.126 296.328C-249.801 300.662 -255.269 303.815 -260.912 303.333C-259.337 307.799 -259.687 313.316 -263.187 316.468C-266.686 319.62 -273.554 318.482 -274.648 313.885C-278.41 321.897 -288.69 323.78 -297.483 324.656C-298.533 328.202 -299.583 331.705 -300.589 335.251C-301.289 330.829 -307.107 328.246 -310.913 330.566C-314.719 332.887 -315.068 339.192 -311.613 341.994C-308.419 344.621 -303.739 343.964 -299.626 343.22C-298.095 342.913 -296.346 342.475 -295.689 341.074C-295.296 340.199 -295.427 339.192 -295.383 338.272C-295.252 333.631 -291.184 329.953 -286.853 328.29C-282.522 326.626 -277.754 326.451 -273.248 325.4C-265.768 323.649 -259.031 319.577 -253.082 314.761C-246.564 309.507 -240.746 303.333 -233.353 299.393C-230.509 297.904 -227.491 296.766 -224.779 295.058C-204.787 282.624 -217.517 261.126 -187.945 257.448C-187.508 261.564 -190.351 265.767 -194.288 266.949C-184.796 273.955 -174.428 251.888 -163.317 255.828C-160.167 256.923 -158.155 259.944 -155.486 261.871C-150.5 265.461 -143.807 265.242 -137.682 265.767C-113.229 267.869 -90.9625 285.995 -83.9195 309.507C-73.2457 306.354 -64.3217 317.782 -59.0286 327.589C-50.2358 343.789 -41.4431 359.945 -32.6941 376.145C-27.1384 386.434 -21.4953 396.81 -18.6082 408.15C-14.4524 424.35 -16.1147 441.556 -12.2651 457.844C-8.41553 474.131 4.13931 490.681 20.8062 490.2C23.5184 515.681 30.955 540.681 42.6787 563.449C36.9919 569.228 46.1346 577.853 53.9649 580.13C61.7953 582.407 72.0754 588.186 68.6633 595.586C77.8935 585.34 66.126 569.841 54.9273 561.829C43.7286 553.816 30.5613 540.55 37.5605 528.641C41.3663 524.788 48.1031 529.298 49.8966 534.421C51.6902 539.543 51.5152 545.629 55.1461 549.701C58.2957 553.247 63.4576 554.167 67.5259 556.575C82.3555 565.375 79.2496 590.463 93.598 600.008C98.8474 603.51 105.759 604.298 110.265 608.677C113.546 611.829 115.033 616.295 117.177 620.279C124.701 634.377 139.88 642.39 154.185 649.526C158.341 651.628 162.54 653.686 166.696 655.787C190.581 667.74 214.466 679.737 238.35 691.69C240.625 692.828 243.294 694.01 245.7 693.047C255.498 689.15 235.463 671.681 243.819 665.201C232.095 659.553 220.371 653.861 208.647 648.213C215.953 641.689 216.915 629.211 210.703 621.593C215.034 620.586 218.621 616.908 219.54 612.573C214.378 607.188 204.929 611.654 200.905 617.915C196.88 624.22 195.261 632.101 189.881 637.223C177.632 648.826 155.978 636.523 151.254 620.323C146.53 604.123 151.954 586.96 153.747 570.148C154.491 563.361 155.06 555.655 160.397 551.452C172.645 541.82 190.712 562.091 204.973 555.787C210.441 553.379 213.634 547.555 218.753 544.534C227.589 539.28 239.619 544.14 245.787 552.415C251.911 560.69 253.617 571.286 255.192 581.487C258.079 586.26 266.128 581.006 265.691 575.445C265.254 569.885 260.66 565.725 257.642 561.041C249.943 549.088 253.442 531.312 265.079 523.168C275.446 515.944 292.463 513.098 293.163 500.489C293.6 492.345 285.858 485.646 285.551 477.502C285.289 470.322 290.713 464.324 295.788 459.245C310.136 444.84 324.441 430.436 338.789 416.031C342.157 412.66 346.226 409.026 350.95 409.551C355.675 410.076 358.343 417.914 353.837 419.49C370.723 420.147 393.383 416.075 394.739 399.174C387.915 405.173 379.822 409.682 371.16 412.353C370.242 404.341 372.604 395.978 377.591 389.586C371.292 378.728 356.243 375.75 344.257 379.472C332.271 383.194 322.691 392.038 313.548 400.619C327.328 384.376 345.701 370.759 366.873 368.307C374.835 367.388 383.365 367.913 390.277 363.885C399.901 358.281 408.431 344.095 418.143 349.612C411.056 362.046 403.969 374.525 396.883 386.959C404.538 386.39 412.193 385.821 419.805 385.251C422.911 390.549 424.442 396.766 424.092 402.94C433.453 402.283 446.314 396.11 442.159 387.703C440.015 383.413 434.503 382.362 430.829 379.341C420.724 371.022 428.598 353.99 423.523 341.906C420.986 335.864 415.43 331.748 410.4 327.589C388.877 309.944 372.035 286.652 361.93 260.732C359.481 266.906 356.768 273.385 351.431 277.326C346.094 281.266 337.346 281.354 333.846 275.706C331.921 272.597 332.052 268.701 331.046 265.242C328.771 257.317 321.204 252.282 314.204 247.991C305.674 242.737 295.656 237.308 286.208 240.592C276.759 243.876 274.571 260.864 284.458 262.44C275.271 262.79 275.578 277.063 280.827 284.638C286.076 292.212 293.425 301.626 288.395 309.331C283.933 316.162 272.646 315.505 268.141 322.335C263.81 328.902 268.534 337.396 271.815 344.533C275.096 351.67 275.009 362.922 267.31 364.454C260.704 365.768 255.936 358.106 254.711 351.495C252.786 341.074 254.142 329.822 249.287 320.409C244.431 310.995 228.858 306.573 223.958 315.986C221.29 306.442 213.547 298.429 204.054 295.496C196.355 293.088 187.781 293.832 180.476 290.417C169.539 285.294 164.64 272.729 160.747 261.301C175.008 253.114 190.231 243.919 196.618 228.77C198.324 224.699 199.461 220.101 202.698 217.08C205.629 214.366 209.741 213.403 212.978 211.082C216.215 208.762 218.271 203.639 215.384 200.924C219.584 198.341 224.702 197.378 229.558 198.166C237.869 209.418 212.41 228.595 224.396 235.82C230.826 239.716 237.825 231.704 241.15 224.961C246.356 227.063 251.561 229.165 256.811 231.266C263.548 225.793 255.63 215.329 247.931 211.389C240.231 207.404 230.476 200.268 234.326 192.518C241.238 192.387 248.106 192.255 255.017 192.124C255.455 185.513 251.08 178.901 244.868 176.756C248.412 171.283 251.955 165.81 255.498 160.337C252.261 156.791 247.056 155.171 242.375 156.353C256.33 154.295 269.978 150.005 282.62 143.744C292.944 155.565 302.699 167.912 311.755 180.74C313.198 182.798 314.729 185.075 314.642 187.571C314.511 193.087 307.861 195.408 303.093 198.122C298.281 200.793 295.394 209.331 300.731 210.688C299.987 214.76 293.907 214.716 290.451 212.439C286.995 210.163 283.845 206.529 279.733 206.791C271.947 207.229 273.215 221.021 280.696 223.341C288.176 225.662 295.788 220.846 302.131 216.249C316.698 229.427 334.108 239.454 352.787 245.496C345.263 243.919 339.751 235.732 341.151 228.158C349.9 230.697 358.256 234.637 365.736 239.848C372.079 232.098 363.943 220.846 355.631 215.329C347.319 209.769 336.864 202.895 338.177 192.956C349.113 192.693 359.962 198.91 365.211 208.499C369.367 202.588 373.479 196.721 377.635 190.81C372.954 175.311 343.076 180.04 339.926 164.147C339.314 161.082 339.926 157.579 338.002 155.083C335.027 151.231 329.034 153.113 324.178 152.982C307.205 152.456 296.881 123.954 281.221 130.565C287.782 118.262 269.147 102.719 258.254 111.388C264.247 113.621 270.766 116.729 272.953 122.728C275.14 128.726 268.753 136.957 263.198 133.805C257.555 130.652 260.267 121.721 257.161 116.029C253.399 109.111 241.981 110.512 237.432 116.905C232.839 123.297 233.407 132.01 235.245 139.672C231.482 139.584 227.677 139.497 223.915 139.409C223.083 128.682 225.183 117.78 229.864 108.104C225.446 101.493 215.341 107.841 210.485 114.146C205.367 120.757 200.073 127.719 198.455 135.95C196.836 144.181 200.205 153.989 208.035 156.966C213.066 158.849 218.84 157.667 223.871 159.637C235.288 164.147 230.782 185.469 218.534 184.987C214.728 178.77 212.541 171.546 212.147 164.278C206.242 166.029 200.73 169.094 196.136 173.21C190.143 158.411 181.788 144.532 171.508 132.272C173.958 127.544 176.407 122.815 178.857 118.087C188.7 122.377 201.298 111.826 198.849 101.405C190.668 99.1286 182.094 96.8081 173.783 98.6908C165.515 100.573 157.816 108.148 158.997 116.554C159.697 121.589 163.284 125.793 164.596 130.74C165.909 135.644 162.978 142.561 157.947 141.73C155.322 153.682 180.651 153.989 181.788 166.204C182.575 174.742 170.983 178.113 162.409 178.026C164.902 186.257 164.509 195.364 161.315 203.376C154.885 191.292 158.384 174.742 169.233 166.336C162.759 156.353 147.711 153.201 137.78 159.724C141.499 165.416 147.404 169.663 153.966 171.371C150.51 175.399 147.011 179.427 143.555 183.455C136.031 178.026 125.707 182.273 116.477 182.842C107.203 183.367 95.9602 173.166 102.522 166.555C96.9663 163.183 89.3984 162.045 84.1053 165.81C78.8121 169.619 78.3747 179.252 84.2802 181.966C71.9879 185.119 51.6027 162.483 42.7224 179.821C37.1668 162.176 28.1991 156.922 10.5698 156.003C-1.15387 155.39 -35.8437 146.721 -41.8368 156.572C-42.3617 155.302 -47.2612 142.868 -47.0424 142.78L-47.4799 142.561Z" fill="#808285" fill-opacity="0.09"/>
<path d="M-13.5905 95.0794C-20.262 95.7827 -23.9928 103.299 -24.8706 109.98C-25.7046 116.661 -25.0901 123.825 -28.3819 129.715C-29.172 131.166 -30.2254 132.528 -30.4888 134.199C-31.2349 138.902 -25.134 141.891 -20.4815 141.143C-6.83121 138.946 1.77157 120.265 15.3779 122.595C15.5096 126.243 15.6413 129.935 15.773 133.583C24.7707 133.671 33.7246 132.353 42.3274 129.715C44.9609 131.43 43.4685 135.869 40.7034 137.231C37.9382 138.594 34.6024 138.155 31.4861 138.418C28.3698 138.726 24.8585 140.396 24.5074 143.473C30.5205 141.715 36.7531 139.957 42.8979 141.143C49.0428 142.33 54.8803 147.429 54.7048 153.67C46.0143 153.275 37.2798 153.582 28.6332 154.637C33.3735 160.307 42.0201 159.648 49.35 160.439C56.6799 161.23 65.4143 167.12 62.8247 174.065C72.7881 163.56 89.3791 160.044 102.722 165.582C106.058 166.988 109.218 168.878 112.773 169.582C116.329 170.285 120.498 169.494 122.473 166.461C124.448 163.428 122.473 158.286 118.874 158.417C123.571 157.758 127.653 154.022 128.75 149.451C120.718 152.088 111.018 147.605 107.77 139.781C104.829 132.704 106.585 123.562 101.274 117.98C105.882 119.386 110.447 113.892 109.35 109.189C108.252 104.486 103.205 101.585 98.3769 101.453C95.2167 101.365 91.837 102.42 89.9497 104.969C88.0624 107.518 88.4135 111.738 91.1786 113.32C87.4918 111.518 83.761 109.716 80.0741 107.914C78.5818 117.013 96.4456 122.419 92.232 130.638C89.5547 135.869 80.4691 132.572 79.4157 126.814C78.7134 123.034 79.5913 117.98 76.1238 116.265C69.4962 113.057 64.6681 129.32 58.3478 125.584C58.7428 121.935 59.1378 118.287 59.5328 114.639C51.369 113.98 42.9857 116.925 37.0165 122.551C37.7626 119.034 38.5088 115.474 39.2549 111.958C30.3888 107.035 21.6105 124.485 12.0861 121.144C21.3033 124.309 41.8884 106.332 25.6925 98.7276C21.83 96.8815 13.7101 99.7386 9.4087 99.4309C1.81546 98.9034 -6.04113 94.2443 -13.6344 95.0794H-13.5905Z" fill="#808285" fill-opacity="0.09"/>
<path d="M26.8079 58.9524C20.3699 55.7173 12.5361 59.222 7.0435 63.8948C1.5959 68.5676 -2.95126 74.5883 -9.47938 77.5987C-12.5859 79.0365 -16.2326 79.9351 -18.1235 82.7208C-7.27335 82.5861 3.53183 81.8222 14.292 80.5192C13.7067 84.1586 11.8608 87.6183 9.15952 90.1345C14.2019 91.9766 18.3889 85.6414 19.1093 80.3395C19.3344 78.6771 19.5144 76.8349 20.8201 75.8015C21.8556 74.9927 23.3413 74.9927 24.6469 74.7681C29.1941 74.0492 33.246 69.7358 32.6607 65.1528C32.1205 60.5699 26.0876 57.3349 22.3508 60.0756" fill="#808285" fill-opacity="0.09"/>
<path d="M59.7089 86.7324C61.0536 86.0287 61.7708 84.4012 61.3674 82.9936C54.6436 83.2136 48.2783 77.7593 47.5611 71.2054C43.7509 68.8302 37.9236 70.6776 36.265 74.8123C34.6065 78.9469 37.6098 84.2252 42.0475 85.017C35.5478 87.7441 29.0481 90.4712 22.5483 93.1984C34.9651 99.7522 49.7127 85.4568 63.4742 88.3159C63.4742 89.9434 63.4742 91.5709 63.4742 93.2423C57.5124 93.3303 51.6402 96.0134 47.7852 100.456C58.0503 101.336 68.6292 98.8285 77.3254 93.4183C79.7908 91.8788 82.2114 90.0753 85.125 89.6795C87.6801 89.3276 90.1903 90.1193 92.7454 90.4712C98.7521 91.307 106.372 87.964 106.148 82.0259C102.114 80.7064 97.7659 80.1785 93.5074 80.5304C92.2075 72.7889 82.3907 67.8185 75.1737 71.2054C75.3082 76.5277 77.8184 81.762 81.9424 85.1929C77.8633 88.7118 71.498 89.3276 66.7913 86.6884C64.55 85.4568 62.4881 83.4775 59.933 83.4775C57.1538 83.4775 53.5677 85.4129 52.1781 83.0816" fill="#808285" fill-opacity="0.09"/>
<path d="M66.5823 50.0083C56.5938 48.8437 46.296 50.5259 37.2356 54.7531C42.1415 56.9098 47.0031 59.0665 51.909 61.2232C53.0139 61.6977 54.163 62.2153 55.4005 62.2153C56.4613 62.2153 57.522 61.7839 58.4943 61.3526C63.2234 59.3684 67.9083 57.3842 72.6373 55.4001C71.8418 54.2354 71.002 53.0708 70.2065 51.9062C72.3279 53.2865 75.4659 51.2592 75.6427 48.8005C75.7753 46.3419 73.6538 44.142 71.223 43.4087C68.7922 42.6755 66.1846 43.0637 63.7095 43.6675C60.8367 44.3146 58.0082 45.2204 55.2679 46.3419C56.6822 49.275 59.555 51.518 62.7814 52.2944C62.8256 53.459 62.8698 54.6237 62.9582 55.7883" fill="#808285" fill-opacity="0.09"/>
<path d="M136.493 51.3412C134.34 51.4235 133.066 49.036 132.935 47.0189C132.847 45.0018 133.286 42.8201 132.232 41.05C129.596 36.7277 122.523 39.9385 117.295 39.1152C114.176 38.6624 111.628 36.6042 108.641 35.5751C105.698 34.546 101.48 35.1223 100.646 37.9626C99.6792 41.1323 103.853 43.7257 107.367 43.7669C110.881 43.8492 114.528 42.6554 117.91 43.6845C118.525 43.8904 119.14 44.1785 119.536 44.6725C122.04 47.801 113.078 50.0651 113.913 53.8934C114.308 55.787 116.812 56.3633 118.877 56.5691C121.908 56.8573 124.895 57.1866 127.926 57.4748C131.046 57.8041 134.56 58.0099 137.064 56.2398C139.568 54.4697 139.656 49.8593 136.581 49.1595" fill="#808285" fill-opacity="0.09"/>
<path d="M152.699 83.0403C154.506 80.8721 153.421 77.2737 151.117 75.6129C148.858 73.9521 145.876 73.7675 143.12 73.7214C134.988 73.6753 126.855 74.7363 118.994 76.9046C116.554 77.5505 114.024 78.3347 111.585 77.8273C109.145 77.2737 106.841 74.8747 107.383 72.3835C104.039 76.2587 108.06 82.6712 112.94 84.0091C117.819 85.347 123.015 83.8246 128.075 84.1014C133.135 84.3782 138.919 87.9304 138.376 93.0512C138.241 94.2968 137.789 95.5885 138.286 96.6957C138.873 98.0336 140.545 98.4488 141.991 98.3565C148.723 98.0336 153.873 89.9603 151.433 83.5478C149.807 83.8246 148.09 82.8558 147.412 81.3334C150.349 80.1339 152.653 77.4121 153.376 74.275C147.909 72.1529 141.494 72.6603 136.388 75.6129" fill="#808285" fill-opacity="0.09"/>
<path d="M148.755 109.146C151.396 107.051 149.65 101.882 146.54 100.904C143.431 99.9265 140.109 101.696 137.553 103.884C137.383 106.818 137.212 109.752 137.042 112.685C133.933 111.987 130.61 112.685 127.969 114.594C132.527 115.945 136.275 120.182 137.34 125.211C132.996 128.47 126.095 126.189 124.136 120.834C123.242 118.366 122.901 115.013 120.558 114.175C117.278 113.011 115.319 118.692 116.853 122.138C120.856 131.125 133.123 130.566 139.981 137.224C142.451 139.646 146.157 143.045 148.244 140.251C149.905 138.016 147.733 134.896 145.731 133.034C148.159 133.36 150.715 133.592 152.929 132.428C155.144 131.264 156.635 128.191 155.443 125.863C154.804 124.652 153.654 123.907 152.674 123.069C149.053 119.856 147.733 113.896 149.607 109.286L145.689 107.47" fill="#808285" fill-opacity="0.09"/>
<path d="M272.029 86.949C263.538 81.8582 252.946 80.2919 243.317 82.685C236.358 84.4254 229.836 88.1238 222.702 88.6024C212.241 89.3421 202.218 82.8155 196.528 74.0698C204.45 68.6744 216.049 79.2476 224.409 74.5484C226.816 73.1996 228.479 70.7195 231.018 69.5882C233.6 68.4569 236.576 68.9355 239.378 69.4141C252.771 71.8072 266.12 74.1568 279.514 76.5499C281.089 70.85 276.187 64.3669 270.278 64.2363C277.281 61.4516 284.284 58.6234 291.287 55.8387C294.833 54.4029 298.597 52.793 300.523 49.5297C302.448 46.2663 301.092 40.958 297.284 40.4794C313.434 34.91 329.06 27.8612 343.941 19.5507C342.453 16.9835 340.965 14.4164 339.433 11.8057C349.806 12.85 360.53 9.71719 368.627 3.23407C357.028 2.27683 345.21 3.3646 333.962 6.45387C353.308 8.89049 373.31 5.62717 390.861 -2.72692C384.559 -8.20929 373.047 -1.07351 366.832 -6.6429C364.95 -8.29632 364.031 -10.8199 362.149 -12.4734C359.829 -14.4749 356.503 -14.7794 353.395 -14.91C321.838 -16.6069 290.149 -15.6932 258.767 -12.2558C253.602 -11.6902 247.037 -9.68866 246.775 -4.51087C239.246 -4.81544 231.718 -5.12002 224.234 -5.4246C218.806 1.79821 208.171 4.62642 199.854 1.01501C197.972 3.97375 196.09 6.9325 194.208 9.89124C199.461 13.5026 206.026 15.1561 212.372 14.4599C216.268 22.3789 228.829 24.1193 234.738 17.5492C237.364 26.5559 250.889 24.859 258.942 19.9422C266.952 15.0255 277.281 8.75995 284.81 14.4164C274.83 22.1178 262.006 26.0773 249.401 25.4246C252.552 29.2101 255.703 32.9955 258.855 36.781C251.108 37.2596 244.236 32.3429 237.452 28.6009C230.668 24.859 221.783 22.2048 215.524 26.7735C221.17 31.3856 226.86 35.9543 232.506 40.5664C216.924 32.3864 201.299 24.2498 185.717 16.0698C181.165 13.6767 175.869 11.2401 171.011 13.024C166.153 14.808 164.708 23.2491 169.698 24.5979C165.846 25.2941 162.52 28.3834 161.513 32.1253C170.748 32.865 179.852 35.4321 188.124 39.6092C184.229 40.871 180.334 42.0893 176.438 43.3511C185.323 46.2228 194.208 49.0946 203.093 51.9663C204.888 52.5319 206.989 53.1411 208.652 52.1838C210.315 51.2701 210.928 49.2251 211.847 47.5717C214.648 42.6114 221.826 40.6969 226.728 43.6122C225.59 46.2663 224.452 48.964 223.358 51.6182C227.56 51.6182 231.762 51.6617 235.964 51.7052C236.051 54.0113 236.095 56.2738 236.183 58.5799C242.266 59.4936 248.525 59.3631 254.565 58.0578C252.377 66.1508 240.516 66.8905 233.119 62.8005C225.722 58.7105 219.901 51.7052 211.76 49.4426C214.342 55.4906 218.5 60.8425 223.708 64.889C212.854 63.1486 201.561 64.2363 191.232 67.9783C190.225 65.8027 189.219 63.6707 188.212 61.4951C179.721 65.0195 180.99 77.2026 183.748 85.9483C184.579 88.5154 185.411 91.1261 187.118 93.2146C190.969 97.9138 197.885 98.4794 204.013 98.6535C213.204 98.9145 222.439 99.1756 231.631 99.4366C244.455 99.7847 272.467 105.789 271.985 87.1231L272.029 86.949Z" fill="#808285" fill-opacity="0.09"/>
<path d="M171.469 77.4306C174.109 75.6921 178.842 77.1698 180.025 74.3448C180.935 72.2152 178.569 70.2159 176.475 69.0859C174.382 67.9559 171.879 66.2174 172.47 64.0009C170.604 64.2616 168.647 63.8705 167.054 62.9143L179.069 59.9155C180.571 59.5243 182.528 58.2204 181.618 57.0035C181.299 56.5689 180.753 56.395 180.207 56.2647C177.749 55.6562 175.019 55.5693 172.834 54.3089C170.65 53.005 169.421 49.7888 171.332 48.1373C169.967 48.0069 168.602 47.92 167.237 47.7896C167.191 46.7465 167.1 45.7034 167.054 44.6603C159.955 44.4865 152.901 43.9215 145.847 43.0088C144.8 47.5288 149.397 52.3531 154.221 51.8315C154.994 51.7446 155.859 51.5708 156.496 52.0054C157.088 52.3966 157.224 53.0919 157.543 53.7004C158.453 55.4823 160.956 56.3516 162.868 55.5258C162.321 56.8297 161.366 58.0031 160.182 58.8289C162.458 60.0024 165.007 60.7412 167.555 61.0455C165.507 62.5666 163.141 63.6532 160.592 64.1747C161.639 65.0005 162.685 65.7828 163.732 66.6086C161.047 66.6521 158.362 66.6955 155.722 66.739C154.903 69.1294 157.361 71.4329 159.818 72.389C162.549 73.4321 175.792 81.4725 167.828 85.0799C163.323 87.1226 161.411 79.9949 163.004 77.3002C165.507 82.8633 164.733 90.643 169.193 95.5107C172.425 99.0746 177.34 99.7265 180.434 95.0327C185.85 86.9488 172.743 84.5149 171.423 77.4306H171.469Z" fill="#808285" fill-opacity="0.09"/>
<path d="M237.252 606.263C241.005 610.043 246.827 604.373 252.132 603.686C257.265 603.041 261.448 607.337 265.287 610.774C269.126 614.21 275.121 617.089 279.132 613.824C281.03 621.771 292.157 625.723 298.713 620.826C298.109 623.618 301.818 625.551 304.665 625.036C307.512 624.52 310.013 622.759 312.903 622.544C317.043 622.244 321.054 625.895 321.098 630.062C321.184 631.566 319.071 632.124 317.561 631.737C316.095 631.351 314.456 630.577 313.162 631.394C312.256 631.952 311.911 633.069 311.264 633.928C308.935 637.064 304.104 635.861 300.395 634.616C296.686 633.327 291.467 632.983 290.044 636.592C301.646 638.868 313.722 638.697 325.238 636.076C324.289 636.978 324.979 638.74 326.187 639.255C327.395 639.771 328.775 639.47 330.026 639.169C334.942 638.009 339.859 636.806 344.776 635.647C347.752 637.451 351.677 637.451 354.653 635.647C354.437 636.978 354.265 638.353 354.049 639.685C359.829 642.176 367.29 639.771 370.525 634.401C362.33 633.069 354.179 631.694 345.984 630.363C340.118 629.375 334.08 628.387 328.947 625.38C323.901 622.415 319.89 617.604 314.283 615.8C306.476 613.265 297.548 617.217 289.958 614.124C282.625 611.117 278.01 602.01 270.074 601.881C267.487 601.838 264.77 602.783 262.44 601.71C256.488 599.003 257.308 593.376 249.588 596.297C248.164 596.855 238.503 607.423 237.209 606.134L237.252 606.263Z" fill="#808285" fill-opacity="0.09"/>
</svg>
