<svg width="711" height="694" viewBox="0 0 711 694" fill="none" xmlns="http://www.w3.org/2000/svg">
<path d="M710.593 -2.89199C704.306 8.0443 693.609 16.3996 681.472 19.8117C675.753 21.4303 669.379 22.174 665.056 26.286C662.393 28.8233 660.865 32.3229 659.424 35.735C656.586 42.428 653.705 49.296 653.574 56.5577C653.399 63.8194 656.63 71.6498 663.135 74.7994C654.054 79.3052 653.137 94.3535 661.651 99.9091C658.202 108.571 643.663 103.715 636.809 110.058C631.482 114.957 633.534 123.794 636.765 130.312C639.952 136.83 644.056 144.092 641.437 150.872C631.701 147.066 621.965 143.261 612.185 139.455C608.518 147.416 619.083 157.303 626.767 153.06C619.389 166.358 599.742 163.733 585.902 170.033C571.145 176.726 563.199 194.005 548.312 200.348C540.977 203.454 532.638 203.629 525.303 206.779C517.968 209.928 511.681 218.415 515.13 225.633C515.829 227.076 516.877 228.476 516.659 230.051C516.484 231.713 515 232.851 513.733 233.901C501.771 244.137 501.64 262.291 502.469 278.039C498.191 281.233 492.166 276.902 489.808 272.09C487.451 267.278 486.228 261.416 481.731 258.573C477.234 255.729 471.209 257.086 466.319 255.073C461.823 253.236 458.985 248.861 456.365 244.793C451.519 237.094 446.629 229.395 441.783 221.696C437.679 215.221 433.488 208.485 432.353 200.917C431.217 193.349 433.924 184.6 440.735 181.1C445.538 178.607 453.309 174.845 449.86 170.689C449.074 169.77 447.895 169.333 446.76 168.895C437.941 165.746 429.165 162.64 420.346 159.49C423.752 148.86 436.064 141.992 446.891 144.66C450.864 138.274 441.652 131.274 434.143 131.406C426.633 131.537 418.251 134.249 412.138 129.875C417.814 121.957 417.508 110.714 412.924 102.096C408.34 93.4786 400.132 87.2668 391.226 83.3297C387.253 81.5799 383.018 80.2238 378.695 80.1363C371.841 80.0488 365.248 83.1985 358.394 83.2422C348.702 83.286 339.839 76.9867 334.25 69.0251C328.662 61.0634 325.824 51.527 323.073 42.2093C330.888 46.54 341.192 46.8025 348.483 41.5968C355.774 36.3912 358.743 25.4549 353.984 17.8432C363.851 15.6122 373.762 13.425 383.629 11.194C386.117 10.6253 388.693 10.0566 390.833 8.65673C393.583 6.90693 395.461 4.01975 397.949 1.91998C402.752 -2.10458 409.388 -2.97948 415.631 -3.6794C432.309 -5.5167 448.987 -7.39774 465.665 -9.23504C468.852 -9.585 472.17 -9.93496 475.27 -9.1038C483.477 -6.91654 490.9 3.05735 498.278 -1.18593C498.584 -4.42307 497.623 -7.7477 495.615 -10.3287C505.002 -14.6594 515.829 -13.3471 526.176 -13.1721C547.002 -12.8659 567.565 -17.6779 588.391 -17.9841C608.823 -18.2903 629.256 -14.1782 647.986 -5.9979C641.742 -1.66712 634.582 1.39504 627.116 2.88237C632.006 2.57616 636.94 3.40732 641.437 5.3321C637.857 3.80102 621.659 16.6184 619.083 18.9368C627.902 25.8048 647.287 11.5877 656.412 7.25689C673.657 -0.967201 691.295 -5.69168 710.549 -2.84824L710.593 -2.89199Z" fill="#808285" fill-opacity="0.09"/>
<path d="M-46.4799 142.93C-68.5274 152.125 -91.4061 161.276 -115.247 160.969C-125.615 160.838 -135.851 158.911 -146 157.029C-168.135 152.869 -190.489 148.666 -211.049 139.559C-216.561 137.107 -222.073 134.305 -228.066 133.955C-234.759 133.561 -241.233 136.275 -247.27 139.253C-265.511 148.316 -282.222 160.444 -296.483 175.023C-281.653 177.344 -267.874 185.75 -258.993 197.878C-265.993 201.293 -275.442 198.141 -279.029 191.223C-288.434 188.509 -299.414 195.952 -300.333 205.715C-301.251 215.479 -291.933 224.849 -282.178 223.973C-278.722 219.376 -273.386 216.267 -267.655 215.523C-264.987 220.032 -262.274 224.586 -259.606 229.096C-264.287 234.744 -272.511 235.357 -279.685 236.977C-286.859 238.597 -294.908 243.632 -294.077 250.943C-292.721 263.115 -269.361 264.122 -270.367 276.338C-270.017 272.178 -221.766 268.982 -245.126 296.697C-248.801 301.031 -254.269 304.184 -259.912 303.702C-258.337 308.168 -258.687 313.685 -262.187 316.837C-265.686 319.989 -272.554 318.851 -273.648 314.254C-277.41 322.266 -287.69 324.149 -296.483 325.024C-297.533 328.571 -298.583 332.074 -299.589 335.62C-300.289 331.198 -306.107 328.615 -309.913 330.935C-313.719 333.256 -314.068 339.56 -310.613 342.363C-307.419 344.99 -302.739 344.333 -298.626 343.588C-297.095 343.282 -295.346 342.844 -294.689 341.443C-294.296 340.567 -294.427 339.56 -294.383 338.641C-294.252 334 -290.184 330.322 -285.853 328.658C-281.522 326.995 -276.754 326.82 -272.248 325.769C-264.768 324.017 -258.031 319.946 -252.082 315.129C-245.564 309.875 -239.746 303.702 -232.353 299.762C-229.509 298.273 -226.491 297.135 -223.779 295.427C-203.787 282.993 -216.517 261.495 -186.945 257.817C-186.508 261.933 -189.351 266.136 -193.288 267.318C-183.796 274.324 -173.428 252.257 -162.317 256.197C-159.167 257.292 -157.155 260.313 -154.486 262.239C-149.5 265.83 -142.807 265.611 -136.682 266.136C-112.229 268.238 -89.9625 286.364 -82.9195 309.875C-72.2457 306.723 -63.3217 318.15 -58.0286 327.958C-49.2358 344.158 -40.4431 360.314 -31.6941 376.513C-26.1384 386.802 -20.4953 397.179 -17.6082 408.519C-13.4524 424.719 -15.1147 441.925 -11.2651 458.213C-7.41553 474.5 5.13931 491.05 21.8062 490.568C24.5184 516.05 31.955 541.05 43.6787 563.818C37.9919 569.597 47.1346 578.222 54.9649 580.499C62.7953 582.776 73.0754 588.555 69.6633 595.954C78.8935 585.709 67.126 570.21 55.9273 562.198C44.7286 554.185 31.5613 540.919 38.5605 529.01C42.3663 525.157 49.1031 529.667 50.8966 534.789C52.6902 539.912 52.5152 545.998 56.1461 550.07C59.2957 553.616 64.4576 554.536 68.5259 556.944C83.3555 565.744 80.2496 590.832 94.598 600.377C99.8474 603.879 106.759 604.667 111.265 609.046C114.546 612.198 116.033 616.664 118.177 620.648C125.701 634.746 140.88 642.759 155.185 649.895C159.341 651.997 163.54 654.055 167.696 656.156C191.581 668.109 215.466 680.106 239.35 692.058C241.625 693.197 244.294 694.379 246.7 693.416C256.498 689.519 236.463 672.05 244.819 665.57C233.095 659.922 221.371 654.23 209.647 648.582C216.953 642.058 217.915 629.58 211.703 621.962C216.034 620.955 219.621 617.277 220.54 612.942C215.378 607.557 205.929 612.023 201.905 618.284C197.88 624.589 196.261 632.47 190.881 637.592C178.632 649.195 156.978 636.892 152.254 620.692C147.53 604.492 152.954 587.329 154.747 570.516C155.491 563.73 156.06 556.024 161.397 551.821C173.645 542.189 191.712 562.46 205.973 556.156C211.441 553.747 214.634 547.924 219.753 544.903C228.589 539.649 240.619 544.509 246.787 552.784C252.911 561.059 254.617 571.655 256.192 581.856C259.079 586.629 267.128 581.375 266.691 575.814C266.254 570.254 261.66 566.094 258.642 561.41C250.943 549.457 254.442 531.681 266.079 523.537C276.446 516.313 293.463 513.467 294.163 500.858C294.6 492.714 286.858 486.015 286.551 477.871C286.289 470.691 291.713 464.693 296.788 459.614C311.136 445.209 325.441 430.805 339.789 416.4C343.157 413.029 347.226 409.395 351.95 409.92C356.675 410.445 359.343 418.283 354.837 419.859C371.723 420.515 394.383 416.444 395.739 399.543C388.915 405.542 380.822 410.051 372.16 412.722C371.242 404.71 373.604 396.347 378.591 389.955C372.292 379.097 357.243 376.119 345.257 379.841C333.271 383.562 323.691 392.407 314.548 400.988C328.328 384.745 346.701 371.128 367.873 368.676C375.835 367.757 384.365 368.282 391.277 364.254C400.901 358.65 409.431 344.464 419.143 349.981C412.056 362.415 404.969 374.893 397.883 387.328C405.538 386.759 413.193 386.189 420.805 385.62C423.911 390.918 425.442 397.135 425.092 403.309C434.453 402.652 447.314 396.479 443.159 388.072C441.015 383.781 435.503 382.731 431.829 379.71C421.724 371.391 429.598 354.359 424.523 342.275C421.986 336.233 416.43 332.117 411.4 327.958C389.877 310.313 373.035 287.021 362.93 261.101C360.481 267.274 357.768 273.754 352.431 277.695C347.094 281.635 338.346 281.723 334.846 276.075C332.921 272.966 333.052 269.07 332.046 265.611C329.771 257.686 322.204 252.651 315.204 248.36C306.674 243.106 296.656 237.677 287.208 240.961C277.759 244.245 275.571 261.232 285.458 262.809C276.271 263.159 276.578 277.432 281.827 285.007C287.076 292.581 294.425 301.995 289.395 309.7C284.933 316.531 273.646 315.874 269.141 322.704C264.81 329.271 269.534 337.765 272.815 344.902C276.096 352.039 276.009 363.291 268.31 364.823C261.704 366.137 256.936 358.475 255.711 351.863C253.786 341.443 255.142 330.191 250.287 320.777C245.431 311.364 229.858 306.942 224.958 316.355C222.29 306.811 214.547 298.798 205.054 295.865C197.355 293.457 188.781 294.201 181.476 290.786C170.539 285.663 165.64 273.098 161.747 261.67C176.008 253.483 191.231 244.288 197.618 229.139C199.324 225.068 200.461 220.47 203.698 217.449C206.629 214.735 210.741 213.771 213.978 211.451C217.215 209.13 219.271 204.008 216.384 201.293C220.584 198.71 225.702 197.747 230.558 198.535C238.869 209.787 213.41 228.964 225.396 236.188C231.826 240.085 238.825 232.073 242.15 225.33C247.356 227.432 252.561 229.533 257.811 231.635C264.548 226.162 256.63 215.698 248.931 211.757C241.231 207.773 231.476 200.637 235.326 192.887C242.238 192.756 249.106 192.624 256.017 192.493C256.455 185.882 252.08 179.27 245.868 177.125C249.412 171.652 252.955 166.179 256.498 160.706C253.261 157.16 248.056 155.54 243.375 156.722C257.33 154.664 270.978 150.374 283.62 144.113C293.944 155.934 303.699 168.281 312.755 181.109C314.198 183.167 315.729 185.444 315.642 187.939C315.511 193.456 308.861 195.777 304.093 198.491C299.281 201.162 296.394 209.7 301.731 211.057C300.987 215.129 294.907 215.085 291.451 212.808C287.995 210.532 284.845 206.898 280.733 207.16C272.947 207.598 274.215 221.39 281.696 223.71C289.176 226.031 296.788 221.215 303.131 216.617C317.698 229.796 335.108 239.822 353.787 245.865C346.263 244.288 340.751 236.101 342.151 228.526C350.9 231.066 359.256 235.006 366.736 240.217C373.079 232.467 364.943 221.215 356.631 215.698C348.319 210.137 337.864 203.264 339.177 193.325C350.113 193.062 360.962 199.279 366.211 208.868C370.367 202.957 374.479 197.09 378.635 191.179C373.954 175.68 344.076 180.409 340.926 164.515C340.314 161.451 340.926 157.948 339.002 155.452C336.027 151.599 330.034 153.482 325.178 153.351C308.205 152.825 297.881 124.323 282.221 130.934C288.782 118.631 270.147 103.088 259.254 111.757C265.247 113.99 271.766 117.098 273.953 123.097C276.14 129.095 269.753 137.326 264.198 134.174C258.555 131.021 261.267 122.09 258.161 116.398C254.399 109.48 242.981 110.881 238.432 117.273C233.839 123.666 234.407 132.379 236.245 140.041C232.482 139.953 228.677 139.866 224.915 139.778C224.083 129.051 226.183 118.149 230.864 108.473C226.446 101.862 216.341 108.21 211.485 114.515C206.367 121.126 201.073 128.088 199.455 136.319C197.836 144.55 201.205 154.358 209.035 157.335C214.066 159.218 219.84 158.036 224.871 160.006C236.288 164.515 231.782 185.838 219.534 185.356C215.728 179.139 213.541 171.915 213.147 164.647C207.242 166.398 201.73 169.463 197.136 173.579C191.143 158.78 182.788 144.901 172.508 132.641C174.958 127.913 177.407 123.184 179.857 118.456C189.7 122.746 202.298 112.195 199.849 101.774C191.668 99.4975 183.094 97.177 174.783 99.0597C166.515 100.942 158.816 108.517 159.997 116.923C160.697 121.958 164.284 126.161 165.596 131.109C166.909 136.013 163.978 142.93 158.947 142.099C156.322 154.051 181.651 154.358 182.788 166.573C183.575 175.111 171.983 178.482 163.409 178.395C165.902 186.626 165.509 195.733 162.315 203.745C155.885 191.661 159.384 175.111 170.233 166.705C163.759 156.722 148.711 153.57 138.78 160.093C142.499 165.785 148.404 170.032 154.966 171.74C151.51 175.768 148.011 179.796 144.555 183.824C137.031 178.395 126.707 182.642 117.477 183.211C108.203 183.736 96.9602 173.535 103.522 166.924C97.9663 163.552 90.3984 162.414 85.1053 166.179C79.8121 169.988 79.3747 179.621 85.2802 182.335C72.9879 185.488 52.6027 162.852 43.7224 180.19C38.1668 162.545 29.1991 157.291 11.5698 156.372C-0.15387 155.759 -34.8437 147.09 -40.8368 156.941C-41.3617 155.671 -46.2612 143.237 -46.0424 143.149L-46.4799 142.93Z" fill="#808285" fill-opacity="0.09"/>
<path d="M-13.5905 95.0794C-20.262 95.7827 -23.9928 103.299 -24.8706 109.98C-25.7046 116.661 -25.0901 123.825 -28.3819 129.715C-29.172 131.166 -30.2254 132.528 -30.4888 134.199C-31.2349 138.902 -25.134 141.891 -20.4815 141.143C-6.83121 138.946 1.77157 120.265 15.3779 122.595C15.5096 126.243 15.6413 129.935 15.773 133.583C24.7707 133.671 33.7246 132.353 42.3274 129.715C44.9609 131.43 43.4685 135.869 40.7034 137.231C37.9382 138.594 34.6024 138.155 31.4861 138.418C28.3698 138.726 24.8585 140.396 24.5074 143.473C30.5205 141.715 36.7531 139.957 42.8979 141.143C49.0428 142.33 54.8803 147.429 54.7048 153.67C46.0143 153.275 37.2798 153.582 28.6332 154.637C33.3735 160.307 42.0201 159.648 49.35 160.439C56.6799 161.23 65.4143 167.12 62.8247 174.065C72.7881 163.56 89.3791 160.044 102.722 165.582C106.058 166.988 109.218 168.878 112.773 169.582C116.329 170.285 120.498 169.494 122.473 166.461C124.448 163.428 122.473 158.286 118.874 158.417C123.571 157.758 127.653 154.022 128.75 149.451C120.718 152.088 111.018 147.605 107.77 139.781C104.829 132.704 106.585 123.562 101.274 117.98C105.882 119.386 110.447 113.892 109.35 109.189C108.252 104.486 103.205 101.585 98.3769 101.453C95.2167 101.365 91.837 102.42 89.9497 104.969C88.0624 107.518 88.4135 111.738 91.1786 113.32C87.4918 111.518 83.761 109.716 80.0741 107.914C78.5818 117.013 96.4456 122.419 92.232 130.638C89.5547 135.869 80.4691 132.572 79.4157 126.814C78.7134 123.034 79.5913 117.98 76.1238 116.265C69.4962 113.057 64.6681 129.32 58.3478 125.584C58.7428 121.935 59.1378 118.287 59.5328 114.639C51.369 113.98 42.9857 116.925 37.0165 122.551C37.7626 119.034 38.5088 115.474 39.2549 111.958C30.3888 107.035 21.6105 124.485 12.0861 121.144C21.3033 124.309 41.8884 106.332 25.6925 98.7276C21.83 96.8815 13.7101 99.7386 9.4087 99.4309C1.81546 98.9034 -6.04113 94.2443 -13.6344 95.0794H-13.5905Z" fill="#808285" fill-opacity="0.09"/>
<path d="M26.8079 58.9524C20.3699 55.7173 12.5361 59.222 7.0435 63.8948C1.5959 68.5676 -2.95126 74.5883 -9.47938 77.5987C-12.5859 79.0365 -16.2326 79.9351 -18.1235 82.7208C-7.27335 82.5861 3.53183 81.8222 14.292 80.5192C13.7067 84.1586 11.8608 87.6183 9.15952 90.1345C14.2019 91.9766 18.3889 85.6414 19.1093 80.3395C19.3344 78.6771 19.5144 76.8349 20.8201 75.8015C21.8556 74.9927 23.3413 74.9927 24.6469 74.7681C29.1941 74.0492 33.246 69.7358 32.6607 65.1528C32.1205 60.5699 26.0876 57.3349 22.3508 60.0756" fill="#808285" fill-opacity="0.09"/>
<path d="M59.7089 86.7324C61.0536 86.0287 61.7708 84.4012 61.3674 82.9936C54.6436 83.2136 48.2783 77.7593 47.5611 71.2054C43.7509 68.8302 37.9236 70.6776 36.265 74.8123C34.6065 78.9469 37.6098 84.2252 42.0475 85.017C35.5478 87.7441 29.0481 90.4712 22.5483 93.1984C34.9651 99.7522 49.7127 85.4568 63.4742 88.3159C63.4742 89.9434 63.4742 91.5709 63.4742 93.2423C57.5124 93.3303 51.6402 96.0134 47.7852 100.456C58.0503 101.336 68.6292 98.8285 77.3254 93.4183C79.7908 91.8788 82.2114 90.0753 85.125 89.6795C87.6801 89.3276 90.1903 90.1193 92.7454 90.4712C98.7521 91.307 106.372 87.964 106.148 82.0259C102.114 80.7064 97.7659 80.1785 93.5074 80.5304C92.2075 72.7889 82.3907 67.8185 75.1737 71.2054C75.3082 76.5277 77.8184 81.762 81.9424 85.1929C77.8633 88.7118 71.498 89.3276 66.7913 86.6884C64.55 85.4568 62.4881 83.4775 59.933 83.4775C57.1538 83.4775 53.5677 85.4129 52.1781 83.0816" fill="#808285" fill-opacity="0.09"/>
<path d="M66.5823 50.0083C56.5938 48.8437 46.296 50.5259 37.2356 54.7531C42.1415 56.9098 47.0031 59.0665 51.909 61.2232C53.0139 61.6977 54.163 62.2153 55.4005 62.2153C56.4613 62.2153 57.522 61.7839 58.4943 61.3526C63.2234 59.3684 67.9083 57.3842 72.6373 55.4001C71.8418 54.2354 71.002 53.0708 70.2065 51.9062C72.3279 53.2865 75.4659 51.2592 75.6427 48.8005C75.7753 46.3419 73.6538 44.142 71.223 43.4087C68.7922 42.6755 66.1846 43.0637 63.7095 43.6675C60.8367 44.3146 58.0082 45.2204 55.2679 46.3419C56.6822 49.275 59.555 51.518 62.7814 52.2944C62.8256 53.459 62.8698 54.6237 62.9582 55.7883" fill="#808285" fill-opacity="0.09"/>
<path d="M136.493 51.3412C134.34 51.4235 133.066 49.036 132.935 47.0189C132.847 45.0018 133.286 42.8201 132.232 41.05C129.596 36.7277 122.523 39.9385 117.295 39.1152C114.176 38.6624 111.628 36.6042 108.641 35.5751C105.698 34.546 101.48 35.1223 100.646 37.9626C99.6792 41.1323 103.853 43.7257 107.367 43.7669C110.881 43.8492 114.528 42.6554 117.91 43.6845C118.525 43.8904 119.14 44.1785 119.536 44.6725C122.04 47.801 113.078 50.0651 113.913 53.8934C114.308 55.787 116.812 56.3633 118.877 56.5691C121.908 56.8573 124.895 57.1866 127.926 57.4748C131.046 57.8041 134.56 58.0099 137.064 56.2398C139.568 54.4697 139.656 49.8593 136.581 49.1595" fill="#808285" fill-opacity="0.09"/>
<path d="M152.699 83.0403C154.506 80.8721 153.421 77.2737 151.117 75.6129C148.858 73.9521 145.876 73.7675 143.12 73.7214C134.988 73.6753 126.855 74.7363 118.994 76.9046C116.554 77.5505 114.024 78.3347 111.585 77.8273C109.145 77.2737 106.841 74.8747 107.383 72.3835C104.039 76.2587 108.06 82.6712 112.94 84.0091C117.819 85.347 123.015 83.8246 128.075 84.1014C133.135 84.3782 138.919 87.9304 138.376 93.0512C138.241 94.2968 137.789 95.5885 138.286 96.6957C138.873 98.0336 140.545 98.4488 141.991 98.3565C148.723 98.0336 153.873 89.9603 151.433 83.5478C149.807 83.8246 148.09 82.8558 147.412 81.3334C150.349 80.1339 152.653 77.4121 153.376 74.275C147.909 72.1529 141.494 72.6603 136.388 75.6129" fill="#808285" fill-opacity="0.09"/>
<path d="M148.755 109.146C151.396 107.051 149.65 101.882 146.54 100.904C143.431 99.9265 140.109 101.696 137.553 103.884C137.383 106.818 137.212 109.752 137.042 112.685C133.933 111.987 130.61 112.685 127.969 114.594C132.527 115.945 136.275 120.182 137.34 125.211C132.996 128.47 126.095 126.189 124.136 120.834C123.242 118.366 122.901 115.013 120.558 114.175C117.278 113.011 115.319 118.692 116.853 122.138C120.856 131.125 133.123 130.566 139.981 137.224C142.451 139.646 146.157 143.045 148.244 140.251C149.905 138.016 147.733 134.896 145.731 133.034C148.159 133.36 150.715 133.592 152.929 132.428C155.144 131.264 156.635 128.191 155.443 125.863C154.804 124.652 153.654 123.907 152.674 123.069C149.053 119.856 147.733 113.896 149.607 109.286L145.689 107.47" fill="#808285" fill-opacity="0.09"/>
<path d="M272.029 86.949C263.538 81.8582 252.946 80.2919 243.317 82.685C236.358 84.4254 229.836 88.1238 222.702 88.6024C212.241 89.3421 202.218 82.8155 196.528 74.0698C204.45 68.6744 216.049 79.2476 224.409 74.5484C226.816 73.1996 228.479 70.7195 231.018 69.5882C233.6 68.4569 236.576 68.9355 239.378 69.4141C252.771 71.8072 266.12 74.1568 279.514 76.5499C281.089 70.85 276.187 64.3669 270.278 64.2363C277.281 61.4516 284.284 58.6234 291.287 55.8387C294.833 54.4029 298.597 52.793 300.523 49.5297C302.448 46.2663 301.092 40.958 297.284 40.4794C313.434 34.91 329.06 27.8612 343.941 19.5507C342.453 16.9835 340.965 14.4164 339.433 11.8057C349.806 12.85 360.53 9.71719 368.627 3.23407C357.028 2.27683 345.21 3.3646 333.962 6.45387C353.308 8.89049 373.31 5.62717 390.861 -2.72692C384.559 -8.20929 373.047 -1.07351 366.832 -6.6429C364.95 -8.29632 364.031 -10.8199 362.149 -12.4734C359.829 -14.4749 356.503 -14.7794 353.395 -14.91C321.838 -16.6069 290.149 -15.6932 258.767 -12.2558C253.602 -11.6902 247.037 -9.68866 246.775 -4.51087C239.246 -4.81544 231.718 -5.12002 224.234 -5.4246C218.806 1.79821 208.171 4.62642 199.854 1.01501C197.972 3.97375 196.09 6.9325 194.208 9.89124C199.461 13.5026 206.026 15.1561 212.372 14.4599C216.268 22.3789 228.829 24.1193 234.738 17.5492C237.364 26.5559 250.889 24.859 258.942 19.9422C266.952 15.0255 277.281 8.75995 284.81 14.4164C274.83 22.1178 262.006 26.0773 249.401 25.4246C252.552 29.2101 255.703 32.9955 258.855 36.781C251.108 37.2596 244.236 32.3429 237.452 28.6009C230.668 24.859 221.783 22.2048 215.524 26.7735C221.17 31.3856 226.86 35.9543 232.506 40.5664C216.924 32.3864 201.299 24.2498 185.717 16.0698C181.165 13.6767 175.869 11.2401 171.011 13.024C166.153 14.808 164.708 23.2491 169.698 24.5979C165.846 25.2941 162.52 28.3834 161.513 32.1253C170.748 32.865 179.852 35.4321 188.124 39.6092C184.229 40.871 180.334 42.0893 176.438 43.3511C185.323 46.2228 194.208 49.0946 203.093 51.9663C204.888 52.5319 206.989 53.1411 208.652 52.1838C210.315 51.2701 210.928 49.2251 211.847 47.5717C214.648 42.6114 221.826 40.6969 226.728 43.6122C225.59 46.2663 224.452 48.964 223.358 51.6182C227.56 51.6182 231.762 51.6617 235.964 51.7052C236.051 54.0113 236.095 56.2738 236.183 58.5799C242.266 59.4936 248.525 59.3631 254.565 58.0578C252.377 66.1508 240.516 66.8905 233.119 62.8005C225.722 58.7105 219.901 51.7052 211.76 49.4426C214.342 55.4906 218.5 60.8425 223.708 64.889C212.854 63.1486 201.561 64.2363 191.232 67.9783C190.225 65.8027 189.219 63.6707 188.212 61.4951C179.721 65.0195 180.99 77.2026 183.748 85.9483C184.579 88.5154 185.411 91.1261 187.118 93.2146C190.969 97.9138 197.885 98.4794 204.013 98.6535C213.204 98.9145 222.439 99.1756 231.631 99.4366C244.455 99.7847 272.467 105.789 271.985 87.1231L272.029 86.949Z" fill="#808285" fill-opacity="0.09"/>
<path d="M171.469 77.4306C174.109 75.6921 178.842 77.1698 180.025 74.3448C180.935 72.2152 178.569 70.2159 176.475 69.0859C174.382 67.9559 171.879 66.2174 172.47 64.0009C170.604 64.2616 168.647 63.8705 167.054 62.9143L179.069 59.9155C180.571 59.5243 182.528 58.2204 181.618 57.0035C181.299 56.5689 180.753 56.395 180.207 56.2647C177.749 55.6562 175.019 55.5693 172.834 54.3089C170.65 53.005 169.421 49.7888 171.332 48.1373C169.967 48.0069 168.602 47.92 167.237 47.7896C167.191 46.7465 167.1 45.7034 167.054 44.6603C159.955 44.4865 152.901 43.9215 145.847 43.0088C144.8 47.5288 149.397 52.3531 154.221 51.8315C154.994 51.7446 155.859 51.5708 156.496 52.0054C157.088 52.3966 157.224 53.0919 157.543 53.7004C158.453 55.4823 160.956 56.3516 162.868 55.5258C162.321 56.8297 161.366 58.0031 160.182 58.8289C162.458 60.0024 165.007 60.7412 167.555 61.0455C165.507 62.5666 163.141 63.6532 160.592 64.1747C161.639 65.0005 162.685 65.7828 163.732 66.6086C161.047 66.6521 158.362 66.6955 155.722 66.739C154.903 69.1294 157.361 71.4329 159.818 72.389C162.549 73.4321 175.792 81.4725 167.828 85.0799C163.323 87.1226 161.411 79.9949 163.004 77.3002C165.507 82.8633 164.733 90.643 169.193 95.5107C172.425 99.0746 177.34 99.7265 180.434 95.0327C185.85 86.9488 172.743 84.5149 171.423 77.4306H171.469Z" fill="#808285" fill-opacity="0.09"/>
<path d="M237.252 606.263C241.005 610.043 246.827 604.373 252.132 603.686C257.265 603.041 261.448 607.337 265.287 610.774C269.126 614.21 275.121 617.089 279.132 613.824C281.03 621.771 292.157 625.723 298.713 620.826C298.109 623.618 301.818 625.551 304.665 625.036C307.512 624.52 310.013 622.759 312.903 622.544C317.043 622.244 321.054 625.895 321.098 630.062C321.184 631.566 319.071 632.124 317.561 631.737C316.095 631.351 314.456 630.577 313.162 631.394C312.256 631.952 311.911 633.069 311.264 633.928C308.935 637.064 304.104 635.861 300.395 634.616C296.686 633.327 291.467 632.983 290.044 636.592C301.646 638.868 313.722 638.697 325.238 636.076C324.289 636.978 324.979 638.74 326.187 639.255C327.395 639.771 328.775 639.47 330.026 639.169C334.942 638.009 339.859 636.806 344.776 635.647C347.752 637.451 351.677 637.451 354.653 635.647C354.437 636.978 354.265 638.353 354.049 639.685C359.829 642.176 367.29 639.771 370.525 634.401C362.33 633.069 354.179 631.694 345.984 630.363C340.118 629.375 334.08 628.387 328.947 625.38C323.901 622.415 319.89 617.604 314.283 615.8C306.476 613.265 297.548 617.217 289.958 614.124C282.625 611.117 278.01 602.01 270.074 601.881C267.487 601.838 264.77 602.783 262.44 601.71C256.488 599.003 257.308 593.376 249.588 596.297C248.164 596.855 238.503 607.423 237.209 606.134L237.252 606.263Z" fill="#808285" fill-opacity="0.09"/>
</svg>
