<svg width="258" height="333" viewBox="0 0 258 333" fill="none" xmlns="http://www.w3.org/2000/svg">
<path d="M120.953 91.0707C119.369 87.7628 114.618 86.37 111.451 88.2851C114.222 90.5484 114.486 95.2056 111.979 97.7735C110.703 99.0793 108.944 99.8192 107.492 100.951C102.698 104.607 102.478 112.79 107.096 116.707C104.853 117.838 102.653 119.014 100.41 120.145C98.8265 114.356 94.3397 109.395 88.7093 107.218C81.0114 112.006 75.2489 119.797 73.0495 128.502C72.1698 128.676 71.2461 128.807 70.3663 128.981C69.9705 131.549 69.5306 134.117 69.1347 136.728C67.1552 134.117 66.3635 130.635 66.9793 127.457C62.3166 128.371 59.7213 133.246 58.4456 137.773C57.17 142.299 56.4221 147.305 53.035 150.613C50.5717 153.05 47.0966 154.138 43.7975 155.139C38.6949 156.706 33.5924 158.229 28.4898 159.796C24.2669 161.058 19.6921 162.625 17.4487 166.368C15.6013 169.372 14.4136 174.203 10.8946 173.811C9.39898 173.637 8.25528 172.418 6.75969 172.07C3.7685 171.33 1.0852 174.595 0.953239 177.641C0.821275 180.688 2.27284 183.604 3.10861 186.564C3.90039 189.524 3.85648 193.18 1.39315 195.095C4.20838 195.269 7.15559 196.357 8.82713 198.62C10.4987 200.884 10.4986 204.453 8.34319 206.237C6.18778 208.065 2.0969 207.021 1.61303 204.235C7.81534 220.948 12.2142 238.358 14.6775 255.986C15.6892 263.211 16.261 270.958 12.742 277.356C18.9003 281.927 27.8299 282.405 34.4721 278.532C38.1671 276.355 41.1144 272.96 44.9853 271.089C51.7155 267.825 59.8972 269.696 67.1113 267.563C73.7095 265.605 79.0319 260.338 85.8501 259.163C90.9527 258.293 96.6711 259.729 101.114 257.161C103.225 255.942 104.765 253.94 106.832 252.591C109.12 251.068 111.891 250.458 114.618 250.328C125.483 249.718 136.612 257.117 139.076 267.607C139.691 270.218 139.779 273.004 140.835 275.485C141.891 277.966 144.266 280.229 146.95 279.968C147.609 271.742 155.527 264.778 163.841 265.039C164.237 267.694 162.301 270.131 160.278 271.872C158.254 273.613 155.879 275.224 154.823 277.705C153.768 280.186 154.955 283.798 157.639 283.972C159.002 281.404 160.894 279.141 163.137 277.313C167.36 281.056 165.38 289.282 159.882 290.675C165.161 289.152 172.594 288.629 174.398 293.765C174.882 295.202 174.75 296.812 174.882 298.335C175.674 306.3 184.075 310.958 191.421 314.222C192.917 314.875 194.545 315.571 196.128 315.31C198.899 314.831 200.395 311.915 202.022 309.652C203.65 307.345 206.949 305.343 209.105 307.214C210.952 308.825 210.16 311.959 211.656 313.874C213.635 316.485 218.034 315.092 220.19 312.612C222.345 310.131 223.621 306.823 226.436 305.038C231.626 301.774 241.084 304.342 242.623 298.422C243.459 295.202 240.732 292.242 239.852 289.065C238.445 284.059 241.744 278.967 245.483 275.354C249.222 271.742 253.752 268.608 255.952 263.907C259.647 256.073 255.776 246.759 257.271 238.228C258.767 229.653 265.629 221.166 262.022 213.245C260.615 210.154 257.755 207.804 256.568 204.583C255.424 201.493 255.908 197.75 253.752 195.225C252.389 193.615 250.277 192.875 248.606 191.656C242.931 187.609 242.755 179.513 240.6 172.941C236.641 160.971 225.292 153.137 217.418 143.213C215.967 141.385 214.603 139.427 213.987 137.163C213.283 134.552 213.591 131.766 213.371 129.068C212.844 122.495 208.841 116.271 203.034 113.051C201.759 112.354 200.395 111.745 199.471 110.613C198.196 109.003 198.284 106.783 198.196 104.737C197.932 97.0336 194.852 89.4603 189.662 83.7585C186.231 100.646 182.756 117.534 179.325 134.421C177.345 135.945 174.882 136.859 172.375 137.076C171.363 132.767 170.395 128.458 169.383 124.149C164.457 124.411 159.31 124.585 154.867 122.452C150.468 120.319 147.213 114.922 149.193 110.483C150.293 108.045 152.712 105.347 151.128 103.214C155.527 104.868 159.354 97.7734 156.143 94.3785C151.084 89.025 145.498 96.7724 140.263 96.5113C133.797 96.1631 127.991 87.1535 120.997 91.2448L120.953 91.0707Z" fill="#808285" fill-opacity="0.09"/>
<path d="M213.963 354.772C213.963 355.942 213.871 357.355 215.029 357.92C215.493 358.162 216.049 358.203 216.558 358.243C220.451 358.485 225.409 358.041 226.707 354.812C227.773 352.229 225.734 349.242 226.846 346.7C227.216 345.852 227.865 345.126 228.468 344.399C229.904 342.502 230.738 340.161 230.043 337.982C229.348 335.802 226.799 334.026 224.251 334.47C222.861 334.713 221.702 335.52 220.312 335.843C215.909 336.852 203.305 328.658 204.371 337.861C204.695 340.726 209.283 342.987 210.951 345.368C212.99 348.193 214.056 351.503 213.917 354.812L213.963 354.772Z" fill="#808285" fill-opacity="0.09"/>
<path d="M202.773 2.03846C199.401 2.29546 195.719 2.20979 193.102 0.153809C190.618 2.16695 192.259 6.32175 195.01 7.99223C197.76 9.66271 201.176 9.96253 204.015 11.4617C206.854 12.9608 208.983 16.773 206.942 19.1716C209.205 19.7284 211.511 20.3281 213.774 20.8849C214.306 22.9409 211.866 24.44 210.047 25.5965C208.229 26.753 206.721 29.6656 208.628 30.7365C209.515 32.5783 212.354 32.2784 214.217 31.2932C216.08 30.3081 218.032 28.9375 220.028 29.5372C221.315 29.9226 222.202 31.0791 223.178 31.9786C227.214 35.962 233.336 36.9044 238.526 39.3458C243.672 41.7873 248.374 47.6982 245.579 52.5812C244.515 54.423 242.607 55.6223 241.188 57.2071C239.768 58.792 238.792 61.2334 240.034 62.9467C244.559 63.2466 249.217 61.8331 252.765 59.0918C256.403 62.8611 260.75 66.4162 265.984 67.4871C271.219 68.6007 277.474 66.5019 279.514 61.7046C279.913 60.7623 280.179 59.6915 281.022 59.049C282.176 58.1495 283.861 58.4493 285.325 58.8348C289.717 60.0341 294.019 61.5761 298.189 63.4608C298.988 63.8034 299.83 64.2318 300.185 65.0028C300.718 66.1164 300.052 67.3585 299.875 68.6007C299.21 73.0981 304.976 75.6681 309.59 76.4391C315.844 77.5099 322.188 78.0668 328.575 78.1096C328.797 75.0256 325.337 72.9268 322.232 72.2415C319.127 71.5562 315.622 71.4705 313.227 69.4145C310.432 66.9731 310.166 62.5613 307.239 60.2911C305.021 58.5778 301.161 57.4641 301.738 54.8085C302.359 51.9387 307.549 52.3242 308.569 49.5829C309.19 47.8696 307.638 46.0706 305.908 45.4281C304.178 44.7856 302.226 44.9141 300.363 44.5715C295.749 43.7148 291.979 39.7742 291.535 35.2767C291.358 33.5634 291.58 31.7644 290.87 30.2224C289.805 27.8666 286.966 26.8386 284.393 26.0248C270.82 21.7844 257.246 17.5868 243.716 13.3463C241.764 12.7467 239.635 12.147 237.728 12.7895C232.538 14.5456 232.892 23.5834 227.436 24.5257C224.642 25.0397 222.113 22.8552 220.161 20.8421C218.21 18.8718 215.459 16.0876 215.193 13.2178C215.016 11.2475 217.101 9.5342 216.923 7.77805C216.169 1.09613 208.229 1.69578 202.861 2.08127L202.773 2.03846Z" fill="#808285" fill-opacity="0.09"/>
</svg>
