<svg width="164" height="164" viewBox="0 0 164 164" fill="none" xmlns="http://www.w3.org/2000/svg">
<g filter="url(#filter0_f_371_1272)">
<circle cx="82" cy="82" r="49" fill="url(#paint0_radial_371_1272)" fill-opacity="0.64"/>
</g>
<path d="M81.5 57C81.853 56.9997 82.2026 57.069 82.5288 57.2039C82.855 57.3389 83.1514 57.5368 83.4011 57.7865C83.6507 58.0361 83.8486 58.3325 83.9836 58.6587C84.1185 58.9849 84.1878 59.3345 84.1875 59.6875V62.6019C87.4891 63.1585 90.5353 64.7297 92.9028 67.0972C95.2703 69.4647 96.8415 72.5109 97.3981 75.8125H100.312C101.025 75.8125 101.709 76.0956 102.213 76.5996C102.717 77.1037 103 77.7872 103 78.5C103 79.2128 102.717 79.8963 102.213 80.4003C101.709 80.9044 101.025 81.1875 100.312 81.1875H97.3981C96.8415 84.4891 95.2703 87.5353 92.9028 89.9028C90.5353 92.2703 87.4891 93.8415 84.1875 94.3981V97.3125C84.1875 98.0253 83.9044 98.7088 83.4003 99.2129C82.8963 99.7169 82.2128 100 81.5 100C80.7872 100 80.1037 99.7169 79.5996 99.2129C79.0956 98.7088 78.8125 98.0253 78.8125 97.3125V94.3981C75.5109 93.8415 72.4647 92.2703 70.0972 89.9028C67.7297 87.5353 66.1585 84.4891 65.6019 81.1875H62.6875C61.9747 81.1875 61.2912 80.9044 60.7872 80.4003C60.2831 79.8963 60 79.2128 60 78.5C60 77.7872 60.2831 77.1037 60.7872 76.5996C61.2912 76.0956 61.9747 75.8125 62.6875 75.8125H65.6019C66.1585 72.5109 67.7297 69.4647 70.0972 67.0972C72.4647 64.7297 75.5109 63.1585 78.8125 62.6019V59.6875C78.8122 59.3345 78.8815 58.9849 79.0164 58.6587C79.1514 58.3325 79.3493 58.0361 79.5989 57.7865C79.8486 57.5368 80.145 57.3389 80.4712 57.2039C80.7974 57.069 81.147 56.9997 81.5 57ZM70.75 78.5C70.75 80.6261 71.3805 82.7045 72.5617 84.4724C73.7429 86.2402 75.4218 87.6181 77.3862 88.4317C79.3505 89.2453 81.5119 89.4582 83.5972 89.0434C85.6825 88.6287 87.598 87.6048 89.1014 86.1014C90.6048 84.598 91.6287 82.6825 92.0434 80.5972C92.4582 78.5119 92.2453 76.3505 91.4317 74.3862C90.6181 72.4218 89.2402 70.7429 87.4724 69.5617C85.7045 68.3805 83.6261 67.75 81.5 67.75C78.6489 67.75 75.9146 68.8826 73.8986 70.8986C71.8826 72.9146 70.75 75.6489 70.75 78.5ZM81.5 71.7813C82.8288 71.7813 84.1278 72.1753 85.2327 72.9136C86.3376 73.6518 87.1988 74.7012 87.7073 75.9288C88.2158 77.1565 88.3489 78.5075 88.0896 79.8108C87.8304 81.1141 87.1905 82.3112 86.2509 83.2509C85.3112 84.1905 84.1141 84.8304 82.8108 85.0896C81.5075 85.3489 80.1565 85.2158 78.9288 84.7073C77.7012 84.1988 76.6518 83.3376 75.9136 82.2327C75.1753 81.1278 74.7812 79.8288 74.7812 78.5C74.7812 76.7181 75.4891 75.0091 76.7491 73.7491C78.0091 72.4891 79.7181 71.7813 81.5 71.7813Z" fill="#CD6200"/>
<defs>
<filter id="filter0_f_371_1272" x="0" y="0" width="164" height="164" filterUnits="userSpaceOnUse" color-interpolation-filters="sRGB">
<feFlood flood-opacity="0" result="BackgroundImageFix"/>
<feBlend mode="normal" in="SourceGraphic" in2="BackgroundImageFix" result="shape"/>
<feGaussianBlur stdDeviation="16.5" result="effect1_foregroundBlur_371_1272"/>
</filter>
<radialGradient id="paint0_radial_371_1272" cx="0" cy="0" r="1" gradientUnits="userSpaceOnUse" gradientTransform="translate(82 82) rotate(-118.413) scale(69.3542 155.714)">
<stop stop-color="#FF7A00" stop-opacity="0.42"/>
<stop offset="1" stop-color="#FF7A00" stop-opacity="0"/>
</radialGradient>
</defs>
</svg>
