<svg width="37" height="37" viewBox="0 0 37 37" fill="none" xmlns="http://www.w3.org/2000/svg">
<path d="M18.7905 0.716798C19.0861 0.716535 19.3788 0.774553 19.6519 0.887533C19.925 1.00051 20.1731 1.16624 20.3821 1.37522C20.5911 1.58421 20.7568 1.83235 20.8698 2.10545C20.9828 2.37855 21.0408 2.67125 21.0405 2.9668V5.4068C23.8046 5.87274 26.355 7.18816 28.3371 9.17026C30.3192 11.1524 31.6346 13.7027 32.1005 16.4668H34.5405C35.1373 16.4668 35.7096 16.7038 36.1315 17.1258C36.5535 17.5478 36.7905 18.1201 36.7905 18.7168C36.7905 19.3135 36.5535 19.8858 36.1315 20.3078C35.7096 20.7297 35.1373 20.9668 34.5405 20.9668H32.1005C31.6346 23.7309 30.3192 26.2812 28.3371 28.2633C26.355 30.2454 23.8046 31.5609 21.0405 32.0268V34.4668C21.0405 35.0635 20.8035 35.6358 20.3815 36.0578C19.9596 36.4797 19.3873 36.7168 18.7905 36.7168C18.1938 36.7168 17.6215 36.4797 17.1995 36.0578C16.7776 35.6358 16.5405 35.0635 16.5405 34.4668V32.0268C13.7764 31.5609 11.2261 30.2454 9.24399 28.2633C7.26189 26.2812 5.94647 23.7309 5.48053 20.9668H3.04053C2.44379 20.9668 1.87149 20.7297 1.44954 20.3078C1.02758 19.8858 0.790527 19.3135 0.790527 18.7168C0.790527 18.1201 1.02758 17.5478 1.44954 17.1258C1.87149 16.7038 2.44379 16.4668 3.04053 16.4668H5.48053C5.94647 13.7027 7.26189 11.1524 9.24399 9.17026C11.2261 7.18816 13.7764 5.87274 16.5405 5.4068V2.9668C16.5403 2.67125 16.5983 2.37855 16.7113 2.10545C16.8242 1.83235 16.99 1.58421 17.1989 1.37522C17.4079 1.16624 17.6561 1.00051 17.9292 0.887533C18.2023 0.774553 18.495 0.716535 18.7905 0.716798ZM9.79053 18.7168C9.79053 20.4968 10.3184 22.2369 11.3073 23.7169C12.2962 25.197 13.7018 26.3505 15.3464 27.0317C16.9909 27.7129 18.8005 27.8911 20.5463 27.5439C22.2922 27.1966 23.8958 26.3394 25.1545 25.0808C26.4132 23.8221 27.2703 22.2184 27.6176 20.4726C27.9649 18.7268 27.7866 16.9172 27.1054 15.2726C26.4243 13.6281 25.2707 12.2225 23.7907 11.2336C22.3106 10.2446 20.5706 9.7168 18.7905 9.7168C16.4036 9.7168 14.1144 10.665 12.4266 12.3528C10.7387 14.0407 9.79053 16.3298 9.79053 18.7168ZM18.7905 13.0918C19.903 13.0918 20.9906 13.4217 21.9156 14.0398C22.8406 14.6579 23.5616 15.5364 23.9874 16.5642C24.4131 17.592 24.5245 18.723 24.3074 19.8142C24.0904 20.9053 23.5547 21.9076 22.768 22.6943C21.9813 23.4809 20.9791 24.0167 19.8879 24.2337C18.7968 24.4508 17.6658 24.3394 16.6379 23.9136C15.6101 23.4879 14.7316 22.7669 14.1135 21.8419C13.4954 20.9169 13.1655 19.8293 13.1655 18.7168C13.1655 17.225 13.7582 15.7942 14.8131 14.7393C15.8679 13.6844 17.2987 13.0918 18.7905 13.0918Z" fill="#CD6200"/>
</svg>
