<svg width="29" height="30" viewBox="0 0 29 30" fill="none" xmlns="http://www.w3.org/2000/svg">
<g opacity="0.3">
<path fill-rule="evenodd" clip-rule="evenodd" d="M2.90039 7.125C2.90039 6.50368 3.51148 6 4.26531 6H24.7353C25.4891 6 26.1002 6.50368 26.1002 7.125C26.1002 7.74632 25.4891 8.25 24.7353 8.25H4.26531C3.51148 8.25 2.90039 7.74632 2.90039 7.125Z" fill="white"/>
<path fill-rule="evenodd" clip-rule="evenodd" d="M2.90039 14.9121C2.90039 14.2908 3.51148 13.7871 4.26531 13.7871H24.7353C25.4891 13.7871 26.1002 14.2908 26.1002 14.9121C26.1002 15.5334 25.4891 16.0371 24.7353 16.0371H4.26531C3.51148 16.0371 2.90039 15.5334 2.90039 14.9121Z" fill="white"/>
<path fill-rule="evenodd" clip-rule="evenodd" d="M2.90039 22.699C2.90039 22.0777 3.51148 21.574 4.26531 21.574H24.7353C25.4891 21.574 26.1002 22.0777 26.1002 22.699C26.1002 23.3203 25.4891 23.824 24.7353 23.824H4.26531C3.51148 23.824 2.90039 23.3203 2.90039 22.699Z" fill="white"/>
</g>
</svg>
