<svg width="30" height="33" viewBox="0 0 30 33" fill="none" xmlns="http://www.w3.org/2000/svg">
<path opacity="0.6" d="M16.5148 30.8L19.0198 29.048C22.2239 26.8062 24.7041 23.6779 26.1561 20.0469C27.608 16.4159 27.9687 12.44 27.1938 8.607C27.1554 8.41814 27.0742 8.24062 26.9563 8.0882C26.8383 7.93578 26.6869 7.81253 26.5138 7.728L14.7938 2L3.07875 7.729C2.90538 7.81341 2.75378 7.9366 2.63568 8.08903C2.51759 8.24147 2.43617 8.41904 2.39775 8.608C1.62366 12.4401 1.98451 16.4147 3.43608 20.0447C4.88765 23.6747 7.36685 26.8023 10.5698 29.044L13.0697 30.796C13.5739 31.1488 14.1744 31.338 14.7898 31.338C15.4051 31.338 16.0056 31.1488 16.5098 30.796L16.5148 30.8Z" stroke="#CD6200" stroke-width="3" stroke-linecap="round" stroke-linejoin="round"/>
</svg>
