<svg width="310" height="433" viewBox="0 0 310 433" fill="none" xmlns="http://www.w3.org/2000/svg">
<path d="M3.85495 24.8606C0.832489 32.9629 10.6007 42.4227 18.6168 39.1818C20.9384 38.2183 22.9534 36.5103 25.4064 36.0724C32.2836 34.8461 36.2698 43.5176 37.7153 50.3936C39.3799 58.2331 41.0006 66.5981 38.1095 74.0434C34.6052 82.9778 25.056 89.1968 23.9171 98.7443C22.9972 106.54 28.1223 114.555 25.4941 121.956C24.3114 125.285 21.6393 127.956 20.369 131.285C18.135 137.241 20.807 143.81 23.4353 149.635C32.196 168.905 41.0006 188.176 49.7614 207.446C51.7325 211.782 53.8351 216.293 57.6461 219.183C60.6685 221.461 64.4357 222.512 67.6333 224.57C72.846 227.899 76.0437 233.548 79.0224 238.979C84.5416 249.008 90.1047 259.213 92.4701 270.424C95.6678 285.709 92.6454 301.52 89.6229 316.848C85.1987 339.228 80.7745 361.651 76.3503 384.031C71.4881 408.688 66.6259 433.301 61.7636 457.959C66.9763 454.805 70.831 449.506 72.2765 443.594C74.7734 459.623 71.6195 476.441 63.472 490.455C62.7711 484.411 62.0703 478.368 61.3694 472.324C55.4121 485.2 52.3458 499.346 52.4334 513.536C52.4334 516.076 52.6525 518.879 54.4484 520.718C56.113 522.47 58.7412 522.864 60.8876 523.959C65.5308 526.412 67.5458 532.894 65.0489 537.536C67.5019 538.105 69.9988 538.674 72.4518 539.244C76.2627 542.266 67.2391 546.514 67.2829 551.375C67.2829 553.346 68.9037 554.923 70.393 556.237C77.3578 562.368 84.3226 568.543 91.3312 574.675C96.1935 576.12 101.231 577.565 106.225 576.777C111.218 575.989 116.168 572.31 116.606 567.273C117.219 560.354 110.035 555.711 105.392 550.543C98.1646 542.529 96.4124 530.747 98.2084 520.105C100.048 509.463 104.998 499.652 109.86 490.061C106.706 488.879 103.552 487.696 100.355 486.47C100.574 479.375 107.845 474.952 112.401 469.521C120.724 459.623 119.804 443.287 110.43 434.396C113.89 431.944 117.351 429.491 120.855 427.083C123.702 431.637 126.55 436.192 129.397 440.747C136.493 435.053 139.165 424.411 135.617 416.002C151.737 420.119 169.959 406.936 171.054 390.294C167.068 390.163 163.914 385.564 165.228 381.798C166.542 378.031 171.843 376.367 175.084 378.688C173.288 383.287 178.588 388.323 183.495 387.71C188.401 387.097 192.08 382.717 193.701 378.031C195.365 373.389 195.497 368.352 196.417 363.491C197.906 355.695 201.41 348.294 206.535 342.25C210.784 337.213 216.26 332.921 218.757 326.834C220.596 322.366 220.596 317.417 221.385 312.644C223.925 297.096 235.358 283.344 250.208 278.001C250.821 284.965 261.816 283.519 266.941 278.789C274.65 271.738 279.819 262.016 281.396 251.724C282.754 242.702 281.571 232.935 285.82 224.833C287.616 221.417 290.376 218.439 291.427 214.716C292.303 211.519 291.865 208.147 292.04 204.818C292.96 187.037 312.015 172.978 309.825 155.329C308.379 143.854 298.392 135.621 289.193 128.657C275.088 118.015 260.107 106.978 242.586 104.788C231.46 103.387 219.457 105.577 209.47 100.54C213.938 100.277 217.092 95.6348 217.311 91.1677C217.53 86.7005 215.603 82.4523 213.719 78.423C212.449 75.7077 211.179 72.9485 209.908 70.2331C204.739 59.1528 196.241 46.1454 184.152 47.8972C180.56 48.4228 176.617 50.2184 173.551 48.2476C170.748 46.452 170.441 42.5541 168.908 39.576C162.95 27.9701 140.304 32.7 136.887 20.0868C136.011 16.8021 136.756 12.8167 134.39 10.3641C132.463 8.39328 129.353 8.34954 126.593 8.43713C114.065 8.91888 101.581 9.35681 89.0534 9.83856C88.6154 14.7437 85.4177 19.3423 80.9497 21.4007C81.6068 24.2912 82.2638 27.1818 82.9209 30.0285C81.9134 35.1526 73.284 34.5395 71.05 29.8095C68.816 25.0795 70.9624 19.5175 73.6344 15.0065C76.2627 10.4955 79.5042 5.94074 79.4604 0.685227C73.7659 -2.03012 68.0276 3.8823 63.9101 8.65605C59.7925 13.4298 51.7764 17.5904 48.0092 12.5101C48.4911 17.7218 48.9729 22.8897 49.4548 28.1015C41.3949 35.1526 26.852 32.0431 22.3402 22.3642C19.2301 26.2182 15.7696 30.2912 10.995 31.6489C6.22038 33.0066 -0.0435754 29.9847 0.000228472 25.0358C2.45324 35.7658 13.0538 43.9994 24.0485 43.7366" fill="#808285" fill-opacity="0.09"/>
</svg>
