<svg width="310" height="433" viewBox="0 0 310 433" fill="none" xmlns="http://www.w3.org/2000/svg">
<path d="M3.85495 24.8606C0.832489 32.9629 10.6007 42.4227 18.6168 39.1818C20.9384 38.2183 22.9534 36.5103 25.4064 36.0724C32.2836 34.8461 36.2698 43.5176 37.7153 50.3936C39.3799 58.2331 41.0006 66.5981 38.1095 74.0434C34.6052 82.9778 25.056 89.1968 23.9171 98.7443C22.9972 106.54 28.1223 114.555 25.4941 121.956C24.3114 125.285 21.6393 127.956 20.369 131.285C18.135 137.241 20.807 143.81 23.4353 149.635C32.196 168.905 41.0006 188.176 49.7614 207.446C51.7325 211.782 53.8351 216.293 57.6461 219.183C60.6685 221.461 64.4357 222.512 67.6333 224.57C72.846 227.899 76.0437 233.548 79.0224 238.979C84.5416 249.008 90.1047 259.213 92.4701 270.424C95.6678 285.709 92.6454 301.52 89.6229 316.848C85.1987 339.228 80.7745 361.651 76.3503 384.031C71.4881 408.688 66.6259 433.301 61.7636 457.959C66.9763 454.805 70.831 449.506 72.2765 443.594C74.7734 459.623 71.6195 476.441 63.472 490.455C62.7711 484.411 62.0703 478.368 61.3694 472.324C55.4121 485.2 52.3458 499.346 52.4334 513.536C52.4334 516.076 52.6525 518.879 54.4484 520.718C56.113 522.47 58.7412 522.864 60.8876 523.959C65.5308 526.412 67.5458 532.894 65.0489 537.536C67.5019 538.105 69.9988 538.674 72.4518 539.244C76.2627 542.266 67.2391 546.514 67.2829 551.375C67.2829 553.346 68.9037 554.923 70.393 556.237C77.3578 562.368 84.3226 568.543 91.3312 574.675C96.1935 576.12 101.231 577.565 106.225 576.777C111.218 575.989 116.168 572.31 116.606 567.273C117.219 560.354 110.035 555.711 105.392 550.543C98.1646 542.529 96.4124 530.747 98.2084 520.105C100.048 509.463 104.998 499.652 109.86 490.061C106.706 488.879 103.552 487.696 100.355 486.47C100.574 479.375 107.845 474.952 112.401 469.521C120.724 459.623 119.804 443.287 110.43 434.396C113.89 431.944 117.351 429.491 120.855 427.083C123.702 431.637 126.55 436.192 129.397 440.747C136.493 435.053 139.165 424.411 135.617 416.002C151.737 420.119 169.959 406.936 171.054 390.294C167.068 390.163 163.914 385.564 165.228 381.798C166.542 378.031 171.843 376.367 175.084 378.688C173.288 383.287 178.588 388.323 183.495 387.71C188.401 387.097 192.08 382.717 193.701 378.031C195.365 373.389 195.497 368.352 196.417 363.491C197.906 355.695 201.41 348.294 206.535 342.25C210.784 337.213 216.26 332.921 218.757 326.834C220.596 322.366 220.596 317.417 221.385 312.644C223.925 297.096 235.358 283.344 250.208 278.001C250.821 284.965 261.816 283.519 266.941 278.789C274.65 271.738 279.819 262.016 281.396 251.724C282.754 242.702 281.571 232.935 285.82 224.833C287.616 221.417 290.376 218.439 291.427 214.716C292.303 211.519 291.865 208.147 292.04 204.818C292.96 187.037 312.015 172.978 309.825 155.329C308.379 143.854 298.392 135.621 289.193 128.657C275.088 118.015 260.107 106.978 242.586 104.788C231.46 103.387 219.457 105.577 209.47 100.54C213.938 100.277 217.092 95.6348 217.311 91.1677C217.53 86.7005 215.603 82.4523 213.719 78.423C212.449 75.7077 211.179 72.9485 209.908 70.2331C204.739 59.1528 196.241 46.1454 184.152 47.8972C180.56 48.4228 176.617 50.2184 173.551 48.2476C170.748 46.452 170.441 42.5541 168.908 39.576C162.95 27.9701 140.304 32.7 136.887 20.0868C136.011 16.8021 136.756 12.8167 134.39 10.3641C132.463 8.39328 129.353 8.34954 126.593 8.43713C114.065 8.91888 101.581 9.35681 89.0534 9.83856C88.6154 14.7437 85.4177 19.3423 80.9497 21.4007C81.6068 24.2912 82.2638 27.1818 82.9209 30.0285C81.9134 35.1526 73.284 34.5395 71.05 29.8095C68.816 25.0795 70.9624 19.5175 73.6344 15.0065C76.2627 10.4955 79.5042 5.94074 79.4604 0.685227C73.7659 -2.03012 68.0276 3.8823 63.9101 8.65605C59.7925 13.4298 51.7764 17.5904 48.0092 12.5101C48.4911 17.7218 48.9729 22.8897 49.4548 28.1015C41.3949 35.1526 26.852 32.0431 22.3402 22.3642C19.2301 26.2182 15.7696 30.2912 10.995 31.6489C6.22038 33.0066 -0.0435754 29.9847 0.000228472 25.0358C2.45324 35.7658 13.0538 43.9994 24.0485 43.7366" fill="#4EAEBC" fill-opacity="0.27"/>
<path d="M164 247C164.296 247 164.588 247.058 164.861 247.171C165.134 247.284 165.383 247.449 165.592 247.658C165.801 247.867 165.966 248.116 166.079 248.389C166.192 248.662 166.25 248.954 166.25 249.25V251.69C169.014 252.156 171.564 253.471 173.547 255.453C175.529 257.436 176.844 259.986 177.31 262.75H179.75C180.347 262.75 180.919 262.987 181.341 263.409C181.763 263.831 182 264.403 182 265C182 265.597 181.763 266.169 181.341 266.591C180.919 267.013 180.347 267.25 179.75 267.25H177.31C176.844 270.014 175.529 272.564 173.547 274.547C171.564 276.529 169.014 277.844 166.25 278.31V280.75C166.25 281.347 166.013 281.919 165.591 282.341C165.169 282.763 164.597 283 164 283C163.403 283 162.831 282.763 162.409 282.341C161.987 281.919 161.75 281.347 161.75 280.75V278.31C158.986 277.844 156.436 276.529 154.453 274.547C152.471 272.564 151.156 270.014 150.69 267.25H148.25C147.653 267.25 147.081 267.013 146.659 266.591C146.237 266.169 146 265.597 146 265C146 264.403 146.237 263.831 146.659 263.409C147.081 262.987 147.653 262.75 148.25 262.75H150.69C151.156 259.986 152.471 257.436 154.453 255.453C156.436 253.471 158.986 252.156 161.75 251.69V249.25C161.75 248.954 161.808 248.662 161.921 248.389C162.034 248.116 162.199 247.867 162.408 247.658C162.617 247.449 162.866 247.284 163.139 247.171C163.412 247.058 163.704 247 164 247ZM155 265C155 266.78 155.528 268.52 156.517 270C157.506 271.48 158.911 272.634 160.556 273.315C162.2 273.996 164.01 274.174 165.756 273.827C167.502 273.48 169.105 272.623 170.364 271.364C171.623 270.105 172.48 268.502 172.827 266.756C173.174 265.01 172.996 263.2 172.315 261.556C171.634 259.911 170.48 258.506 169 257.517C167.52 256.528 165.78 256 164 256C161.613 256 159.324 256.948 157.636 258.636C155.948 260.324 155 262.613 155 265ZM164 259.375C165.113 259.375 166.2 259.705 167.125 260.323C168.05 260.941 168.771 261.82 169.197 262.847C169.623 263.875 169.734 265.006 169.517 266.097C169.3 267.189 168.764 268.191 167.977 268.977C167.191 269.764 166.189 270.3 165.097 270.517C164.006 270.734 162.875 270.623 161.847 270.197C160.82 269.771 159.941 269.05 159.323 268.125C158.705 267.2 158.375 266.113 158.375 265C158.375 263.508 158.968 262.077 160.023 261.023C161.077 259.968 162.508 259.375 164 259.375Z" fill="#96FFFD"/>
<g filter="url(#filter0_f_260_1364)">
<circle cx="163" cy="271" r="49" fill="url(#paint0_radial_260_1364)"/>
</g>
<path d="M163.81 243.301C164.163 243.3 164.513 243.37 164.839 243.504C165.165 243.639 165.462 243.837 165.711 244.087C165.961 244.337 166.159 244.633 166.294 244.959C166.429 245.285 166.498 245.635 166.498 245.988V248.902C169.799 249.459 172.845 251.03 175.213 253.398C177.58 255.765 179.152 258.811 179.708 262.113H182.623C183.335 262.113 184.019 262.396 184.523 262.9C185.027 263.404 185.31 264.088 185.31 264.801C185.31 265.513 185.027 266.197 184.523 266.701C184.019 267.205 183.335 267.488 182.623 267.488H179.708C179.152 270.79 177.58 273.836 175.213 276.203C172.845 278.571 169.799 280.142 166.498 280.699V283.613C166.498 284.326 166.214 285.009 165.71 285.513C165.206 286.017 164.523 286.301 163.81 286.301C163.097 286.301 162.414 286.017 161.91 285.513C161.406 285.009 161.123 284.326 161.123 283.613V280.699C157.821 280.142 154.775 278.571 152.407 276.203C150.04 273.836 148.469 270.79 147.912 267.488H144.998C144.285 267.488 143.601 267.205 143.097 266.701C142.593 266.197 142.31 265.513 142.31 264.801C142.31 264.088 142.593 263.404 143.097 262.9C143.601 262.396 144.285 262.113 144.998 262.113H147.912C148.469 258.811 150.04 255.765 152.407 253.398C154.775 251.03 157.821 249.459 161.123 248.902V245.988C161.122 245.635 161.192 245.285 161.327 244.959C161.462 244.633 161.659 244.337 161.909 244.087C162.159 243.837 162.455 243.639 162.781 243.504C163.107 243.37 163.457 243.3 163.81 243.301ZM153.06 264.801C153.06 266.927 153.691 269.005 154.872 270.773C156.053 272.541 157.732 273.919 159.696 274.732C161.661 275.546 163.822 275.759 165.907 275.344C167.993 274.929 169.908 273.905 171.412 272.402C172.915 270.899 173.939 268.983 174.354 266.898C174.768 264.812 174.555 262.651 173.742 260.687C172.928 258.722 171.55 257.043 169.782 255.862C168.015 254.681 165.936 254.051 163.81 254.051C160.959 254.051 158.225 255.183 156.209 257.199C154.193 259.215 153.06 261.949 153.06 264.801ZM163.81 258.082C165.139 258.082 166.438 258.476 167.543 259.214C168.648 259.952 169.509 261.002 170.017 262.229C170.526 263.457 170.659 264.808 170.4 266.111C170.141 267.415 169.501 268.612 168.561 269.551C167.621 270.491 166.424 271.131 165.121 271.39C163.818 271.649 162.467 271.516 161.239 271.008C160.011 270.499 158.962 269.638 158.224 268.533C157.485 267.428 157.091 266.129 157.091 264.801C157.091 263.019 157.799 261.31 159.059 260.05C160.319 258.79 162.028 258.082 163.81 258.082Z" fill="#96FFFD"/>
<defs>
<filter id="filter0_f_260_1364" x="81" y="189" width="164" height="164" filterUnits="userSpaceOnUse" color-interpolation-filters="sRGB">
<feFlood flood-opacity="0" result="BackgroundImageFix"/>
<feBlend mode="normal" in="SourceGraphic" in2="BackgroundImageFix" result="shape"/>
<feGaussianBlur stdDeviation="16.5" result="effect1_foregroundBlur_260_1364"/>
</filter>
<radialGradient id="paint0_radial_260_1364" cx="0" cy="0" r="1" gradientUnits="userSpaceOnUse" gradientTransform="translate(163 263) rotate(-158.429) scale(46.2385)">
<stop stop-color="#5CFAF7" stop-opacity="0.36"/>
<stop offset="1" stop-color="#5CFAF7" stop-opacity="0"/>
</radialGradient>
</defs>
</svg>
