<svg width="30" height="30" viewBox="0 0 30 30" fill="none" xmlns="http://www.w3.org/2000/svg">
<path fill-rule="evenodd" clip-rule="evenodd" d="M3 10.125C3 6.18997 6.18997 3 10.125 3H19.875C23.81 3 27 6.18997 27 10.125V19.875C27 23.81 23.81 27 19.875 27H10.125C6.18997 27 3 23.81 3 19.875V10.125ZM10.125 5.25C7.43261 5.25 5.25 7.43261 5.25 10.125V19.875C5.25 22.5674 7.43261 24.75 10.125 24.75H19.875C22.5674 24.75 24.75 22.5674 24.75 19.875V10.125C24.75 7.43261 22.5674 5.25 19.875 5.25H10.125Z" fill="white"/>
</svg>
