<svg width="34" height="34" viewBox="0 0 34 34" fill="none" xmlns="http://www.w3.org/2000/svg">
<g opacity="0.5">
<path d="M32 17C32 19.9667 31.1203 22.8668 29.472 25.3336C27.8238 27.8003 25.4811 29.7229 22.7403 30.8582C19.9994 31.9935 16.9834 32.2906 14.0737 31.7118C11.1639 31.133 8.49119 29.7044 6.3934 27.6066C4.29562 25.5088 2.86701 22.8361 2.28823 19.9264C1.70945 17.0166 2.0065 14.0006 3.14181 11.2597C4.27713 8.51886 6.19972 6.17618 8.66645 4.52796C11.1332 2.87973 14.0333 2 17 2C18.9698 2 20.9204 2.38799 22.7403 3.14181C24.5601 3.89563 26.2137 5.00052 27.6066 6.3934C28.9995 7.78628 30.1044 9.43986 30.8582 11.2597C31.612 13.0796 32 15.0302 32 17Z" stroke="#96FFFD" stroke-width="3" stroke-linecap="round" stroke-linejoin="round"/>
<path d="M17 32C13.686 32 11 25.284 11 17C11 8.716 13.686 2 17 2C20.314 2 23 8.716 23 17C23 25.284 20.314 32 17 32Z" stroke="#96FFFD" stroke-width="3" stroke-linecap="round" stroke-linejoin="round"/>
<path d="M2 17H32" stroke="#96FFFD" stroke-width="3" stroke-linecap="round" stroke-linejoin="round"/>
</g>
</svg>
