<svg width="22" height="22" viewBox="0 0 22 22" fill="none" xmlns="http://www.w3.org/2000/svg">
<path d="M20.7291 10.6782C20.7291 12.6509 20.1441 14.5793 19.0482 16.2195C17.9522 17.8597 16.3945 19.138 14.572 19.8929C12.7495 20.6478 10.7441 20.8454 8.80935 20.4605C6.8746 20.0757 5.09742 19.1257 3.70254 17.7309C2.30767 16.336 1.35775 14.5588 0.9729 12.6241C0.588055 10.6893 0.785572 8.68389 1.54047 6.8614C2.29537 5.03891 3.57375 3.4812 5.21395 2.38525C6.85415 1.28931 8.78251 0.704346 10.7552 0.704346C12.0649 0.704346 13.3619 0.962328 14.572 1.46356C15.7821 1.9648 16.8816 2.69947 17.8078 3.62563C18.7339 4.5518 19.4686 5.65131 19.9698 6.8614C20.4711 8.07149 20.7291 9.36846 20.7291 10.6782Z" stroke="white" stroke-linecap="round" stroke-linejoin="round"/>
<path d="M10.7474 20.6522C8.54381 20.6522 6.75781 16.1865 6.75781 10.6782C6.75781 5.16999 8.54381 0.704346 10.7474 0.704346C12.9509 0.704346 14.7369 5.16999 14.7369 10.6782C14.7369 16.1865 12.9509 20.6522 10.7474 20.6522Z" stroke="white" stroke-linecap="round" stroke-linejoin="round"/>
<path d="M0.78125 10.6782H20.7291" stroke="white" stroke-linecap="round" stroke-linejoin="round"/>
</svg>
